/* XPM */
static char *castle_close[] = {
/* columns rows colors chars-per-pixel */
"50 50 113 2 ",
"   c #100F0F",
".  c #191717",
"X  c #211207",
"o  c #291709",
"O  c #2B190A",
"+  c #331F0C",
"@  c #221D19",
"#  c #3E200B",
"$  c #392213",
"%  c #3A291D",
"&  c #2C2928",
"*  c #343232",
"=  c #3E3D3C",
"-  c #45230B",
";  c #49250B",
":  c #4D2B0E",
">  c #553312",
",  c #5B3411",
"<  c #5E3813",
"1  c #53361C",
"2  c #58381A",
"3  c #603812",
"4  c #4D3C2D",
"5  c #503E2F",
"6  c #413F3F",
"7  c #503F30",
"8  c #6D3733",
"9  c #6B4116",
"0  c #42403F",
"q  c #4C423B",
"w  c #5A4634",
"e  c #52463D",
"r  c #444242",
"t  c #494747",
"y  c #4C4A4A",
"u  c #5B4542",
"i  c #584C43",
"p  c #524E4E",
"a  c #5C5046",
"s  c #555252",
"d  c #5A5756",
"f  c #5A5857",
"g  c #5D5B5B",
"h  c #62574F",
"j  c #605955",
"k  c #615E5E",
"l  c #755754",
"z  c #62605F",
"x  c #796958",
"c  c #656363",
"v  c #696665",
"b  c #6C6867",
"n  c #6E6B6B",
"m  c #736A65",
"M  c #716F6E",
"N  c #73706F",
"B  c #757272",
"V  c #797675",
"C  c #7B7877",
"Z  c #7D7B7A",
"A  c #9E2628",
"S  c #8A3838",
"D  c #A22422",
"F  c #EC1E25",
"G  c #B07F32",
"H  c #884743",
"J  c #88504F",
"K  c #8B5C5B",
"L  c #877E75",
"P  c #8C7F70",
"I  c #817E7D",
"U  c #B68331",
"Y  c #CB9035",
"T  c #9C8360",
"R  c #918069",
"E  c #84807F",
"W  c #858281",
"Q  c #898685",
"!  c #8B8887",
"~  c #8D8A8A",
"^  c #918E8D",
"/  c #94908F",
"(  c #969291",
")  c #9A9695",
"_  c #9C9897",
"`  c #9E9A99",
"'  c #A19D9C",
"]  c #A4A09F",
"[  c #A9A09F",
"{  c #A5A2A1",
"}  c #AAA5A4",
"|  c #ADA9A7",
" . c #AEABA9",
".. c #B2ADAC",
"X. c #B5B0AF",
"o. c #B7B2B0",
"O. c #B8B3B1",
"+. c #BDB9B7",
"@. c #BDBBBA",
"#. c #C1BDBC",
"$. c #C4C0BF",
"%. c #C5C3C2",
"&. c #C9C6C4",
"*. c #CBC8C7",
"=. c #CFCCCC",
"-. c #D5D2D2",
";. c #DBDBDB",
":. c #E6E6E6",
">. c #EFEEEE",
",. c #F0EFEF",
"<. c #F4F3F3",
"1. c #F8F7F7",
"2. c #FDFDFD",
/* pixels */
",.2.2.<.>.<.2.2.>.>.1.2.2.<.>.1.2.2.<.>.2.2.1.>.>.2.2.<.<.,.2.2.<.>.<.2.2.>.>.<.2.2.<.>.1.2.2.>.>.2.",
"<.2.2.<.>.<.2.2.>.,.<.2.2.>.,.2.2.2.>.>.2.2.2.>.<.2.2.<.>.,.2.2.,.<.<.2.2.>.<.<.2.2.>.>.2.2.2.<.>.2.",
"1.<.<.<.2.1.<.<.1.2.<.<.<.1.2.<.<.<.1.1.<.<.1.1.1.<.<.<.1.1.<.<.1.1.1.<.<.1.1.1.<.<.1.1.<.<.<.1.1.<.",
"2.>.<.2.2.1.>.<.2.2.1.>.,.2.2.<.<.<.2.2.>.<.<.2.2.,.<.1.2.2.>.<.2.2.2.>.<.2.2.1.>.<.2.2.<.<.<.2.2.<.",
"2.<.<.1.2.1.>.<.2.2.1.<.,.2.2.l J { 2.2.<.>.<.2.2.<.<.1.2.2.,.,.2.2.2.8 K #.2.1.,.<.2.2.<.,.<.2.2.<.",
">.2.2.,.<.<.2.2.>.>.<.2.2.,.,.H F F D +.2.2.1.>.>.2.2.<.<.>.2.2.,.,.,.A F F S -.2.2.>.>.2.2.2.>.>.2.",
",.2.2.<.>.<.2.2.>.>.1.2.2.,.>.p &.=.' -.2.2.1.<.>.2.2.<.>.<.2.2.,.,.<.u -.+.{ :.2.2.>.>.1.2.2.,.>.2.",
"1.<.<.1.2.1.<.<.2.2.1.,.<.2.2.c ,.<.2.2.<.<.<.2.2.<.<.1.2.1.<.<.1.2.2.Z ,.2.2.1.<.<.2.2.<.<.<.2.2.<.",
"2.>.>.2.2.2.>.,.2.2.1.>.c B =.b ' W W >.>.<.<.2.2.>.<.1.2.2.,.&.V { W B ;.b B 1.>.>.2.2.<.,.<.2.2.<.",
"2.<.<.1.1.1.<.<.1.2.<.<.E ^ C O.C Z %.:.<.<.1.1.1.<.<.1.2.1.<.&.} Z I O.C ) } 1.<.<.2.1.<.<.<.1.1.<.",
"<.2.2.<.,.<.2.2.>.>.1.2.W } O.| O.O.%.;.2.2.1.>.,.2.2.<.>.,.2.=.|  .O.} O.O.{ 1.2.2.>.,.2.2.2.>.>.2.",
">.2.2.<.,.<.2.2.>.<.<.2.z / { X.O.O.&.;.2.2.1.<.,.2.2.<.>.,.2.-.Z ( } X.O.O.` 1.2.2.>.>.2.2.2.,.>.2.",
"2.>.>.2.2.1.>.>.2.2.1.<.k t y y r p t 1.>.>.<.2.2.>.>.2.2.2.<.:.r y y t y p n 1.<.>.2.2.<.>.,.2.2.<.",
"2.>.<.2.2.2.>.<.2.2.<.<.} I ..) ^ *.^ 2.<.<.<.2.2.>.>.1.2.2.>.>.n )  .) ` -.;.1.>.>.2.2.<.,.,.2.2.>.",
"<.1.1.<.<.<.1.1.<.<.<.1.| ` y > B *.~ 1.1.1.1.<.<.1.1.1.<.<.1.1.n } i > B -.-.<.1.1.<.<.1.1.1.<.<.1.",
"<.2.2.<.<.<.2.2.<.>.1.2. .v 1 < t *.~ >.2.2.1.>.<.2.2.<.,.<.2.2.c C 1 < q -.=.1.2.2.>.<.2.2.2.,.<.2.",
",.2.2.,.>.<.2.2.,.,.1.2.| B 7 > j *.~ ,.2.2.1.<.>.2.2.<.<.<.2.2.b Q 4 > d -.=.1.2.2.>.,.1.2.2.,.,.2.",
"2.>.,.2.2.1.>.>.2.2.1.>.} ) B Z V *.^ 2.,.>.<.2.2.>.<.1.2.2.>.>.M | B W B -.-.1.<.>.2.2.<.,.,.2.2.,.",
"2.,.>.2.2.2.>.>.2.2.1.>.{ B Q } O.*.^ 2.<.>.<.2.2.>.>.1.2.2.>.>.c E ~ | O.-.;.1.>.>.2.2.<.,.,.2.2.,.",
",.2.2.<.,.<.2.2.<.<.%.n B C O.t B z ~ %.C W | <.f Q v <.%.Z W o.M s W c O.] I W +.2.<.<.1.2.2.,.,.2.",
",.2.2.<.>.<.2.2.>.>.d ) ' k v k n k g n W | B Z E o.( I B { W b d k V V N N X.O.c 2.,.>.2.2.2.,.,.2.",
"<.@.B C >.@.C W >.%.d B ` ' ' ' ` ` } O.o.O.X.O.o.o.o.X.O.O.O.O.o.X.o.o.O.o.O.t c W <.v C Z 1.v B Z ",
"2. .} %.@.~ O.&.o.( O.*.) ' ' ` ) ~ Q W W ( / ~ ! ! ! ^ ~ ^ ( ) ' ' } ..o.o.O.s O.Z @.N +.Z O.n @.! ",
"2. .(  .O.O.O.O.O.o.o.*.) ' ' ' ' ' Z ' ' ' | ~ o.o.o.O.~ O.X.O.o.) o.o.o.o.O.r } ..O.O.O.O.O.O.@.W ",
"<.+.} ( O.O.O.( o.o.o.&._ ' ' ` ) ( ^ ~ ^ ! Q E ( ) ) ' ( ' ' ' { ] | X.o.o.o.p ..X.X.O...O.O.O.@.~ ",
">.@.` { ..o.O.{ o.o.o.&.' ' ' ' _ ' ' ' ' ~ ] ' ' ' { O.o.o...O.O.X.O.o.o.o.O.y ..X.X.X...O.O.X.#.~ ",
"1.@.} o.O.O.O.O.+.#.%.&._ ' ' ' ) ( ( / ^ E Q ! ! ^ Q ! _ ' ' [ } | ..X.o.o.o.s O.X.O.O.O.O.@.$.*.W ",
"2.:.z k k g g g k z c * E E ^ ' ' Q B E E ' ] Q E E E ) ~ ] ^ / / Q O.O.' / / N y z g g g g g c s o.",
"2.,.} Z O.O.O.O.{ #.=._ ' ' v ' ' c X.O.~ ' ' b [ O.O.I I ' E o.O.B O.X.b | O.| r Q O.O.O.` O.-.~ ,.",
",.2.{ B } ....X.| #.=.` ' ( d V B s / ] ~ N V j ] O.O.c V V E | ` f W Q d ( X.| 0 Q | ..o.` O.-.Q 2.",
",.2.{ W O.^ O.O.O.$.=.` ' ' X.O.O.O.O.O.O.O.O.O.o.o.o.O.O.O.O.O.O.O.O.O.O.O.O.O.d X.O.} O.O.o.-.Q 2.",
"2.,.( Z ..' O.O.X.%.=.` ' ' ' } O.o.o.o.o.o.o.o.o.o.o.o.o.o.o.O.O.X.O.O.X.O.X.o.y } ....o.o.o.-.! <.",
"2.>.~ B o.o.X.o. .%.=._ ' ' ' ' ' ..O.O.O.O.X.X.o.o.O.o.o.o.X.o.o.o.o.o.O.X.O.O.g ^ o.o.o._ O.-.~ ,.",
"2.<.~ C O.O.O.o. .%.=._ ' ' ' _ ( ^ ^ ' ' ' _ ^ _ ( _ _ ^ ' ' ' ' ' } ..X.O.X.O.g ! o.X.o.( o.-.! <.",
",.2.W M ) ( } ..O.&.=._ ' ' ' ` ' ^ ' ' | o.o.Z M m B } ^ O.o.o.X.' o.o.O.X.O.O.p ( ` ' | ..X.-.Q 2.",
",.2.I W O.~ O.O.O.%.=._ ' ' ' x ' ( ' ' ' ^ B O.O.~ X...z ..o.o.X.' O...L O.O.O.g ..O.} O.o.X.-.Q 2.",
"2.,.B z ~ ^ ]  .O.&.=._ ' ' R Y ^ ^ ^ ^ V ' [ 4 > : # e ..C _ ' ' } | T Y ..O...y C / ) | X.O.-.~ >.",
"2.>.B B O.O.O.O.O.&.=._ ' ' I U ( ' ' ( ( Z < 3 3 3 3 : $ ..V } O.O.O.P G ..X...g W X.X.X.o.X.-.~ ,.",
"1.1.N g ^ ^ {  .X.*.=.` ' ` b : I ' ' v ..> 3 , 3 3 3 3 : % O.N X.X.| a :  .X. .6 B / ' | X.o.-.! 1.",
",.2.V I O.~ O.O.o.*.=._ ' ' ^ < ) ) Q ..i 9 3 > 3 3 3 3 , - L ^ | ....L 2 O.O.| j ..O.{ O.X.O.-.! 2.",
",.2.n g ^ _ {  .o.*.=._ ' ' ' > ' ` c X.3 3 3 , 3 3 3 3 , , $ ) ~ ..O.' w o.o.} y I ( ' | ..O.-.! 2.",
"2.>.N b O.O.O.O.O.*.=._ ' ' ' 6 ' ( V I 9 3 3 , 3 3 3 3 , 3 - ..b ` O.O.b o.o.{ c W O.O.O.O.O.-.! ,.",
"2.,.v n ....X.O.o.*.=._ ' ' ' W ' ( ` h 9 < 3 > 3 3 3 3 > 3 - ~ B ` O.O.] O.O.] j ! X.X.O.X.O.-.! >.",
"<.2.b Z X.' X.O.o.*.=.` ' ' ' _ ( ^ } w 9 < 3 , 3 3 3 3 > 3 ; M Z ^ '  .O.O.O.' v | O.| X.O.O.-.! 2.",
">.2.c C O.^ O.O.o.=.=._ ' ' ' W ' _ ' 5 3 3 3 3 3 3 3 3 , < ; b I ' ' ] o.o.o.` c | O.| O.O.O.-.! 2.",
"<.2.g n |  .....o.=.=._ ' ' ' W ' ' | 5 9 3 3 3 3 3 3 3 < 3 ; v ! ' ' ' ' } o.` v W |  ...O.X.-.! 1.",
"`   . N O.O.O.O.O.$.Z 6 r 6 r 6 t 6 t @ + + o o o o X o O o X & = r r r r r r r y ` o.o.O.O.O.O.W >.",
"2.-.] Q B C ^ ` #.,.<.:.>.2.1.,.:.,.1.1.,.:.,.1.1.:.>.,.1.<.>.>.1.1.<.>.:.1.,.@.^ B B ! ) { =.1.2.<.",
",.2.2.<.>.<.2.2.>.>.<.2.2.<.>.1.2.2.>.>.2.2.1.<.>.2.2.<.<.,.2.2.,.>.<.2.2.>.>.<.2.2.<.>.1.2.2.>.>.2.",
",.2.2.,.>.<.2.2.>.<.1.2.2.>.<.1.2.2.>.<.2.2.1.>.<.2.2.<.>.,.2.2.,.>.<.2.2.<.<.1.2.2.>.>.2.2.2.>.,.2."
};
