/* XPM */
static char * dale_jaune_xpm[] = {
"64 64 30 1",
" 	c #C2B48D",
".	c #C3B58E",
"+	c #C3B48E",
"@	c #C2B38C",
"#	c #C3B48D",
"$	c #CABB94",
"%	c #CFBF98",
"&	c #CFC099",
"*	c #CEBE97",
"=	c #D0C19A",
"-	c #CDBD96",
";	c #CFBE97",
">	c #CFBE98",
",	c #D0C099",
"'	c #CCBD96",
")	c #CFC098",
"!	c #CDBE97",
"~	c #CFC09A",
"{	c #CCBC96",
"]	c #D1C19A",
"^	c #D0C09A",
"/	c #CEBD97",
"(	c #C4B48D",
"_	c #CEBF98",
":	c #CFC19A",
"<	c #C1B28C",
"[	c #C4B68F",
"}	c #C1B38C",
"|	c #C2B38D",
"1	c #C4B58F",
"                                                                ",
" .++++++++++++ @ .++++++++++++ @ .++++++++++++ @ .++++++++++++ @",
"#+$%%&&*%%%=%-+##+$%%&&*%%%=%-+##+$%%&&*%%%=%-+##+$%%&&*%%%=%-+#",
"# -;>>>==,>>>=+## -;>>>==,>>>=+## -;>>>==,>>>=+## -;>>>==,>>>=+#",
" +'%%&&***=&,)+# +'%%&&***=&,)+# +'%%&&***=&,)+# +'%%&&***=&,)+#",
" .!>=,>,>,,&,)+# .!>=,>,>,,&,)+# .!>=,>,>,,&,)+# .!>=,>,>,,&,)+#",
" .*~{%)]^/]],)+# .*~{%)]^/]],)+# .*~{%)]^/]],)+# .*~{%)]^/]],)+#",
" .*~;,;,]&&>&=+( .*~;,;,]&&>&=+( .*~;,;,]&&>&=+( .*~;,;,]&&>&=+(",
" ._);]&,,&:=,)+( ._);]&,,&:=,)+( ._);]&,,&:=,)+( ._);]&,,&:=,)+(",
" .&~:]*)&*&=]]+# .&~:]*)&*&=]]+# .&~:]*)&*&=]]+# .&~:]*)&*&=]]+#",
"@.&~:,;::%&>>]+ @.&~:,;::%&>>]+ @.&~:,;::%&>>]+ @.&~:,;::%&>>]+ ",
"<[;)_]]]&,==:)+ <[;)_]]]&,==:)+ <[;)_]]]&,==:)+ <[;)_]]]&,==:)+ ",
"}.>>]]%%*:,&,:+ }.>>]]%%*:,&,:+ }.>>]]%%*:,&,:+ }.>>]]%%*:,&,:+ ",
"@+&]:::==,,>>%+|@+&]:::==,,>>%+|@+&]:::==,,>>%+|@+&]:::==,,>>%+|",
"@ 1++++++++++++ @ 1++++++++++++ @ 1++++++++++++ @ 1++++++++++++ ",
" <#   @@@@##     <#   @@@@##     <#   @@@@##     <#   @@@@##    ",
"                                                                ",
"++++++ @ .++++++++++++ @ .++++++++++++ @ .++++++++++++ @ .++++++",
"%%%=%-+##+$%%&&*%%%=%-+##+$%%&&*%%%=%-+##+$%%&&*%%%=%-+##+$%%&&*",
"=,>>>=+## -;>>>==,>>>=+## -;>>>==,>>>=+## -;>>>==,>>>=+## -;>>>=",
"**=&,)+# +'%%&&***=&,)+# +'%%&&***=&,)+# +'%%&&***=&,)+# +'%%&&*",
">,,&,)+# .!>=,>,>,,&,)+# .!>=,>,>,,&,)+# .!>=,>,>,,&,)+# .!>=,>,",
"^/]],)+# .*~{%)]^/]],)+# .*~{%)]^/]],)+# .*~{%)]^/]],)+# .*~{%)]",
"]&&>&=+( .*~;,;,]&&>&=+( .*~;,;,]&&>&=+( .*~;,;,]&&>&=+( .*~;,;,",
",&:=,)+( ._);]&,,&:=,)+( ._);]&,,&:=,)+( ._);]&,,&:=,)+( ._);]&,",
"&*&=]]+# .&~:]*)&*&=]]+# .&~:]*)&*&=]]+# .&~:]*)&*&=]]+# .&~:]*)",
":%&>>]+ @.&~:,;::%&>>]+ @.&~:,;::%&>>]+ @.&~:,;::%&>>]+ @.&~:,;:",
"&,==:)+ <[;)_]]]&,==:)+ <[;)_]]]&,==:)+ <[;)_]]]&,==:)+ <[;)_]]]",
"*:,&,:+ }.>>]]%%*:,&,:+ }.>>]]%%*:,&,:+ }.>>]]%%*:,&,:+ }.>>]]%%",
"=,,>>%+|@+&]:::==,,>>%+|@+&]:::==,,>>%+|@+&]:::==,,>>%+|@+&]:::=",
"+++++++ @ 1++++++++++++ @ 1++++++++++++ @ 1++++++++++++ @ 1+++++",
"@@##     <#   @@@@##     <#   @@@@##     <#   @@@@##     <#   @@",
"                                                                ",
" .++++++++++++ @ .++++++++++++ @ .++++++++++++ @ .++++++++++++ @",
"#+$%%&&*%%%=%-+##+$%%&&*%%%=%-+##+$%%&&*%%%=%-+##+$%%&&*%%%=%-+#",
"# -;>>>==,>>>=+## -;>>>==,>>>=+## -;>>>==,>>>=+## -;>>>==,>>>=+#",
" +'%%&&***=&,)+# +'%%&&***=&,)+# +'%%&&***=&,)+# +'%%&&***=&,)+#",
" .!>=,>,>,,&,)+# .!>=,>,>,,&,)+# .!>=,>,>,,&,)+# .!>=,>,>,,&,)+#",
" .*~{%)]^/]],)+# .*~{%)]^/]],)+# .*~{%)]^/]],)+# .*~{%)]^/]],)+#",
" .*~;,;,]&&>&=+( .*~;,;,]&&>&=+( .*~;,;,]&&>&=+( .*~;,;,]&&>&=+(",
" ._);]&,,&:=,)+( ._);]&,,&:=,)+( ._);]&,,&:=,)+( ._);]&,,&:=,)+(",
" .&~:]*)&*&=]]+# .&~:]*)&*&=]]+# .&~:]*)&*&=]]+# .&~:]*)&*&=]]+#",
"@.&~:,;::%&>>]+ @.&~:,;::%&>>]+ @.&~:,;::%&>>]+ @.&~:,;::%&>>]+ ",
"<[;)_]]]&,==:)+ <[;)_]]]&,==:)+ <[;)_]]]&,==:)+ <[;)_]]]&,==:)+ ",
"}.>>]]%%*:,&,:+ }.>>]]%%*:,&,:+ }.>>]]%%*:,&,:+ }.>>]]%%*:,&,:+ ",
"@+&]:::==,,>>%+|@+&]:::==,,>>%+|@+&]:::==,,>>%+|@+&]:::==,,>>%+|",
"@ 1++++++++++++ @ 1++++++++++++ @ 1++++++++++++ @ 1++++++++++++ ",
" <#   @@@@##     <#   @@@@##     <#   @@@@##     <#   @@@@##    ",
"                                                                ",
"++++++ @ .++++++++++++ @ .++++++++++++ @ .++++++++++++ @ .++++++",
"%%%=%-+##+$%%&&*%%%=%-+##+$%%&&*%%%=%-+##+$%%&&*%%%=%-+##+$%%&&*",
"=,>>>=+## -;>>>==,>>>=+## -;>>>==,>>>=+## -;>>>==,>>>=+## -;>>>=",
"**=&,)+# +'%%&&***=&,)+# +'%%&&***=&,)+# +'%%&&***=&,)+# +'%%&&*",
">,,&,)+# .!>=,>,>,,&,)+# .!>=,>,>,,&,)+# .!>=,>,>,,&,)+# .!>=,>,",
"^/]],)+# .*~{%)]^/]],)+# .*~{%)]^/]],)+# .*~{%)]^/]],)+# .*~{%)]",
"]&&>&=+( .*~;,;,]&&>&=+( .*~;,;,]&&>&=+( .*~;,;,]&&>&=+( .*~;,;,",
",&:=,)+( ._);]&,,&:=,)+( ._);]&,,&:=,)+( ._);]&,,&:=,)+( ._);]&,",
"&*&=]]+# .&~:]*)&*&=]]+# .&~:]*)&*&=]]+# .&~:]*)&*&=]]+# .&~:]*)",
":%&>>]+ @.&~:,;::%&>>]+ @.&~:,;::%&>>]+ @.&~:,;::%&>>]+ @.&~:,;:",
"&,==:)+ <[;)_]]]&,==:)+ <[;)_]]]&,==:)+ <[;)_]]]&,==:)+ <[;)_]]]",
"*:,&,:+ }.>>]]%%*:,&,:+ }.>>]]%%*:,&,:+ }.>>]]%%*:,&,:+ }.>>]]%%",
"=,,>>%+|@+&]:::==,,>>%+|@+&]:::==,,>>%+|@+&]:::==,,>>%+|@+&]:::=",
"+++++++ @ 1++++++++++++ @ 1++++++++++++ @ 1++++++++++++ @ 1+++++",
"@@##     <#   @@@@##     <#   @@@@##     <#   @@@@##     <#   @@"};
