/* XPM */
static char * black_window_xpm[] = {
"64 64 53 1",
" 	c #333530",
".	c #343631",
"+	c #363833",
"@	c #353632",
"#	c #4A4B49",
"$	c #494A48",
"%	c #494947",
"&	c #494847",
"*	c #484846",
"=	c #494848",
"-	c #4A4A49",
";	c #373834",
">	c #4B4747",
",	c #484444",
"'	c #484344",
")	c #474343",
"!	c #494948",
"~	c #484545",
"{	c #4B4B49",
"]	c #4B4B4A",
"^	c #343531",
"/	c #474444",
"(	c #474544",
"_	c #393A36",
":	c #494747",
"<	c #494545",
"[	c #4B4A49",
"}	c #4C4C4B",
"|	c #474443",
"1	c #4D4D4C",
"2	c #4A4A48",
"3	c #4C4C4A",
"4	c #4F4F4D",
"5	c #484746",
"6	c #484646",
"7	c #4A4947",
"8	c #4A4848",
"9	c #4A4948",
"0	c #4A4646",
"a	c #4C4A49",
"b	c #494746",
"c	c #474344",
"d	c #4A4847",
"e	c #4B4948",
"f	c #4C4B4A",
"g	c #4E4D4C",
"h	c #4D4C4B",
"i	c #494445",
"j	c #353733",
"k	c #50504F",
"l	c #4C4D4B",
"m	c #393B37",
"n	c #383A36",
"     .++++++++.      .++++++++.      .++++++++.      .++++++++. ",
"@#$%&&*&=%--###;@#$%&&*&=%--###;@#$%&&*&=%--###;@#$%&&*&=%--###;",
"@#>,','')))))>#@@#>,','')))))>#@@#>,','')))))>#@@#>,','')))))>#@",
"@#,!~{###{]~])#^@#,!~{###{]~])#^@#,!~{###{]~])#^@#,!~{###{]~])#^",
";#,/#~-###(*/)# ;#,/#~-###(*/)# ;#,/#~-###(*/)# ;#,/#~-###(*/)# ",
"_#'#~!))))$*:<# _#'#~!))))$*:<# _#'#~!))))$*:<# _#'#~!))))$*:<# ",
"@#,#[)}#{$|12,# @#,#[)}#{$|12,# @#,#[)}#{$|12,# @#,#[)}#{$|12,# ",
"@3'#-)####)[])] @3'#-)####)[])] @3'#-)####)[])] @3'#-)####)[])] ",
"@4)##)-###)5])# @4)##)-###)5])# @4)##)-###)5])# @4)##)-###)5])# ",
"@#,##|678!|-])# @#,##|678!|-])# @#,##|678!|-])# @#,##|678!|-])# ",
".-,9/#)))|#0{)2 .-,9/#)))|#0{)2 .-,9/#)))|#0{)2 .-,9/#)))|#0{)2 ",
"^-)~-~##]ab]~c# ^-)~-~##]ab]~c# ^-)~-~##]ab]~c# ^-)~-~##]ab]~c# ",
" -)d/eefg]#~h)#  -)d/eefg]#~h)#  -)d/eefg]#~h)#  -)d/eefg]#~h)# ",
" #<,,,,))<<i))#  #<,,,,))<<i))#  #<,,,,))<<i))#  #<,,,,))<<i))# ",
"jk{#####$&55&#l jk{#####$&55&#l jk{#####$&55&#l jk{#####$&55&#l ",
"        .mmmnj          .mmmnj          .mmmnj          .mmmnj  ",
"     .++++++++.      .++++++++.      .++++++++.      .++++++++. ",
"@#$%&&*&=%--###;@#$%&&*&=%--###;@#$%&&*&=%--###;@#$%&&*&=%--###;",
"@#>,','')))))>#@@#>,','')))))>#@@#>,','')))))>#@@#>,','')))))>#@",
"@#,!~{###{]~])#^@#,!~{###{]~])#^@#,!~{###{]~])#^@#,!~{###{]~])#^",
";#,/#~-###(*/)# ;#,/#~-###(*/)# ;#,/#~-###(*/)# ;#,/#~-###(*/)# ",
"_#'#~!))))$*:<# _#'#~!))))$*:<# _#'#~!))))$*:<# _#'#~!))))$*:<# ",
"@#,#[)}#{$|12,# @#,#[)}#{$|12,# @#,#[)}#{$|12,# @#,#[)}#{$|12,# ",
"@3'#-)####)[])] @3'#-)####)[])] @3'#-)####)[])] @3'#-)####)[])] ",
"@4)##)-###)5])# @4)##)-###)5])# @4)##)-###)5])# @4)##)-###)5])# ",
"@#,##|678!|-])# @#,##|678!|-])# @#,##|678!|-])# @#,##|678!|-])# ",
".-,9/#)))|#0{)2 .-,9/#)))|#0{)2 .-,9/#)))|#0{)2 .-,9/#)))|#0{)2 ",
"^-)~-~##]ab]~c# ^-)~-~##]ab]~c# ^-)~-~##]ab]~c# ^-)~-~##]ab]~c# ",
" -)d/eefg]#~h)#  -)d/eefg]#~h)#  -)d/eefg]#~h)#  -)d/eefg]#~h)# ",
" #<,,,,))<<i))#  #<,,,,))<<i))#  #<,,,,))<<i))#  #<,,,,))<<i))# ",
"jk{#####$&55&#l jk{#####$&55&#l jk{#####$&55&#l jk{#####$&55&#l ",
"        .mmmnj          .mmmnj          .mmmnj          .mmmnj  ",
"     .++++++++.      .++++++++.      .++++++++.      .++++++++. ",
"@#$%&&*&=%--###;@#$%&&*&=%--###;@#$%&&*&=%--###;@#$%&&*&=%--###;",
"@#>,','')))))>#@@#>,','')))))>#@@#>,','')))))>#@@#>,','')))))>#@",
"@#,!~{###{]~])#^@#,!~{###{]~])#^@#,!~{###{]~])#^@#,!~{###{]~])#^",
";#,/#~-###(*/)# ;#,/#~-###(*/)# ;#,/#~-###(*/)# ;#,/#~-###(*/)# ",
"_#'#~!))))$*:<# _#'#~!))))$*:<# _#'#~!))))$*:<# _#'#~!))))$*:<# ",
"@#,#[)}#{$|12,# @#,#[)}#{$|12,# @#,#[)}#{$|12,# @#,#[)}#{$|12,# ",
"@3'#-)####)[])] @3'#-)####)[])] @3'#-)####)[])] @3'#-)####)[])] ",
"@4)##)-###)5])# @4)##)-###)5])# @4)##)-###)5])# @4)##)-###)5])# ",
"@#,##|678!|-])# @#,##|678!|-])# @#,##|678!|-])# @#,##|678!|-])# ",
".-,9/#)))|#0{)2 .-,9/#)))|#0{)2 .-,9/#)))|#0{)2 .-,9/#)))|#0{)2 ",
"^-)~-~##]ab]~c# ^-)~-~##]ab]~c# ^-)~-~##]ab]~c# ^-)~-~##]ab]~c# ",
" -)d/eefg]#~h)#  -)d/eefg]#~h)#  -)d/eefg]#~h)#  -)d/eefg]#~h)# ",
" #<,,,,))<<i))#  #<,,,,))<<i))#  #<,,,,))<<i))#  #<,,,,))<<i))# ",
"jk{#####$&55&#l jk{#####$&55&#l jk{#####$&55&#l jk{#####$&55&#l ",
"        .mmmnj          .mmmnj          .mmmnj          .mmmnj  ",
"     .++++++++.      .++++++++.      .++++++++.      .++++++++. ",
"@#$%&&*&=%--###;@#$%&&*&=%--###;@#$%&&*&=%--###;@#$%&&*&=%--###;",
"@#>,','')))))>#@@#>,','')))))>#@@#>,','')))))>#@@#>,','')))))>#@",
"@#,!~{###{]~])#^@#,!~{###{]~])#^@#,!~{###{]~])#^@#,!~{###{]~])#^",
";#,/#~-###(*/)# ;#,/#~-###(*/)# ;#,/#~-###(*/)# ;#,/#~-###(*/)# ",
"_#'#~!))))$*:<# _#'#~!))))$*:<# _#'#~!))))$*:<# _#'#~!))))$*:<# ",
"@#,#[)}#{$|12,# @#,#[)}#{$|12,# @#,#[)}#{$|12,# @#,#[)}#{$|12,# ",
"@3'#-)####)[])] @3'#-)####)[])] @3'#-)####)[])] @3'#-)####)[])] ",
"@4)##)-###)5])# @4)##)-###)5])# @4)##)-###)5])# @4)##)-###)5])# ",
"@#,##|678!|-])# @#,##|678!|-])# @#,##|678!|-])# @#,##|678!|-])# ",
".-,9/#)))|#0{)2 .-,9/#)))|#0{)2 .-,9/#)))|#0{)2 .-,9/#)))|#0{)2 ",
"^-)~-~##]ab]~c# ^-)~-~##]ab]~c# ^-)~-~##]ab]~c# ^-)~-~##]ab]~c# ",
" -)d/eefg]#~h)#  -)d/eefg]#~h)#  -)d/eefg]#~h)#  -)d/eefg]#~h)# ",
" #<,,,,))<<i))#  #<,,,,))<<i))#  #<,,,,))<<i))#  #<,,,,))<<i))# ",
"jk{#####$&55&#l jk{#####$&55&#l jk{#####$&55&#l jk{#####$&55&#l ",
"        .mmmnj          .mmmnj          .mmmnj          .mmmnj  "};
