/* XPM */
static char *boom[] = {
/* columns rows colors chars-per-pixel */
"50 50 223 2 ",
"   c #3D3D3D",
".  c #413F3F",
"X  c #7E4734",
"o  c #4E4E4E",
"O  c #454545",
"+  c gray32",
"@  c #5B5B5B",
"#  c #585250",
"$  c #534E4B",
"%  c #695747",
"&  c #72615E",
"*  c #776446",
"=  c #646363",
"-  c #6A6563",
";  c #6C6C6C",
":  c #6B6867",
">  c #766C66",
",  c #77736A",
"<  c #757575",
"1  c #7B7B7B",
"2  c #7E7873",
"3  c #CF2B15",
"4  c #CD2E19",
"5  c #D12D14",
"6  c #CE321C",
"7  c #C83C1F",
"8  c #D63412",
"9  c #D53913",
"0  c #DB3C11",
"q  c #D53D19",
"w  c #C83C29",
"e  c #D03921",
"r  c #A54A3B",
"t  c #896A32",
"y  c #B46C3D",
"u  c #DD4212",
"i  c #DC4B12",
"p  c #D6441A",
"a  c #DD5510",
"s  c #E54B0F",
"d  c #EB530E",
"f  c #ED590E",
"g  c #E7590F",
"h  c #F25D0D",
"j  c #E24610",
"k  c #E65B15",
"l  c #E46C0F",
"z  c #E6630E",
"x  c #F9650B",
"c  c #F66B0B",
"v  c #FD6C09",
"b  c #F3640D",
"n  c #E7780F",
"m  c #E97C0E",
"M  c #E7730E",
"N  c #FD730A",
"B  c #FD7A09",
"V  c #F3750C",
"C  c #E36B12",
"Z  c #E76515",
"A  c #E77617",
"S  c #F77313",
"D  c #F16819",
"F  c #C94329",
"G  c #D85625",
"H  c #C64635",
"J  c #CE513D",
"K  c #D14932",
"L  c #CF7027",
"P  c #CD6D3F",
"I  c #EA6A27",
"U  c #E57C29",
"Y  c #E77E3B",
"T  c #E06E35",
"R  c #8C5E59",
"E  c #B35445",
"W  c #87665A",
"Q  c #957155",
"!  c #B4705A",
"~  c #896A63",
"^  c #877566",
"/  c #857D7A",
"(  c #9A746E",
")  c #B87C74",
"_  c #AD6A61",
"`  c #D45848",
"'  c #D87745",
"]  c #C66A5D",
"[  c #D16152",
"{  c #CD7C54",
"}  c #C5796B",
"|  c #B18C36",
" . c #EC850E",
".. c #ED8B0D",
"X. c #FD830A",
"o. c #FC8C0A",
"O. c #F3880C",
"+. c #EF900D",
"@. c #FD920A",
"#. c #F29B0D",
"$. c #FE9A0A",
"%. c #F0910D",
"&. c #FB9E16",
"*. c #E98C11",
"=. c #F5A30D",
"-. c #FDA30A",
";. c #FBAD0B",
":. c #F7AA0C",
">. c #FCB30A",
",. c #FDBC0B",
"<. c #FBAC1C",
"1. c #FAA614",
"2. c #EDA712",
"3. c #D19228",
"4. c #C7902D",
"5. c #EF942C",
"6. c #FAA827",
"7. c #FCBC27",
"8. c #ECA237",
"9. c #F7AA3D",
"0. c #FCBB33",
"q. c #E8A323",
"w. c #FEC30B",
"e. c #FDC518",
"r. c #FBC528",
"t. c #FDCC3C",
"y. c #FCD03C",
"u. c #B98C42",
"i. c #9E8F65",
"p. c #84807C",
"a. c #8F8A7F",
"s. c #8D8067",
"d. c #B38E6F",
"f. c #AB837D",
"g. c #BD9E76",
"h. c #B19065",
"j. c #BCAD7E",
"k. c #B6A673",
"l. c #DA854A",
"z. c #D09355",
"x. c #E78B50",
"c. c #CFA35E",
"v. c #D9AD56",
"b. c #E8A743",
"n. c #F5BA52",
"m. c #F1B047",
"M. c #C4886D",
"N. c #DC9775",
"B. c #CF9372",
"V. c #EC966B",
"C. c #E69B73",
"Z. c #E4896F",
"A. c #DDAF64",
"S. c #D5A176",
"D. c #FDD547",
"F. c #F8CB55",
"G. c #FDD95A",
"H. c #F4CE73",
"J. c #FEE37C",
"K. c #FDE172",
"L. c #848484",
"P. c #8C8C8C",
"I. c #888786",
"U. c #928A87",
"Y. c #91908E",
"T. c #939392",
"R. c #9C9C9C",
"E. c #9B9794",
"W. c #B68D88",
"Q. c #A39588",
"!. c #A39D94",
"~. c #A29D9C",
"^. c #AB9895",
"/. c #B28F8A",
"(. c #A8A29B",
"). c #B5A59A",
"_. c #A3A3A2",
"`. c #ABAAAA",
"'. c #A9A6A5",
"]. c #B2ADAC",
"[. c #B7A5A3",
"{. c #B1B0AE",
"}. c #B3B3B4",
"|. c #BCBCBB",
" X c #BDB7B5",
".X c #C79987",
"XX c #C69B94",
"oX c #D1948D",
"OX c #C9A485",
"+X c #D4AC82",
"@X c #C3A49B",
"#X c #D8A699",
"$X c #C8B699",
"%X c #D2BF91",
"&X c #EFA683",
"*X c #C7B8A6",
"=X c #C4BCBA",
"-X c #D2B3A8",
";X c #EDBFA3",
":X c #F0BCA1",
">X c #E0ADA7",
",X c #D4C48B",
"<X c #ECDA97",
"1X c #F3D992",
"2X c #FDE583",
"3X c #FCE68B",
"4X c #F8E698",
"5X c #C5C2BC",
"6X c #CCC1BF",
"7X c #E6C6BF",
"8X c #F6E8A8",
"9X c #C4C4C4",
"0X c #CBC5C4",
"qX c #CDCAC1",
"wX c #CCCCCC",
"eX c #D7CAC7",
"rX c #D3D3D3",
"tX c #DADAD9",
"yX c #D8D0CA",
"uX c #E6D9D5",
"iX c #E1DACD",
"pX c #EBE8E6",
"aX c #489848",
/* pixels */
"aXaXaXaXaXaXaXaXaXaXaXaXaXaXaXaXaXaXaXaXaXaXaXaXaXaXaXaXaXaXaXaXaXaXaXaXaXaXaXaXaXaXaXaXaXaXaXaXaXaX",
"aXaXaXaXaXaXaXaXaXaXaXaXaXaXaXaXaXaXaXaXaXaXaXaXaXaXaXaXaXaXaXaXaXaXaXaXaXaXaXaXaXaXaXaXaXaXaXaXaXaX",
"aXaXaXaXaXaXaXaXaXaXaXaXaXaXaXaXaXaXaXaXaXaXaXaXaX8.aXaXaXaXaXaXaXaXaXaXaXaXaXaXaXaXaXaXaXaXaXaXaXaX",
"aXaXaXaXaXaXaXaXaXaXaXaXaXaXaXaXaXaXaXaXaXaXaXaXaXaXaXaXaXaXaXaXaXaXaXaXaXaXaXaXaXaXaXaXaXaXaXaXaXaX",
"aXaXaXaXaXaXaXaXaXaXaXaXaXaXaXaXaXaXaXaXaXaXaXaXaXaXaXaXaXaXaXaXaXaXaXaXaXaXaXaXaXaXaXaXaXaXaXaXaXaX",
"aXaXaXaXaXaXaXaXaXaXaXaXaXaXaXaXaXaXaXaXaXaXaXaX6.aXaX}.aXaXaXaXaXaXaXaXaXaXaXaXaXaXaXaXaXaXaXaXaXaX",
"aXaXaXaXaXaXaXaXaXaXaXaXaXaXaXaXaXaXaXaXaXaXaXaXA.aXaX|.aXN.aXaXaXaXaXaXaXaXaXaXaXaXaXaXaXaXaXaXaXaX",
"aXaXaXaXaXaXaXaXaXaXaXaXaXaXaXaXaXaXaXaXaXaXaXaXaXaXaX|.aXaXaXuXaXaXaXaXN.aXS.aXaXaXaXaXaXaXaXaXaXaX",
"aXaXaXaXaXaXaXaXaXaXaXV.aXaXaXaXaX=XaXaXaX+ _.# ; aXaX=X' aXaXT.aXaXaXaXaXaXaXaXaXaXaXaXaXaXaXaXaXaX",
"aXaXaXaXaXaXaXaXaXaXaXaXaXaXaXaXaXaXH.aX= ; _.~ ^ 1 aX)...= (.    @XaXaXaXaXaXaXaXaXaXaXaXaXaXaXaXaX",
"aXaXaXaXaXaXaXaXaXaXaXaXaXaXaXaX@ % ~.U.Q.~.) }.).U.~ (.4.: R.; | 3.. aXaXaXaXaXaXaXaXaXaXaXaXaXaXaX",
"aXaXaXaXaXaXaXaXaXaXaXaXaX,Xs.$ ~ P._.}.|.`.F 0X5XQ.F '.T.{.^ !.*Xu.t aXaXaXaXaXaXaXaXaXaXaXaXaXaXaX",
"aXaXaXaXaXaXaXaXaXaXaX&XaX<.z.p.P.Y.[.|.`.}.D F wXk 8 0XrX-XA.E.9XL.1 aXaX`.aXaXaXaXaXaXaXaXaXaXaXaX",
"aXaXaXaXaXl.b.aXaXaXaXaXaX^ 1 |.< I.f.) |.pXv 0 j c M rXuX>X} e `.I.; aX|.aXaXaXaXaXaXaXaXaXaXaXaXaX",
"aXaXaXaXaXaXaXaXaXaXaXaXM.P Q ; |.OXY 5 K I v v v @.=.Y 4 u x k 0X`.I.`.aXn.aXaXaXaXaXaXaXaXaXaXaXaX",
"aXaXaXaXaXaXaXaXaXaXp.- !.*.3.u H K x x d ;.>.;.B v z x i B @.a yX9X{.L.aXaXaXaXaXaXaXaXaXaXaXaXaXaX",
"aXaXaXaXaXaXaXaXaX|.< 1 _.~.i.d X.v X.v N %.=.;.$.v X.v $.-.,.x f k e ~.{ aXaXaXaXaXaXaXaXaXaXaXaXaX",
"aXaXaXaXaXaXaXaXaXo ; rX[.< ].i N -.@.o.X.Z l ..7.@.$.o. .w.$.B x 5 eX|.T.}.}.1 aXaXaXaXaXaXaXaXaXaX",
"aXaXaXaXaXaXaXB.aX+ r ).eXe .XG o.,.,.m -.;.F.5.J.,.$.1. .w.-.f x 5 uXtXrX/ f.< @ aXaXaXv.A aXaXaXaX",
"aXaXaXaXaXaXaXaX XI.Y.$Xi.p 5 C #.-.w...r.e.2XaX3X3XK.<Xe.e. .a 0 o.N S f w Q E @ aXaXaXaXaXaXaXaXaX",
"aXaXaXaXaXaXaXaXaX; ).9X_.x.b j m o.o.G.2XaXaXaXaXaXaXaX3Xe.%.l i N v d 6 j., P.; + aX9.aXaXaXaXaXaX",
"aXaXaXaXaXaXaXaXaX1 ^.8 5 5 v v v o.B K.aXaXaXaXaXaXaXaXaXF.:...M $.@.c D OX(.R.L.O aXaXaXaXaXaXaXaX",
"aXaXaXaXaXaXaXaXaXB.[.> v v B -.-.o.,.J.,XaXaXaXaXaXaXaXaX3X2XK.,.X.X.V 9 4 5 _ 1 o aXaXaXaXaXaXaXaX",
"aXaXaXaXaXaXaXz.aXY.}.<  XB B w.:.#.t.<XaXaXaXaXaXaXaXaXaXaX3X7.@.$.:.M G .XE.v.L _ aXaXaXaXaXaXaXaX",
"aXaXaXaXaXaXaXaX5X(.].~.] g -.=. .z Y <XaXaXaXaXaXaXaXaXaXaX2Xy.0.6.x h :XtX6XA.+X0XaX:XaXaXaXaXaXaX",
"aXaXaXaXaXaXaXaXaXI.W.8 8 v B @.M m.aXaXaXaXaXaXaXaXaXaXaXaXaX8XF.X.0 3 4 ] U.Y.I.aXaXaXaXaXaXaXaXaX",
"aXaXaXaXaXaXaXaXaXL.}.#Xv v B $.,.w.D.<XaXaXaXaXaXaXaXaXaXaXaX,XJ.0.$.o.S -XT._.I.+ aXaXaXaXaXaXaXaX",
"aXaXaXaXaXaXaX1XaX9XwX#Xh X.$.w.m r.3XaXaXaXaXaXaXaXaXaXaXaXaXaXy.:.$.$.&.8.h.`.1 O aXaXaXaXaXaXaXaX",
"aXaXaXV.aXaXaX6.H.Q.f.g -.>.w.w.#.C r.2X3XaXaXaXaXaXaXaXaXaX3XG.1.B f 3 #X5X5X(.< X aXaXaXaXaXaXaXaX",
"aXaXaXaXaXaXaXaXaX$XZ S N $.,.w.w.w.D.J.3XaXaXaXaXaXaXaXaX3X3XD.>.$.B b 9 [ XX5X}.< aXaXaXaXaXaXaXaX",
"aXaXaXaXaXaXaXaXaX{.S.K 0 l v @.@.-. .U T 3XaXaXaXaXaX3XaXA w.,.X.o.=.M =X X].a.+ aXaXaXaXaXaXaXaXaX",
"aXaXaXaXaXaXaXaX6X<.wXtXY.#Xd v v ..*.n ..2X4X3XaX<X4XJ.,.C ..,.>.B B a 4 ~.).#.' aXaXaXaXaXaXaXaXaX",
"aXaXaXaXaXaXaXaXaXn.tXtX}.L.b 8 d -.,.>.;.6.w.7.aXy.r.e.,.M #.w.B X.x x d 4 XX*XaXaXaXC.aXaXaXaXaXaX",
"aXaXaXaXaXaXaXaXaXaX(.9XE.Y.4 H q o.B ;.o.B -.X.<.w.n =.,.O.:.>.B v j ! I.- aXaX}.aXaXaXaXaXaXaXaXaX",
"aXaXaXaXaXC.aXaXaXaXP.{.{.W : L.'.N v X.v X.B b $.-.,.w.$.v v 0 k k x w | p.aXaXaXaXaXaXaXaXaXaXaXaX",
"aXaXaXaXaXaXaXaXaXaXI.R.}.< - : ! h 5 v B :.B 3 V $.-.w.B N x 5  X'.( 7 & ' aXaXaXm.aXaXb.C aXaXaXaX",
"aXaXaXaXaXaXaXaXaXaX= 2 k.).W : p 3 E c a n I 3 7X$.o.@.c 8 f 5 ~.1 < # XXaXaXaXaXaXaXaXaXaXaXaXaXaX",
"aXaXaXaXaXaXaXaXaXaXaX# 1 R.P.L.r - > q 4 }  X` 0X8.3 c u W.E.( ) ^ > aXaXaXaXaXaXaXaXaXaXaXaXaXaXaX",
"aXaXaXaXaXaXaXaXaXaXaXaX@ < R.`.@ | P.H W./ P.-X_.0X@X4 J Y.1 Y._.I./ aXaXaXx.aXaXaXaXaXaXaXaXaXaXaX",
"aXaXaXaXaXaXaXaXaXaXaXaXaXaXaXaXR % = R T.k._.wXc._.B.d./.|._.P.^ Y.aXaXaXaXaXaXaXaXaXaXaXaXaXaXaXaX",
"aXaXaXaXaXaXaXaXaXaXaXaXaXaXn.aXaX= o 1 * 2.< rXaX`._.g.E.E.< @ . aXaXaXaXaXaXaXaXaXaXaXaXaXaXaXaXaX",
"aXaXaXaXaXaXaXaXaXaXaXaXaXaXaXaXaXaXaXR.y l.aXaXaXaXI.1 q.3.t = aXaX XaXaXaXOXaXaXaXaXaXaXaXaXaXaXaX",
"aXaXaXaXaXaXaXaXaXaXaXaXaXaXaXaXm.aXaXaXaXaXaXaXaXaXaXaXaX%XaXaXaXaXaXaXaXaXaXaXaXaXaXaXaXaXaXaXaXaX",
"aXaXaXaXaXaXaXaXaXaXaXaXaXaXaXaXaXaXaXaXaXaXaXaXaXaXaXaXaXaXaXaXaXaXaXaXaXaXaXaXaXaXaXaXaXaXaXaXaXaX",
"aXaXaXaXaXaXaXaXaXaXaXaXaXZ.aXaXaXaXaXaXaXaXaXaXaXaXaXaXaXaXaXaXaXaXaXaXaXaXaXaXaXaXaXaXaXaXaXaXaXaX",
"aXaXaXaXaXaXaXaXaXaXaXaXaXaXaXA.aXaXaXaXaXaXaXaXaXaXaXaXaXaXaXaXaXaXaXaXaXaXaXaXaXaXaXaXaXaXaXaXaXaX",
"aXaXaXaXaXaXaXaXaXaXaXaXaXaXaXU aXaXaXaXaXaXaXaXaXaXaXaXaXaXaXaXaXaXaXaXaXaXaXaXaXaXaXaXaXaXaXaXaXaX",
"aXaXaXaXaXaXaXaXaXaXaXaXaXaXaXaXaXaXaXaXaXaXaXaXaXaXaXaXaXaXaXaXaXaXaXaXaXaXaXaXaXaXaXaXaXaXaXaXaXaX",
"aXaXaXaXaXaXaXaXaXaXaXaXaXaXaXaXaXaXaXaXaXaXaXaXaXaXaXaXaXaXaXaXaXaXaXaXaXaXaXaXaXaXaXaXaXaXaXaXaXaX",
"aXaXaXaXaXaXaXaXaXaXaXaXaXaXaXaXaXaXaXaXaXaXaXaXaXaXaXaXaXaXaXaXaXaXaXaXaXaXaXaXaXaXaXaXaXaXaXaXaXaX"
};
