/* XPM */
static char *zelda_dos[] = {
/* columns rows colors chars-per-pixel */
"50 50 148 2 ",
"   c #000101",
".  c #090605",
"X  c #030C04",
"o  c #090808",
"O  c #030509",
"+  c #130B09",
"@  c #1A0F0B",
"#  c #031406",
"$  c #051A06",
"%  c #0B1A07",
"&  c #031909",
"*  c #091606",
"=  c #1C1108",
"-  c #070C12",
";  c #20130A",
":  c #361E0F",
">  c #281611",
",  c #341D17",
"<  c #0A230B",
"1  c #092E0A",
"2  c #072B0C",
"3  c #122D0C",
"4  c #0A360C",
"5  c #0B3A0C",
"6  c #12300C",
"7  c #062E10",
"8  c #1A391F",
"9  c #282311",
"0  c #392B17",
"q  c #183331",
"w  c #202B38",
"e  c #492A15",
"r  c #47291B",
"t  c #532F18",
"y  c #5E351A",
"u  c #6C3D1E",
"i  c #623E1E",
"p  c #4B2920",
"a  c #522E20",
"s  c #523D21",
"d  c #0D420D",
"f  c #15420F",
"g  c #0E4C12",
"h  c #0B4412",
"j  c #144D12",
"k  c #0E5516",
"l  c #175513",
"z  c #1C5E15",
"x  c #115B18",
"c  c #0F651E",
"v  c #0F6C22",
"b  c #106A22",
"n  c #0F7124",
"m  c #107627",
"M  c #107B29",
"N  c #197B25",
"B  c #297939",
"V  c #4A4A01",
"C  c #434117",
"Z  c #5F4E22",
"A  c #584320",
"S  c #595F27",
"D  c #644B21",
"F  c #694E2A",
"G  c #624121",
"H  c #734221",
"J  c #7B4A26",
"K  c #6B5121",
"L  c #76582F",
"P  c #71552D",
"I  c #755237",
"U  c #646C37",
"Y  c #345270",
"T  c #087A73",
"R  c #5F7F43",
"E  c #656E44",
"W  c #717B4C",
"Q  c #44736B",
"!  c #8F7E11",
"~  c #89592D",
"^  c #85552B",
"/  c #936A38",
"(  c #976C49",
")  c #A47B41",
"_  c #A87E42",
"`  c #8B766F",
"'  c #168029",
"]  c #1B8429",
"[  c #248C29",
"{  c #368F23",
"}  c #3D9D27",
"|  c #3F9F28",
" . c #379123",
".. c #3FA028",
"X. c #4B9027",
"o. c #41A429",
"O. c #348F49",
"+. c #6EA453",
"@. c #808000",
"#. c #949400",
"$. c #B69E10",
"%. c #B9A010",
"&. c #97803E",
"*. c #9D883A",
"=. c #A9833E",
"-. c #B79634",
";. c #BEA02F",
":. c #BEA130",
">. c #CBB80C",
",. c #EDDB1E",
"<. c #D4EB09",
"1. c #ECE60D",
"2. c #E6F305",
"3. c #FFFF00",
"4. c #F2F903",
"5. c #F3E01F",
"6. c #8A895C",
"7. c #AE8758",
"8. c #B0AA46",
"9. c #849263",
"0. c #AE8E64",
"q. c #BC9761",
"w. c #A09077",
"e. c #BFA17C",
"r. c #DCAC52",
"t. c #CBAE4A",
"y. c #E0B14D",
"u. c #C39F6F",
"i. c #C6A67F",
"p. c #88DF77",
"a. c #3A7E90",
"s. c #058DA4",
"d. c #0590AB",
"f. c #798A9B",
"g. c #7E93A7",
"h. c #00BAFF",
"j. c #AEBBAD",
"k. c #D5B48B",
"l. c #D8B891",
"z. c #BBCABB",
"x. c #EACDA4",
"c. c #EFD3A7",
"v. c #F4D9AF",
"b. c #F7DDB4",
"n. c #FFE6BD",
"m. c #EAEAEB",
"M. c white",
"N. c #489848",
/* pixels */
"N.N.N.N.N.N.N.N.N.N.N.N.N.N.N.N.N.N.N.N.N.N.N.N.N.N.N.N.N.N.N.N.N.N.N.N.N.N.N.N.N.N.N.N.N.N.N.N.N.N.",
"N.N.N.N.N.N.N.N.N.N.N.N.N.N.N.N.N.N.N.N.N.N.N.N.N.N.N.N.N.N.N.N.N.N.N.N.N.N.N.N.N.N.N.N.N.N.N.N.N.N.",
"N.N.N.N.N.N.N.N.N.N.N.N.N.N.N.N.N.N.N.N.N.N.N.N.N.N.N.N.N.N.N.N.N.N.N.N.N.N.N.N.N.N.N.N.N.N.N.N.N.N.",
"N.N.N.N.N.N.N.N.N.N.N.N.N.N.N.N.N.N.N.N.N.N.N.N.N.N.N.N.N.N.N.N.N.N.N.N.N.N.N.N.N.N.N.N.N.N.N.N.N.N.",
"N.N.N.N.N.N.N.N.N.N.N.N.N.N.N.N.N.N.N.N.N.H H _ ) ) ) ) _ J u N.N.N.N.N.N.N.N.N.N.N.N.N.N.N.N.N.N.N.",
"N.N.N.N.N.N.N.N.N.N.N.N.N.N.N.N.N.N.N.N.N.~ ~ -.-.-.-.) ) ^ J N.N.N.N.N.N.N.N.N.N.N.N.N.N.N.N.N.N.N.",
"N.N.N.N.N.N.N.N.N.N.N.N.N.N.N.N.N.N.N.  = r.y.3.3.3.3.=.) ) _ 1.3.;.) N.N.N.N.N.N.N.N.N.N.N.N.N.N.N.",
"N.N.N.N.N.N.N.N.N.N.N.N.N.N.N.N.N.N.N.* 9 t.t.2.2.2.2.*.&.&.&.1.3.;.) N.N.N.N.N.N.N.N.N.N.N.N.N.N.N.",
"N.N.N.N.N.N.N.N.N.N.N.N.N.N.N.N.N.  < o.o.o.o.o.o.o.o.o.o.o.o.<.3.;._ ) ) N.N.N.N.N.N.N.N.N.N.N.N.N.",
"N.N.N.N.N.N.N.N.N.N.N.N.N.N.N.N.N.X 3 } } } } ..} } } ....} } <.4.;._ =.=.A N.N.N.N.N.N.N.N.N.N.N.N.",
"N.N.N.N.N.N.N.N.N.N.N.N.N.N.N.  3 o. .d d d d d d d d d d d d  ...8.r.5.3.$.H e N.N.N.N.N.N.N.N.N.N.",
"N.N.N.N.N.N.N.N.N.N.N.N.N.N.N.  3 o. .d d d g g d d d d d d d  ...8.r.,.3.$.H e N.N.N.N.N.N.N.N.N.N.",
"N.N.N.N.N.N.N.N.N.N.N.N.N.  7 M v d l o.o.o.o.o.o.o.o.o.o.o.o.l d v M 7   s ) F N.N.N.N.N.N.N.N.N.N.",
"N.N.N.N.N.N.N.N.N.N.N.N.    7 M v d l o.o.o.o.o.o.o.o.o.o.o.o.l d v M 7   s ) F N.N.N.N.N.N.N.N.N.N.",
"N.N.N.N.N.N.N.N.N.N.N.N.    $ d z } ..o...o.o.o.o.o.o.o.o.o.o...} z d $   . N.N.N.N.N.N.N.N.N.N.N.N.",
"N.N.N.N.N.N.N.N.N.N.N.N.    $ d z o.o.o.o.o.o.o.o.o.o.o.o.o.o...o.z d $     N.N.N.N.N.N.N.N.N.N.N.N.",
"N.N.N.N.N.N.N.N.F / 0.e.E 5 k m b j z o.o.o.o.o.o.o.o.o.o.o...z g c m k 5 E e.0./ F N.N.N.N.N.N.N.N.",
"N.N.N.N.N.N.N.N.L ) u.k.W 5 k M c d l o.o...o.o.o.o.o.o.o.o...z d v M k d W k.u.) L N.N.N.N.N.N.N.N.",
"N.N.N.N.N.N.e y k.x.v.b.9.d x M M n N o.o.o.o.o.o.o.o.o.o.....] n M ' k d 9.b.v.c.i.y e N.N.N.N.N.N.",
"N.N.N.N.N.N.y H k.n.n.n.9.d k M M M ] o.o.o.o.o.o.o.o.o.o.o...] M M M k d 9.n.n.n.l.H y N.N.N.N.N.N.",
"N.N.N.N.N.N.N.N.I ( 7.q.U d k M n k x ] ] o.o.o.o.o.o.o.o.[ ] c k n M k d U q.7.( I N.N.N.N.N.N.N.N.",
"N.N.N.N.N.N.N.N.t H / ) S d k M c d g M ] o.o.o.o.o.o...o.] M g d c M k d S ) / H t N.N.N.N.N.N.N.N.",
"N.N.N.N.N.N.N.N.N.N.y ^ Q d.T k d $ 7 M M [ [ o.o.o.o.[ ] M M 2 # h l T d.Q ^ i N.N.N.N.N.N.N.N.N.N.",
"N.N.N.N.N.N.N.N.N.N.e H a.h.s.d 1   $ M M M M o.o.o.o.' M M M $   2 d s.h.a.u e N.N.N.N.N.N.N.N.N.N.",
"N.N.N.N.N.N.N.N.N.N.; , R p.+.C 0   & M M M M [ [ [ [ ' M M M &   0 C +.p.X., ; N.N.N.N.N.N.N.N.N.N.",
"N.N.N.N.N.N.N.N.N.N.    @.3.>.H t   & M M M M M ' ' M M M M M &   t H >.3.!   O N.N.N.N.N.N.N.N.N.N.",
"N.N.N.N.N.N.N.N.N.N.N.  V #.! ~ A   # c c M M M M M M M M c c #   G ~ ! #.V   N.N.N.N.N.N.N.N.N.N.N.",
"N.N.N.N.N.N.N.N.N.N.N.N.    0 _ L   X d g M M M M M M M M g d X   L ) 0     N.N.N.N.N.N.N.N.N.N.N.N.",
"N.N.N.N.N.N.N.N.N.N.N.N.N.  9 P t   X 2 4 M M M M M M M M 4 2 X   s P 9   N.N.N.N.N.N.N.N.N.N.N.N.N.",
"N.N.N.N.N.N.N.N.N.N.N.N.N.N.N.  X       # M M M M M M M M X           N.N.N.N.N.N.N.N.N.N.N.N.N.N.N.",
"N.N.N.N.N.N.N.N.N.N.N.N.N.N.X & $ X X   X v v M M M M n v #   X X & & X N.N.N.N.N.N.N.N.N.N.N.N.N.N.",
"N.N.N.N.N.N.N.N.N.N.N.N.N.  7 M v d 4   X d d M M M M d d     4 h v M 7   N.N.N.N.N.N.N.N.N.N.N.N.N.",
"N.N.N.N.N.N.N.N.N.N.N.N.  . 8 O.B d 4 # & 4 4 M M M M 5 4 & # 5 h B O.8 - O N.N.N.N.N.N.N.N.N.N.N.N.",
"N.N.N.N.N.N.N.N.N.N.    > p ` M.z.d g M v   X M M M M X   v M g d z.M.g.Y w     N.N.N.N.N.N.N.N.N.N.",
"N.N.N.N.N.N.N.N.N.N.. . > r ` m.j.f l M v   X m m m m X   v M l f j.m.f.Y w .   N.N.N.N.N.N.N.N.N.N.",
"N.N.N.N.N.N.N.N.    e H H H e   = H Z M v     h d h 5     v M Z H =   e H H H e     N.N.N.N.N.N.N.N.",
"N.N.N.N.N.N.N.N.    e J J H t   ; H Z M b   X 5 d 5 d X   b M D H ;   e J J J e     N.N.N.N.N.N.N.N.",
"N.N.N.N.N.N.N.N.    w.n.x.k.6.d z o.X.H H H u         u H H H X.o.z d 6.k.x.n.w.    N.N.N.N.N.N.N.N.",
"N.N.N.N.N.N.N.N.    w.n.x.k.6.d z o.X.H H H u         G H H H X.o.z d 6.k.x.n.w.    N.N.N.N.N.N.N.N.",
"N.N.N.N.N.N.N.N.N.N.. o o . O   6 o.o.o.o.X.o...} } X...o.X.o.o.o.6   X O . . . N.N.N.N.N.N.N.N.N.N.",
"N.N.N.N.N.N.N.N.N.N.            3 o.o.o...o.o.o.o.o.o.o.o.o.o.o...3             N.N.N.N.N.N.N.N.N.N.",
"N.N.N.N.N.N.N.N.N.N.N.N.    + r , o < ' ] o.o.o.o.o.o.o.o.] M < X , r @     N.N.N.N.N.N.N.N.N.N.N.N.",
"N.N.N.N.N.N.N.N.N.N.N.N.    @ p ,   & M ] ....o.o.o.o.o.o.' M &   , p @     N.N.N.N.N.N.N.N.N.N.N.N.",
"N.N.N.N.N.N.N.N.N.N.N.N.N.N.N.o @ 0 r D D K D < % % % D K D D r 0 = o N.N.N.N.N.N.N.N.N.N.N.N.N.N.N.",
"N.N.N.N.N.N.N.N.N.N.N.N.N.N.N.  + p a H H H u   X     u H H H t p @   N.N.N.N.N.N.N.N.N.N.N.N.N.N.N.",
"N.N.N.N.N.N.N.N.N.N.N.N.N.N.N.N.N.+ + = = = @ N.N.N.N.@ @ = @ + + N.N.N.N.N.N.N.N.N.N.N.N.N.N.N.N.N.",
"N.N.N.N.N.N.N.N.N.N.N.N.N.N.N.N.N.            N.N.N.N.            N.N.N.N.N.N.N.N.N.N.N.N.N.N.N.N.N.",
"N.N.N.N.N.N.N.N.N.N.N.N.N.N.N.N.N.N.N.N.N.N.N.N.N.N.N.N.N.N.N.N.N.N.N.N.N.N.N.N.N.N.N.N.N.N.N.N.N.N.",
"N.N.N.N.N.N.N.N.N.N.N.N.N.N.N.N.N.N.N.N.N.N.N.N.N.N.N.N.N.N.N.N.N.N.N.N.N.N.N.N.N.N.N.N.N.N.N.N.N.N.",
"N.N.N.N.N.N.N.N.N.N.N.N.N.N.N.N.N.N.N.N.N.N.N.N.N.N.N.N.N.N.N.N.N.N.N.N.N.N.N.N.N.N.N.N.N.N.N.N.N.N."
};
