/* XPM */
static char *zelda_left[] = {
/* columns rows colors chars-per-pixel */
"50 50 187 2 ",
"   c #000101",
".  c #090605",
"X  c #030B03",
"o  c #0E0805",
"O  c #0E0D0C",
"+  c #120A07",
"@  c #031206",
"#  c #051905",
"$  c #041A09",
"%  c #0C1F09",
"&  c #17140D",
"*  c #0F0F10",
"=  c #181410",
"-  c #20120A",
";  c #2D190D",
":  c #22190E",
">  c #371F10",
",  c #072307",
"<  c #082D09",
"1  c #07260B",
"2  c #122D0C",
"3  c #0A340B",
"4  c #0B390D",
"5  c #062E10",
"6  c #0A3D15",
"7  c #093110",
"8  c #173A0F",
"9  c #212100",
"0  c #2D251A",
"q  c #362814",
"w  c #3C3427",
"e  c #322D26",
"r  c #44261D",
"t  c #48281F",
"y  c #472814",
"u  c #542F18",
"i  c #41321E",
"p  c #56321A",
"a  c #6A3C1E",
"s  c #65391C",
"d  c #4B2A20",
"f  c #433624",
"g  c #583F21",
"h  c #6C3D20",
"j  c #0D420D",
"k  c #12460F",
"l  c #094416",
"z  c #0D4A12",
"x  c #0A4C1A",
"c  c #0E5315",
"v  c #0D5B1B",
"b  c #0B521B",
"n  c #165312",
"m  c #114F19",
"M  c #255E17",
"N  c #0F661F",
"B  c #1F6316",
"V  c #1C5822",
"C  c #265E22",
"Z  c #0F6B22",
"A  c #0D6522",
"S  c #1A6625",
"D  c #0F7326",
"F  c #107325",
"G  c #107B29",
"H  c #167A29",
"J  c #2B6B27",
"K  c #206527",
"L  c #307527",
"P  c #5E5E01",
"I  c #4F4915",
"U  c #7B4C1E",
"Y  c #71401F",
"T  c #645E09",
"R  c #46640C",
"E  c #5C4624",
"W  c #4F5623",
"Q  c #524536",
"!  c #544A37",
"~  c #664B26",
"^  c #734120",
"/  c #7B4B29",
"(  c #794826",
")  c #6B5324",
"_  c #74592C",
"`  c #526C3C",
"'  c #7D6820",
"]  c #00374C",
"[  c #5F5449",
"{  c #6A5A46",
"}  c #695946",
"|  c #5E7040",
" . c #835729",
".. c #8B5E30",
"X. c #836D25",
"o. c #8B6438",
"O. c #9C723C",
"+. c #9C793A",
"@. c #966A47",
"#. c #9F7E40",
"$. c #A47B41",
"%. c #1C8529",
"&. c #168029",
"*. c #248C29",
"=. c #2C8522",
"-. c #358B23",
";. c #2B9229",
":. c #399324",
">. c #3E9D27",
",. c #379B29",
"<. c #3CA029",
"1. c #41A429",
"2. c #61B322",
"3. c #74A536",
"4. c #519F63",
"5. c #AA9712",
"6. c #94BC13",
"7. c #AFAA09",
"8. c #A9823D",
"9. c #AE893C",
"0. c #BA9A37",
"q. c #B6843F",
"w. c #C6B30E",
"e. c #CBB422",
"r. c #D2BD21",
"t. c #C9A735",
"y. c #E4BE3F",
"u. c #BDDB0B",
"i. c #DCCD17",
"p. c #E4D917",
"a. c #F4EF08",
"s. c #FAF704",
"d. c #FFFE00",
"f. c #F8F309",
"g. c #F5E51A",
"h. c #EAEB0A",
"j. c #D6C122",
"k. c #E9C837",
"l. c #EAD02A",
"z. c #908358",
"x. c #AE8444",
"c. c #AC844D",
"v. c #BA8D47",
"b. c #B28742",
"n. c #B7915A",
"m. c #B08A52",
"M. c #A7996F",
"N. c #CC9C4B",
"B. c #C2934A",
"V. c #CBA04D",
"C. c #DDAB52",
"Z. c #D5AC50",
"A. c #D4A24D",
"S. c #C19D68",
"D. c #C8A87D",
"F. c #DABD7A",
"G. c #DDC271",
"H. c #31529C",
"J. c #365193",
"K. c #6A7DAD",
"L. c #6B83B8",
"P. c #00AFF0",
"I. c #00BAFF",
"U. c #34B9E3",
"Y. c #37C4F1",
"T. c #988F91",
"R. c #948C8D",
"E. c #B19F8F",
"W. c #C9AB83",
"Q. c #D5B48B",
"!. c #C7B4A0",
"~. c #E1C399",
"^. c #EDD2AA",
"/. c #E8D8AC",
"(. c #F4D9AE",
"). c #EDDCB1",
"_. c #F5DBB3",
"`. c #F9DFB6",
"'. c #FFE9A6",
"]. c #FFE6BD",
"[. c #FAE0B7",
"{. c #DDD7D5",
"}. c #FFEBCA",
"|. c #EDEBE7",
" X c #FFFAF2",
".X c white",
"XX c #489848",
/* pixels */
"XXXXXXXXXXXXXXXXXXXXXXXXXXXXXXXXXXXXXXXXXXXXXXXXXXXXXXXXXXXXXXXXXXXXXXXXXXXXXXXXXXXXXXXXXXXXXXXXXXXX",
"XXXXXXXXXXXXXXXXXXXXXXXXXXXXXXXXXXXXXXXXXXXXXXXXXXXXXXXXXXXXXXXXXXXXXXXXXXXXXXXXXXXXXXXXXXXXXXXXXXXX",
"XXXXXXXXXXXXXXXXXXXXXXXXXXXXXXXXXXE E y q z l , , M M M M M M m x XXXXXXXXXXXXXXXXXXXXXXXXXXXXXXXXXX",
"XXXXXXXXXXXXXXXXXXXXXXXXXXXXXXXXXX$.O.h ~ G G j j 1.1.1.1.1.1.%.G XXXXXXXXXXXXXXXXXXXXXXXXXXXXXXXXXX",
"XXXXXXXXXXXXXXXXXXXXXXXXXXXXXXXXX.e.e.5.5.*.*.j 4 1.1.1.1.1.1.;.;.m XXXXXXXXXXXXXXXXXXXXXXXXXXXXXXXX",
"XXXXXXXXXXXXXXXXXXXXXXXXXX$.v.C.k.d.d.d.h.1.<.j j 1.1.1.1.1.1.1.1.%.G G G 6 XXXXXXXXXXXXXXXXXXXXXXXX",
"XXXXXXXXXXXXXXXXXXXXXXXXX.t.t.N.A.p.p.g.p.3.3.B B =.=.1.1.1.1.1.1.;.*.&.G x XXXXXXXXXXXXXXXXXXXXXXXX",
"XXXXXXXXXXXXXXXXXXXX~ +.r.d.i.$.#.$.8.C.C.C.Z.1.1.k j >.1.1.1.1.1.1.<.*.G v j < XXXXXXXXXXXXXXXXXXXX",
"XXXXXXXXXXXXXXXXXXXXX.0.r.p.r.q.x.$.b.k.y.N.V.1.1.j j >.1.1.1.1.1.<.,.%.G N c 3 XXXXXXXXXXXXXXXXXXXX",
"XXXXXXXXXXXXXXXX_ $.i.d.r.$.B.C.N.$.0.d.a.$.#.1.1.j j <.1.1.1.1.<.%.G G G G G N j 3 XXXXXXXXXXXXXXXX",
"XXXXXXXXXXXXXXXX_ O.i.d.j.v.v.N.v.c.v.d.a.$.#.2.2.n n -.:.:.:.:.,.&.G G G G G N j < XXXXXXXXXXXXXXXX",
"XXXXXXXXXXXXXXXXu Y w.d.l.C.$.h @.Q.G.d.a.$.8.d.d.1.1.k j j j j j N G G G G &.N j < XXXXXXXXXXXXXXXX",
"XXXXXXXXXXXXXXXXy a w.f.l.A.x. .@.Q.F.a.h.$.$.d.d.<.<.k j z k z j Z G G G G G N z 4 XXXXXXXXXXXXXXXX",
"XXXXXXXXXXXXXXXXXXXX~ $...h @.Q.Q.Q.D.+.$.$.8.d.d.&.G k j F G G G G G G G G G G G N j 4 XXXXXXXXXXXX",
"XXXXXXXXXXXXXXXXXXXX~ O. .h @.Q.Q.Q.D.x.$.8.9.d.s.G H k j F G G G G G D G G &.G &.N j 3 XXXXXXXXXXXX",
"XXXXXXXXXXXXXXXXXXXXXXXXXX  Q Q.~.]._.Q.F.d.s.$.$.$.#.H G z j Z G c j j j N G G G N 4 4 XXXXXXXXXXXX",
"XXXXXXXXXXXXXXXXXXXXXXXX    Q Q.~.]._.Q.F.d.s.$.$.$.$.H H z j Z G c j j j N G G G Z j 3 XXXXXXXXXXXX",
"XXXXXXXXXXXXXXXXXXXXXXXXXX  ; ^ p . w ].'.d.s.$.$.^ h k k F G z j j j $   , j v G v     XXXXXXXXXXXX",
"XXXXXXXXXXXXXXXXXXXXXXXX    ; ^ u   e ].'.d.s.$.$.Y ^ j j G G z j j j #   , j c G v     XXXXXXXXXXXX",
"XXXXXXXXXXXXXXXXXXXX    } W.R.J.K.|.|.].(.8.9.C.C.Y ^ D.W./.).)./.` j #   , j j j 3     XXXXXXXXXXXX",
"XXXXXXXXXXXXXXXXXXXX    { Q.T.H.L..X X].(.$.$.C.C.^ ^ W.Q.[.].].].` j $   , j j j <     XXXXXXXXXXXX",
"XXXXXXXXXXXXXXXXXXXX    { Q.T.H.L..X X].^.(  .f.f.o o ^.[.].].S.m.q X XXXX  X 7 D b     XXXXXXXXXXXX",
"XXXXXXXXXXXXXXXXXXXX    { Q.T.H.L..X X].^.Y U d.d.    _.].].].n.$.0   XXXX    7 G v     XXXXXXXXXXXX",
"XXXXXXXXXXXXXXXXXXXXXXXX* 0 [ E.!.}.}.].^.Y U d.d.    U.Y.M.n.i : .   XXXX    $ z 6     XXXXXXXXXXXX",
"XXXXXXXXXXXXXXXXXXXXXXXXXX  Q Q.~.}.].].^.^ U d.d.    P.I.z.$.=       XXXXXX  # j 3     XXXXXXXXXXXX",
"XXXXXXXXXXXXXXXXXXXXXXXXXXXX= f { ~.~.~.Q.^ U d.d.    ] ] 0 q o.+.7.7.XXXXXXXXX @ X XXXXXXXXXXXXXXXX",
"XXXXXXXXXXXXXXXXXXXXXXXXXXXXXX  w Q.Q.Q.D.^ U d.d.            b.C.g.d.XXXXXXXXXX    XXXXXXXXXXXXXXXX",
"XXXXXXXXXXXXXXXXXXXXXXXXXXXXXXXX= ! ! | ` ; q l.l.    l x < 1 I E T XXXXXXXXXXXXXXXXXXXXXXXXXXXXXXXX",
"XXXXXXXXXXXXXXXXXXXXXXXXXXXXXXXXXX  X k 4   o C.C.    D G z j X   XXXXXXXXXXXXXXXXXXXXXXXXXXXXXXXXXX",
"XXXXXXXXXXXXXXXXXXXXXXXXXXXXXXXXX 6 l v v 6 6 _ _ > > 6 6 v v @   XXXXXXXXXXXXXXXXXXXXXXXXXXXXXXXXXX",
"XXXXXXXXXXXXXXXXXXXXXXXXXXXXXX  1 G G G G G D     Y Y .   Z G $   XXXXXXXXXXXXXXXXXXXXXXXXXXXXXXXXXX",
"XXXXXXXXXXXXXXXXXXXXXXXXXXXX9 P R G G G D x x 5 5 W W .   Z G $   XXXXXXXXXXXXXXXXXXXXXXXXXXXXXXXXXX",
"XXXXXXXXXXXXXXXXXXXXXXXX    P d.u.G G G Z   X G G G G X   Z G $   XXXXXXXXXXXXXXXXXXXXXXXXXXXXXXXXXX",
"XXXXXXXXXXXXXXXXXXXXXXXX    R u.6.J J J C   X 4.4.4.4.X   V S = + XXXXXXXXXXXXXXXXXXXXXXXXXXXXXXXXXX",
"XXXXXXXXXXXXXXXXXXXXXXXXXX  1 G J Y ^ h s   * .X.X.X.XO   d d t d +   XXXXXXXXXXXXXXXXXXXXXXXXXXXXXX",
"XXXXXXXXXXXXXXXXXXXXXXXX    3 H L ) ) ) E   * {.{.{.{.O   q d w f *   XXXXXXXXXXXXXXXXXXXXXXXXXXXXXX",
"XXXXXXXXXXXXXXXXXXXXXXXX    8 1.1.1.1.1.:.  . t d d t .   r d S G 1   XXXXXXXXXXXXXXXXXXXXXXXXXXXXXX",
"XXXXXXXXXXXXXXXXXXXXXXXXXX  8 :.>.1.1.>.-.    t d d t .   i p S Z 1   XXXXXXXXXXXXXXXXXXXXXXXXXXXXXX",
"XXXXXXXXXXXXXXXXXXXXXXXXXXXXXX  2 1.,.G Z   . Y h h h     -.1.%   XXXXXXXXXXXXXXXXXXXXXXXXXXXXXXXXXX",
"XXXXXXXXXXXXXXXXXXXXXXXXXXXXXX  1 >.,.D A   . (  .(  ..   -.>.%   XXXXXXXXXXXXXXXXXXXXXXXXXXXXXXXXXX",
"XXXXXXXXXXXXXXXXXXXXXXXXXXXXXXXXXX          O ].].Q.Q.o       XXXXXXXXXXXXXXXXXXXXXXXXXXXXXXXXXXXXXX",
"XXXXXXXXXXXXXXXXXXXXXXXXXXXXXXXXXX          O ].].Q.Q.O       XXXXXXXXXXXXXXXXXXXXXXXXXXXXXXXXXXXXXX",
"XXXXXXXXXXXXXXXXXXXXXXXXXXXXXX  - h a t t t r . .         XXXXXXXXXXXXXXXXXXXXXXXXXXXXXXXXXXXXXXXXXX",
"XXXXXXXXXXXXXXXXXXXXXXXXXXXXXX  - ^ h d t t t             XXXXXXXXXXXXXXXXXXXXXXXXXXXXXXXXXXXXXXXXXX",
"XXXXXXXXXXXXXXXXXXXXXXXXXXXXXX  - ^ ^ h h d r         XXXXXXXXXXXXXXXXXXXXXXXXXXXXXXXXXXXXXXXXXXXXXX",
"XXXXXXXXXXXXXXXXXXXXXXXXXXXXXX  - ^ ^ ^ h d r         XXXXXXXXXXXXXXXXXXXXXXXXXXXXXXXXXXXXXXXXXXXXXX",
"XXXXXXXXXXXXXXXXXXXXXXXXXXXXXXXXXXo o o o . . XXXXXXXXXXXXXXXXXXXXXXXXXXXXXXXXXXXXXXXXXXXXXXXXXXXXXX",
"XXXXXXXXXXXXXXXXXXXXXXXXXXXXXXXXXX            XXXXXXXXXXXXXXXXXXXXXXXXXXXXXXXXXXXXXXXXXXXXXXXXXXXXXX",
"XXXXXXXXXXXXXXXXXXXXXXXXXXXXXXXXXXXXXXXXXXXXXXXXXXXXXXXXXXXXXXXXXXXXXXXXXXXXXXXXXXXXXXXXXXXXXXXXXXXX",
"XXXXXXXXXXXXXXXXXXXXXXXXXXXXXXXXXXXXXXXXXXXXXXXXXXXXXXXXXXXXXXXXXXXXXXXXXXXXXXXXXXXXXXXXXXXXXXXXXXXX"
};
