/* XPM */
static char *zelda_face[] = {
/* columns rows colors chars-per-pixel */
"50 50 149 2 ",
"   c #010101",
".  c #090505",
"X  c #030A03",
"o  c #0E0C04",
"O  c #0C0B0A",
"+  c #1A0F08",
"@  c #130B08",
"#  c #031005",
"$  c #101001",
"%  c #19110F",
"&  c #1E1510",
"*  c #27180C",
"=  c #062B0F",
"-  c #0D380C",
";  c #073412",
":  c #073813",
">  c #0B3112",
",  c #3E2E1C",
"<  c #49291F",
"1  c #402F1C",
"2  c #522D16",
"3  c #5A331A",
"4  c #5F391F",
"5  c #693B1D",
"6  c #663A1C",
"7  c #703F1F",
"8  c #4C2A20",
"9  c #502C20",
"0  c #4C3523",
"q  c #5D3921",
"w  c #0E430D",
"e  c #11420E",
"r  c #0E4C12",
"t  c #0F6B23",
"y  c #107B29",
"u  c #1A7E2E",
"i  c #316826",
"p  c #396B29",
"a  c #227127",
"s  c #79491E",
"d  c #5F4D22",
"f  c #614D23",
"g  c #734120",
"h  c #7B4B2B",
"j  c #794724",
"k  c #6C5221",
"l  c #684835",
"z  c #7A5B31",
"x  c #3C4F66",
"c  c #315272",
"v  c #424141",
"b  c #654841",
"n  c #4C6176",
"m  c #9C7818",
"M  c #82522A",
"N  c #885A2A",
"B  c #895B39",
"V  c #885A37",
"C  c #946937",
"Z  c #936938",
"A  c #996E3A",
"S  c #9C733E",
"D  c #9A7035",
"F  c #A67E3F",
"G  c #8E664B",
"H  c #956A4A",
"J  c #946845",
"K  c #9D734F",
"L  c #946E55",
"P  c #887258",
"I  c #9C7354",
"U  c #A57C41",
"Y  c #178129",
"T  c #198129",
"R  c #238B29",
"E  c #388D23",
"W  c #3B9322",
"Q  c #3A9E29",
"!  c #669632",
"~  c #41A429",
"^  c #77AA4B",
"/  c #A9823F",
"(  c #A6803D",
")  c #BEA12E",
"_  c #BEA030",
"`  c #C1A62C",
"'  c #C4AA2A",
"]  c #89C61A",
"[  c #DECF17",
"{  c #DFD117",
"}  c #E2D515",
"|  c #D7E907",
" . c #D8E907",
".. c #F9F602",
"X. c #FEFE00",
"o. c #F4E617",
"O. c #F6E916",
"+. c #F4E51A",
"@. c #E8C638",
"#. c #E9C837",
"$. c #A88047",
"%. c #BF8D44",
"&. c #B78B47",
"*. c #B38C56",
"=. c #B48D58",
"-. c #BA9044",
";. c #9D8567",
":. c #BD986B",
">. c #AC9271",
",. c #B69773",
"<. c #AFA978",
"1. c #C18F45",
"2. c #C39145",
"3. c #C8984A",
"4. c #CFA14C",
"5. c #D8A64F",
"6. c #DFAF4F",
"7. c #DEAC52",
"8. c #C09C67",
"9. c #E3CE5C",
"0. c #33539C",
"q. c #5F73A3",
"w. c #6376A5",
"e. c #0A84AE",
"r. c #0085B7",
"t. c #00BAFF",
"y. c #09B4F2",
"u. c #CEAC83",
"i. c #D5B48B",
"p. c #D7B785",
"a. c #DBBC93",
"s. c #D3BA96",
"d. c #E2C49C",
"f. c #E0C197",
"g. c #DCC6A3",
"h. c #E8CDA1",
"j. c #F3D8AF",
"k. c #F6DCB3",
"l. c #F9DFB5",
"z. c #FFE6BD",
"x. c #B1D3C8",
"c. c #B2D9D1",
"v. c #D5DAE0",
"b. c #DAE0E6",
"n. c #FFF9EF",
"m. c #F9F4ED",
"M. c #FFF9F0",
"N. c #FDFDFE",
"B. c #489848",
/* pixels */
"B.B.B.B.B.B.B.B.B.B.B.B.B.B.B.B.B.B.B.B.B.B.B.B.B.B.B.B.B.B.B.B.B.B.B.B.B.B.B.B.B.B.B.B.B.B.B.B.B.B.",
"B.B.B.B.B.B.B.B.B.B.B.B.B.B.B.B.B.B.B.B.B.B.B.B.B.B.B.B.B.B.B.B.B.B.B.B.B.B.B.B.B.B.B.B.B.B.B.B.B.B.",
"B.B.B.B.B.B.B.B.B.B.B.B.B.B.B.B.B.B.B.    y y y y y y y y X   B.B.B.B.B.B.B.B.B.B.B.B.B.B.B.B.B.B.B.",
"B.B.B.B.B.B.B.B.B.B.B.B.B.B.B.B.B.B.B.; : y y y y y y y y : ; B.B.B.B.B.B.B.B.B.B.B.B.B.B.B.B.B.B.B.",
"B.B.B.B.B.B.B.B.B.B.B.B.B.B.B.B.B.    y y y y y y y y y y y y     B.B.B.B.B.B.B.B.B.B.B.B.B.B.B.B.B.",
"B.B.B.B.B.B.B.B.B.B.B.B.B.B.B.B.B.; ; y y y y y y y y y y y y ; ; B.B.B.B.B.B.B.B.B.B.B.B.B.B.B.B.B.",
"B.B.B.B.B.B.B.B.B.B.B.B.B.B.B.  X y y y y y y y y y y y y y y y y     B.B.B.B.B.B.B.B.B.B.B.B.B.B.B.",
"B.B.B.B.B.B.B.B.B.B.B.B.B.B.B.= ; R R R R R R R R T R R R R R R R ; ; B.B.B.B.B.B.B.B.B.B.B.B.B.B.B.",
"B.B.B.B.B.B.B.B.B.B.B.B.B.  X y y ~ ~ ~ ~ ~ ~ ~ ~ ~ ~ ~ ~ ~ ~ ~ ~ u y     B.B.B.B.B.B.B.B.B.B.B.B.B.",
"B.B.B.B.B.B.B.B.B.B.B.B.B.  X R R ! ! ] ] ! ! ] ] ] ] ] ] ] ] ! ! R R X   B.B.B.B.B.B.B.B.B.B.B.B.B.",
"B.B.B.B.B.B.B.B.B.B.B.B.B.  . ~ ~ U U X.X.U F X.X.X.X.X.X.X.X./ U ~ ~ X   B.B.B.B.B.B.B.B.B.B.B.B.B.",
"B.B.B.B.B.B.B.B.B.B.B.B.B.= > ! ! ' ' [ [ ' ' X.X.} { X.X.} { ' ' ^ ^ > = B.B.B.B.B.B.B.B.B.B.B.B.B.",
"B.B.B.B.B.B.B.B.B.B.B.  X y y U / X.X.U U X.X.X.X.U U X.X.F U X.X.p.i.u y X   B.B.B.B.B.B.B.B.B.B.B.",
"B.B.B.B.B.B.B.B.B.B.B.* * i p &.%.X.X.` ` +.+.X.X.U U X.X.F U [ } 9.9.p i * * B.B.B.B.B.B.B.B.B.B.B.",
"B.B.B.B.B.B.B.U $.i.u.g g g j 7.6.X.X.X.X.7.6.X.X.U U X.X.U U U U ..X.s g 7 s u.p.$.U B.B.B.B.B.B.B.",
"B.B.B.B.B.B.B.C S d.a.I K M N @.#.X.X.+.+.@.#.} } ) ` } } =.*.U U X.X.N M K I f.d.J Z B.B.B.B.B.B.B.",
"B.B.B.B.B.B.B.g h z.z.z.l.U / X.X.X.X.7.6.X.X.U U X.X.F U i.i.U U X.X./ F l.z.z.z.h j B.B.B.B.B.B.B.",
"B.B.B.B.B.B.B.2 q i.i.c.x.C D o.+.} } 7.7.X.X.U U X.X.U U i.i.8.:.+.+.$.F x.c.i.i.q 2 B.B.B.B.B.B.B.",
"B.B.B.B.B.B.B.B.B.g l t.y.7 j 7.7.U U 7.6.X.X.U U X.X./ F i.i.z.z.7.7.$.U y.t.l g B.B.B.B.B.B.B.B.B.",
"B.B.B.B.B.B.B.B.B.2 0 r.e.m m &.%.U U 7.7.X.X.) ) o.o.U U f.f.j.j.2.%.) ) e.r.0 2 B.B.B.B.B.B.B.B.B.",
"B.B.B.B.B.B.B.B.B.B.B.  $ X...s g U $.7.6.X.X.X.X.7.7.U U z.z.i.i.j g ..X.$   B.B.B.B.B.B.B.B.B.B.B.",
"B.B.B.B.B.B.B.B.B.B.B.  $ X...M M z z 3.4.O.O.O.o.1.1.*.*.i.a.;.;.M h ..X.o   B.B.B.B.B.B.B.B.B.B.B.",
"B.B.B.B.B.B.B.B.B.B.B.  $ X...U S   . U U 7.7.7.7.g g i.i.g g     S U ..X.$   B.B.B.B.B.B.B.B.B.B.B.",
"B.B.B.B.B.B.B.B.B.B.B.  o O.o.A Z v v P P 2.2.2.2.H H :.,.b b v v Z A o.O.$   B.B.B.B.B.B.B.B.B.B.B.",
"B.B.B.B.B.B.B.B.B.B.B.  o 7.5.7 j N.N.0.0.g g g 7 z.z.j g 0.0.N.N.h g 5.7.o   B.B.B.B.B.B.B.B.B.B.B.",
"B.B.B.B.B.B.B.B.B.B.B.  . $.F 7 j m.m.0.0.L L J J z.z.L L 0.0.m.M.q 3 F / .   B.B.B.B.B.B.B.B.B.B.B.",
"B.B.B.B.B.B.B.B.B.B.B.B.B.  . s j z.z.0.0.N.N.z.z.z.z.N.N.0.0.k.z.O       B.B.B.B.B.B.B.B.B.B.B.B.B.",
"B.B.B.B.B.B.B.B.B.B.B.B.B.    3 q h.h.w.w.M.M.z.z.z.z.n.M.q.q.h.h.% @ @ + B.B.B.B.B.B.B.B.B.B.B.B.B.",
"B.B.B.B.B.B.B.B.B.B.B.B.B.B.B.  . K $.z.z.z.z.z.z.z.z.z.z.z.z.U U 8 8 7 7 .   B.B.B.B.B.B.B.B.B.B.B.",
"B.B.B.B.B.B.B.B.B.B.B.B.B.B.B.  . A S d.d.k.k.k.k.k.k.k.k.h.d.J A 8 8 g s .   B.B.B.B.B.B.B.B.B.B.B.",
"B.B.B.B.B.B.B.B.B.B.B.B.B.B.B.    g s g j i.i.i.i.i.i.i.i.j g g g 8 < 7 5 .   B.B.B.B.B.B.B.B.B.B.B.",
"B.B.B.B.B.B.B.B.B.B.B.B.B.B.B.    G G G H >.>.<.<.<.<.<.<.f f s s 1 , 3 3 .   B.B.B.B.B.B.B.B.B.B.B.",
"B.B.B.B.B.B.B.B.B.B.B.B.B.B.B.  O N.N.N.N.    y y y y y y y y g s w - X   B.B.B.B.B.B.B.B.B.B.B.B.B.",
"B.B.B.B.B.B.B.B.B.B.B.B.B.B.B.@ & b.b.b.v.    a a W W W E a a d d > -     B.B.B.B.B.B.B.B.B.B.B.B.B.",
"B.B.B.B.B.B.B.B.B.B.B.B.B.  . s g c c c c     s g X.X.X.X.s s y y X   B.B.B.B.B.B.B.B.B.B.B.B.B.B.B.",
"B.B.B.B.B.B.B.B.B.B.B.B.B.    7 g x x n n X X k k | | | | k k Y Y # X B.B.B.B.B.B.B.B.B.B.B.B.B.B.B.",
"B.B.B.B.B.B.B.B.B.B.B.B.B.    g g g g s.u.w w ~ ~ y y y y ~ ~ ~ ~ w - X   B.B.B.B.B.B.B.B.B.B.B.B.B.",
"B.B.B.B.B.B.B.B.B.B.B.B.B.  . B V B B ,.,.r r ~ ~ u Y Y Y ~ ~ Q Q - - X   B.B.B.B.B.B.B.B.B.B.B.B.B.",
"B.B.B.B.B.B.B.B.B.B.B.B.B.  O z.z.z.z.    y y ~ ~ ~ ~ ~ ~ ~ ~ y y X   B.B.B.B.B.B.B.B.B.B.B.B.B.B.B.",
"B.B.B.B.B.B.B.B.B.B.B.B.B.  O g.g.g.s.    t t E E E E E E E E t t X   B.B.B.B.B.B.B.B.B.B.B.B.B.B.B.",
"B.B.B.B.B.B.B.B.B.B.B.B.B.B.B.                                        B.B.B.B.B.B.B.B.B.B.B.B.B.B.B.",
"B.B.B.B.B.B.B.B.B.B.B.B.B.B.B.                            . .   .     B.B.B.B.B.B.B.B.B.B.B.B.B.B.B.",
"B.B.B.B.B.B.B.B.B.B.B.B.B.B.B.B.B.B.B.B.B.B.B.B.B.B.B.    < 8 8 <     B.B.B.B.B.B.B.B.B.B.B.B.B.B.B.",
"B.B.B.B.B.B.B.B.B.B.B.B.B.B.B.B.B.B.B.B.B.B.B.B.B.B.B.    < 8 9 9 . . B.B.B.B.B.B.B.B.B.B.B.B.B.B.B.",
"B.B.B.B.B.B.B.B.B.B.B.B.B.B.B.B.B.B.B.B.B.B.B.B.B.B.B.    < 8 g g 8 8 .   B.B.B.B.B.B.B.B.B.B.B.B.B.",
"B.B.B.B.B.B.B.B.B.B.B.B.B.B.B.B.B.B.B.B.B.B.B.B.B.B.B.    8 8 g g 9 <     B.B.B.B.B.B.B.B.B.B.B.B.B.",
"B.B.B.B.B.B.B.B.B.B.B.B.B.B.B.B.B.B.B.B.B.B.B.B.B.B.B.    5 7 s s 7 g .   B.B.B.B.B.B.B.B.B.B.B.B.B.",
"B.B.B.B.B.B.B.B.B.B.B.B.B.B.B.B.B.B.B.B.B.B.B.B.B.B.B.    6 6 5 6 5 6 .   B.B.B.B.B.B.B.B.B.B.B.B.B.",
"B.B.B.B.B.B.B.B.B.B.B.B.B.B.B.B.B.B.B.B.B.B.B.B.B.B.B.B.B.            B.B.B.B.B.B.B.B.B.B.B.B.B.B.B.",
"B.B.B.B.B.B.B.B.B.B.B.B.B.B.B.B.B.B.B.B.B.B.B.B.B.B.B.B.B.            B.B.B.B.B.B.B.B.B.B.B.B.B.B.B."
};
