/* XPM */
static char *zelda_right[] = {
/* columns rows colors chars-per-pixel */
"50 50 181 2 ",
"   c #000001",
".  c #020D04",
"X  c #0E0D0C",
"o  c #080707",
"O  c #140B07",
"+  c #1A0F0A",
"@  c #041205",
"#  c #081406",
"$  c #051A05",
"%  c #031A0A",
"&  c #071909",
"*  c #1B1508",
"=  c #0F0F10",
"-  c #20120A",
";  c #2D190D",
":  c #20180E",
">  c #301B0E",
",  c #072107",
"<  c #05230C",
"1  c #082D09",
"2  c #0D240A",
"3  c #09340A",
"4  c #0C3C0C",
"5  c #17370D",
"6  c #062E10",
"7  c #183D10",
"8  c #0E350E",
"9  c #2C241B",
"0  c #3B211A",
"q  c #332216",
"w  c #332D26",
"e  c #382F25",
"r  c #393229",
"t  c #46271E",
"y  c #542F18",
"u  c #553019",
"i  c #5D3818",
"p  c #4E3C1D",
"a  c #65391C",
"s  c #4A2920",
"d  c #4A3F32",
"f  c #693B20",
"g  c #0D420D",
"h  c #12450F",
"j  c #0B4313",
"k  c #0D4B12",
"l  c #124C11",
"z  c #0E5316",
"x  c #0D5B1C",
"c  c #0F641E",
"v  c #0D5F20",
"b  c #3C4225",
"n  c #0F6C23",
"m  c #0D6522",
"M  c #126B24",
"N  c #0F7225",
"B  c #107626",
"V  c #107B29",
"C  c #167928",
"Z  c #2C6B26",
"A  c #247027",
"S  c #3C6230",
"D  c #5C5C01",
"F  c #575209",
"G  c #5E491F",
"H  c #7B4C1E",
"J  c #7D661C",
"K  c #554122",
"L  c #554636",
"P  c #564C37",
"I  c #6D4424",
"U  c #694E29",
"Y  c #674821",
"T  c #734120",
"R  c #7D4C26",
"E  c #6D5528",
"W  c #76582F",
"Q  c #715335",
"!  c #51703F",
"~  c #335475",
"^  c #5F5546",
"/  c #6A5A46",
"(  c #705F4A",
")  c #454D76",
"_  c #766B67",
"`  c #8A611B",
"'  c #8B5C34",
"]  c #87592E",
"[  c #896538",
"{  c #926538",
"}  c #8F7B3E",
"|  c #946934",
" . c #A47F3D",
".. c #996D48",
"X. c #9E7D40",
"o. c #8A745A",
"O. c #A47B41",
"+. c #947D61",
"@. c #1B8429",
"#. c #1D8234",
"$. c #228A29",
"%. c #3A8E24",
"&. c #399024",
"*. c #3D9D27",
"=. c #389C29",
"-. c #3FA229",
";. c #4D9F2B",
":. c #41A429",
">. c #50A52D",
",. c #B7B309",
"<. c #AA843D",
"1. c #AB8731",
"2. c #B38B3A",
"3. c #B59335",
"4. c #CBB90C",
"5. c #C1A32E",
"6. c #D2BD20",
"7. c #E1BD3B",
"8. c #B8D70D",
"9. c #DDCD18",
"0. c #E9E90D",
"q. c #F4EE08",
"w. c #FEFF00",
"e. c #F8F605",
"r. c #F6E916",
"t. c #E8F405",
"y. c #EFD629",
"u. c #F1DD22",
"i. c #E7C33B",
"p. c #93865C",
"a. c #AF8544",
"s. c #BA8D47",
"d. c #B58A42",
"f. c #BA924E",
"g. c #9B8965",
"h. c #989164",
"j. c #A3936E",
"k. c #CD9E4D",
"l. c #DFB04F",
"z. c #DEAC52",
"x. c #D7AA50",
"c. c #D2A94F",
"v. c #C9A57D",
"b. c #CBA979",
"n. c #D6B975",
"m. c #DDC26F",
"M. c #31529C",
"N. c #00719C",
"B. c #0078A5",
"V. c #646987",
"C. c #7F8094",
"Z. c #6B83B8",
"A. c #00B4F8",
"S. c #7EC5CF",
"D. c #988F91",
"F. c #989091",
"G. c #B4B989",
"H. c #AAA9AE",
"J. c #CEAC83",
"K. c #D5B48B",
"L. c #D4B382",
"P. c #CBB78D",
"I. c #C0BBB3",
"U. c #B6C590",
"Y. c #DFC097",
"T. c #E1C39B",
"R. c #F7DF9C",
"E. c #EED2A9",
"W. c #F0D4AB",
"Q. c #F6DCAD",
"!. c #F5DBB2",
"~. c #F9DFB6",
"^. c #FFE6BD",
"/. c #FAE0B7",
"(. c #FFE9A6",
"). c #86D1DC",
"_. c #FFF1D9",
"`. c #FFFAF2",
"'. c white",
"]. c #FFF3E0",
"[. c #489848",
/* pixels */
"[.[.[.[.[.[.[.[.[.[.[.[.[.[.[.[.[.[.[.[.[.[.[.[.[.[.[.[.[.[.[.[.[.[.[.[.[.[.[.[.[.[.[.[.[.[.[.[.[.[.",
"[.[.[.[.[.[.[.[.[.[.[.[.[.[.[.[.[.[.[.[.[.[.[.[.[.[.[.[.[.[.[.[.[.[.[.[.[.[.[.[.[.[.[.[.[.[.[.[.[.[.",
"[.[.[.[.[.[.[.[.[.[.[.[.[.[.[.[.[.V @.:.:.:.:.:.:.g g V V Y T | O.[.[.[.[.[.[.[.[.[.[.[.[.[.[.[.[.[.",
"[.[.[.[.[.[.[.[.[.[.[.[.[.[.[.[.[.@.$.:.:.:.:.:.:.g g C @.J ` 2.3.[.[.[.[.[.[.[.[.[.[.[.[.[.[.[.[.[.",
"[.[.[.[.[.[.[.[.[.[.[.[.[.V V @.@.:.:.:.:.:.:.:.:.g g *.-.t.w.w.w.i.z.s.O.[.[.[.[.[.[.[.[.[.[.[.[.[.",
"[.[.[.[.[.[.[.[.[.[.[.[.j V V @.$.:.:.:.:.:.-.*.*.l k >.>.0.e.e.q.7.x.s.<.Y [.[.[.[.[.[.[.[.[.[.[.[.",
"[.[.[.[.[.[.[.[.[.[.1 g x V $.-.:.:.:.:.:.:.-.g 4 :.:.x.z.z.z.a.O.O.O.9.w.6.O.U [.[.[.[.[.[.[.[.[.[.",
"[.[.[.[.[.[.[.[.[.[.1 g c V @.=.:.:.:.:.:.:.*.g g :.:.c.z.l.l.a.O.O.O.9.w.6. .E [.[.[.[.[.[.[.[.[.[.",
"[.[.[.[.[.[.[.[.1 g c V V V V V @.:.:.-.:.:.*.g g :.-.X.O.q.w.3.O.k.z.O.O.6.w.9.O.W [.[.[.[.[.[.[.[.",
"[.[.[.[.[.[.[.[.1 g c V V V V V @.:.:.-.:.-.*.g g :.-. .X.q.w.3.O.k.z.k.O.6.w.9.O.W [.[.[.[.[.[.[.[.",
"[.[.[.[.[.[.[.[.1 g c @.V V V V N l g g h h l -.-.w.e.<.O.q.w.m.L.{ f a.z.y.e.4.T u [.[.[.[.[.[.[.[.",
"[.[.[.[.[.[.[.[.1 g m V V V V V n g g g g g h -.:.w.w.<.O.q.w.m.K...T 2.z.y.w.4.T u [.[.[.[.[.[.[.[.",
"[.[.[.[.[.[.3 4 c V V V V V V V V B B B B 4 g @.C w.w.<.O.<.<.b.K.J.J...H | <.E [.[.[.[.[.[.[.[.[.[.",
"[.[.[.[.[.[.3 g c V V V V V V V V V V V B 4 g V V w.w. .O.O.O.b.K.K.K...H ' O.U [.[.[.[.[.[.[.[.[.[.",
"[.[.[.[.[.[.3 g N V V V c j k k z V N k z B C } } 2.3.0.q.n.J.W.~.Y.K.L O O [.[.[.[.[.[.[.[.[.[.[.[.",
"[.[.[.[.[.[.3 g c @.V V x g g g z V N g k V C O.O.O.O.e.w.n.K.~.^.Y.K.L     [.[.[.[.[.[.[.[.[.[.[.[.",
"[.[.[.[.[.[.. . x V c k 1 . $ g g z z N n z l R R O.O.e.w.R.!./ r Q ' q     [.[.[.[.[.[.[.[.[.[.[.[.",
"[.[.[.[.[.[.    x V z g ,   $ g g g k V N g h T T O.O.e.w.(.^.w   u T ;     [.[.[.[.[.[.[.[.[.[.[.[.",
"[.[.[.[.[.[.    4 z k g ,   $ g S G.G.U.G.h.h.T T k.k.5.5.Q.^.H.H.V.) _ +.d   [.[.[.[.[.[.[.[.[.[.[.",
"[.[.[.[.[.[.    1 j g g ,   $ g ! ^.^.^./.K.J.T T z.z.O. .Q._.`.'.Z.M.D.K./     [.[.[.[.[.[.[.[.[.[.",
"[.[.[.[.[.[.    j m 3 % . [.. $ b b.K._./.E.T.; > u.r.' ] W.^.`.'.Z.M.D.K./     [.[.[.[.[.[.[.[.[.[.",
"[.[.[.[.[.[.    x V 6     [.[.  ;  .f.^.^./.!.    w.w.H f E.^.`.'.Z.M.D.K./     [.[.[.[.[.[.[.[.[.[.",
"[.[.[.[.[.[.    j c <     [.[.  * K Q L.P.).S.    w.w.H H E.^._.].H.V._ ( e   [.[.[.[.[.[.[.[.[.[.[.",
"[.[.[.[.[.[.    1 g $   [.[.[.      * O.p.A.A.    w.w.H a E.^.^.^.T.Y.L   [.[.[.[.[.[.[.[.[.[.[.[.[.",
"[.[.[.[.[.[.    % 1 @   [.[.[.D F p K U P B.N.    w.w.H H T.E.W.W.j.o.w   [.[.[.[.[.[.[.[.[.[.[.[.[.",
"[.[.[.[.[.[.[.[.    [.[.[.[.[.w.r.z.2.            w.w.H f v.K.K.K.r o [.[.[.[.[.[.[.[.[.[.[.[.[.[.[.",
"[.[.[.[.[.[.[.[.    [.[.[.[.[.,.,.O.[ @ # < %     r.r.i u p.j.g.g.9   [.[.[.[.[.[.[.[.[.[.[.[.[.[.[.",
"[.[.[.[.[.[.[.[.[.[.[.[.[.[.[.[.[.  . g k V B     z.z.O   4 g .   [.[.[.[.[.[.[.[.[.[.[.[.[.[.[.[.[.",
"[.[.[.[.[.[.[.[.[.[.[.[.[.[.[.[.[.  . k z m v + O s.s.& % j k < $ [.[.[.[.[.[.[.[.[.[.[.[.[.[.[.[.[.",
"[.[.[.[.[.[.[.[.[.[.[.[.[.[.[.[.[.  % V n   o f H     N V V V V V ,   [.[.[.[.[.[.[.[.[.[.[.[.[.[.[.",
"[.[.[.[.[.[.[.[.[.[.[.[.[.[.[.[.[.  % V n     Y Y . . m n V V V V 7 * [.[.[.[.[.[.[.[.[.[.[.[.[.[.[.",
"[.[.[.[.[.[.[.[.[.[.[.[.[.[.[.[.[.  % V n   . V V B V .   n V V V 8.w.D     [.[.[.[.[.[.[.[.[.[.[.[.",
"[.[.[.[.[.[.[.[.[.[.[.[.[.[.[.[.[.. % C M o   #.#.#.#.    M C C C 8.e.D     [.[.[.[.[.[.[.[.[.[.[.[.",
"[.[.[.[.[.[.[.[.[.[.[.[.[.[.[.  < V A f a   = '.'.'.'.=   a f T T Z V 6     [.[.[.[.[.[.[.[.[.[.[.[.",
"[.[.[.[.[.[.[.[.[.[.[.[.[.[.[.  < V A T a   = '.'.'.'.=   a T T T Z V 6     [.[.[.[.[.[.[.[.[.[.[.[.",
"[.[.[.[.[.[.[.[.[.[.[.[.[.[.[.  < V @.:.%.  o ~ ~ ~ ~ o   %.:.:.:.-.-.7   [.[.[.[.[.[.[.[.[.[.[.[.[.",
"[.[.[.[.[.[.[.[.[.[.[.[.[.[.[.  < V @.:.&.  o ~ ~ ~ ~ o   %.:.:.-.:.:.7     [.[.[.[.[.[.[.[.[.[.[.[.",
"[.[.[.[.[.[.[.[.[.[.[.[.[.[.[.[.[.. 2 :.&.    T I I f o   M V =.-.5 . [.[.[.[.[.[.[.[.[.[.[.[.[.[.[.",
"[.[.[.[.[.[.[.[.[.[.[.[.[.[.[.[.[.  2 :.&.    T f T T o   n V =.:.8   [.[.[.[.[.[.[.[.[.[.[.[.[.[.[.",
"[.[.[.[.[.[.[.[.[.[.[.[.[.[.[.[.[.[.[.# #   X v.v.W.W.X   @ . # # [.[.[.[.[.[.[.[.[.[.[.[.[.[.[.[.[.",
"[.[.[.[.[.[.[.[.[.[.[.[.[.[.[.[.[.[.[.      X K.K.^.^.X           [.[.[.[.[.[.[.[.[.[.[.[.[.[.[.[.[.",
"[.[.[.[.[.[.[.[.[.[.[.[.[.[.[.[.[.[.[.[.[.    9 9 w w 0 0 0 0 u i +   [.[.[.[.[.[.[.[.[.[.[.[.[.[.[.",
"[.[.[.[.[.[.[.[.[.[.[.[.[.[.[.[.[.[.[.[.[.            t s s s f f -   [.[.[.[.[.[.[.[.[.[.[.[.[.[.[.",
"[.[.[.[.[.[.[.[.[.[.[.[.[.[.[.[.[.[.[.[.[.[.[.        t s f f T T -   [.[.[.[.[.[.[.[.[.[.[.[.[.[.[.",
"[.[.[.[.[.[.[.[.[.[.[.[.[.[.[.[.[.[.[.[.[.[.[.        s s f T T T +   [.[.[.[.[.[.[.[.[.[.[.[.[.[.[.",
"[.[.[.[.[.[.[.[.[.[.[.[.[.[.[.[.[.[.[.[.[.[.[.[.[.[.[.+ + ; > ; > O [.[.[.[.[.[.[.[.[.[.[.[.[.[.[.[.",
"[.[.[.[.[.[.[.[.[.[.[.[.[.[.[.[.[.[.[.[.[.[.[.[.[.[.[.            [.[.[.[.[.[.[.[.[.[.[.[.[.[.[.[.[.",
"[.[.[.[.[.[.[.[.[.[.[.[.[.[.[.[.[.[.[.[.[.[.[.[.[.[.[.[.[.  [.  [.[.[.[.[.[.[.[.[.[.[.[.[.[.[.[.[.[.",
"[.[.[.[.[.[.[.[.[.[.[.[.[.[.[.[.[.[.[.[.[.[.[.[.[.[.[.[.[.[.[.[.[.[.[.[.[.[.[.[.[.[.[.[.[.[.[.[.[.[.",
"[.[.[.[.[.[.[.[.[.[.[.[.[.[.[.[.[.[.[.[.[.[.[.[.[.[.[.[.[.[.[.[.[.[.[.[.[.[.[.[.[.[.[.[.[.[.[.[.[.[."
};
