/* XPM */
static char * right_xpm[] = {
"64 64 85 1",
" 	c #4D4E4C",
".	c #4C4D4B",
"+	c #595B59",
"@	c #535452",
"#	c #8D732C",
"$	c #515550",
"%	c #555654",
"&	c #585957",
"*	c #616260",
"=	c #515250",
"-	c #4F504E",
";	c #555754",
">	c #525551",
",	c #F5DB87",
"'	c #585A58",
")	c #4C4E4C",
"!	c #4E4F4D",
"~	c #525451",
"{	c #AC8C32",
"]	c #454944",
"^	c #525351",
"/	c #565755",
"(	c #50514F",
"_	c #4A4B49",
":	c #626361",
"<	c #535552",
"[	c #525552",
"}	c #F2D173",
"|	c #4D4F4D",
"1	c #535551",
"2	c #A58631",
"3	c #585B57",
"4	c #545654",
"5	c #535553",
"6	c #F2CF6F",
"7	c #464745",
"8	c #4A4C4A",
"9	c #4B4C4A",
"0	c #9A7E2F",
"a	c #51524F",
"b	c #515351",
"c	c #F2CD6A",
"d	c #484846",
"e	c #40403E",
"f	c #4F514E",
"g	c #4A4B48",
"h	c #4E504E",
"i	c #50524F",
"j	c #F2CB65",
"k	c #444543",
"l	c #434542",
"m	c #4E504D",
"n	c #F2C85F",
"o	c #4D4D4B",
"p	c #4F4F4D",
"q	c #484A47",
"r	c #F2C557",
"s	c #F2C14E",
"t	c #676967",
"u	c #464846",
"v	c #505150",
"w	c #4E4E4C",
"x	c #494948",
"y	c #4A4A49",
"z	c #50504E",
"A	c #575957",
"B	c #515451",
"C	c #454744",
"D	c #4B4C49",
"E	c #505250",
"F	c #4B4D4A",
"G	c #565754",
"H	c #4E4D4D",
"I	c #474846",
"J	c #555755",
"K	c #626462",
"L	c #4C4C4A",
"M	c #4C4E4B",
"N	c #51514F",
"O	c #494A48",
"P	c #545553",
"Q	c #484947",
"R	c #545452",
"S	c #565856",
"T	c #545451",
" .+@#$%&*=@@@-;> .+@#$%&*=@@@-;> .+@#$%&*=@@@-;> .+@#$%&*=@@@-;,",
"')!~{]^/(_@@:<[<')!~{]^/(_@@:<[<')!~{]^/(_@@:<[<')!~{]^/(_@@:<[}",
"=|.1234@=@::5==(=|.1234@=@::5==(=|.1234@=@::5==(=|.1234@=@::5==6",
"789!0ab(b:@@!(((789!0ab(b:@@!(((789!0ab(b:@@!(((789!0ab(b:@@!((c",
"de|f0g)h^:@(!i((de|f0g)h^:@(!i((de|f0g)h^:@(!i((de|f0g)h^:@(!i(j",
"!k!=0l@@(@:@ ^m(!k!=0l@@(@:@ ^m(!k!=0l@@(@:@ ^m(!k!=0l@@(@:@ ^mn",
"o|.p2q%(@:@^(^!!o|.p2q%(@:@^(^!!o|.p2q%(@:@^(^!!o|.p2q%(@:@^(^!r",
"####2{20002{20######2{20002{20######2{20002{20######2{20002{20#s",
"tubvwxy@(5%2z=-!tubvwxy@(5%2z=-!tubvwxy@(5%2z=-!tubvwxy@(5%2z=-s",
"A=BCD_^!@:E0F=!GA=BCD_^!@:E0F=!GA=BCD_^!@:E0F=!GA=BCD_^!@:E0F=!r",
"/E^_(==@:@(0H(I//E^_(==@:@(0H(I//E^_(==@:@(0H(I//E^_(==@:@(0H(In",
"JE ^(@<<K@L#M=NzJE ^(@<<K@L#M=NzJE ^(@<<K@L#M=NzJE ^(@<<K@L#M=Nj",
"/O!(@@K:@9 #=w@z/O!(@@K:@9 #=w@z/O!(@@K:@9 #=w@z/O!(@@K:@9 #=w@c",
"//=P@:@@@Q(#aR@z//=P@:@@@Q(#aR@z//=P@:@@@Q(#aR@z//=P@:@@@Q(#aR@6",
"S//@!@=@((=#T@//S//@!@=@((=#T@//S//@!@=@((=#T@//S//@!@=@((=#T@/}",
"###############################################################,",
" .+@#$%&*=@@@-;> .+@#$%&*=@@@-;> .+@#$%&*=@@@-;> .+@#$%&*=@@@-;,",
"')!~{]^/(_@@:<[<')!~{]^/(_@@:<[<')!~{]^/(_@@:<[<')!~{]^/(_@@:<[}",
"=|.1234@=@::5==(=|.1234@=@::5==(=|.1234@=@::5==(=|.1234@=@::5==6",
"789!0ab(b:@@!(((789!0ab(b:@@!(((789!0ab(b:@@!(((789!0ab(b:@@!((c",
"de|f0g)h^:@(!i((de|f0g)h^:@(!i((de|f0g)h^:@(!i((de|f0g)h^:@(!i(j",
"!k!=0l@@(@:@ ^m(!k!=0l@@(@:@ ^m(!k!=0l@@(@:@ ^m(!k!=0l@@(@:@ ^mn",
"o|.p2q%(@:@^(^!!o|.p2q%(@:@^(^!!o|.p2q%(@:@^(^!!o|.p2q%(@:@^(^!r",
"####2{20002{20######2{20002{20######2{20002{20######2{20002{20#s",
"tubvwxy@(5%2z=-!tubvwxy@(5%2z=-!tubvwxy@(5%2z=-!tubvwxy@(5%2z=-s",
"A=BCD_^!@:E0F=!GA=BCD_^!@:E0F=!GA=BCD_^!@:E0F=!GA=BCD_^!@:E0F=!r",
"/E^_(==@:@(0H(I//E^_(==@:@(0H(I//E^_(==@:@(0H(I//E^_(==@:@(0H(In",
"JE ^(@<<K@L#M=NzJE ^(@<<K@L#M=NzJE ^(@<<K@L#M=NzJE ^(@<<K@L#M=Nj",
"/O!(@@K:@9 #=w@z/O!(@@K:@9 #=w@z/O!(@@K:@9 #=w@z/O!(@@K:@9 #=w@c",
"//=P@:@@@Q(#aR@z//=P@:@@@Q(#aR@z//=P@:@@@Q(#aR@z//=P@:@@@Q(#aR@6",
"S//@!@=@((=#T@//S//@!@=@((=#T@//S//@!@=@((=#T@//S//@!@=@((=#T@/}",
"###############################################################,",
" .+@#$%&*=@@@-;> .+@#$%&*=@@@-;> .+@#$%&*=@@@-;> .+@#$%&*=@@@-;,",
"')!~{]^/(_@@:<[<')!~{]^/(_@@:<[<')!~{]^/(_@@:<[<')!~{]^/(_@@:<[}",
"=|.1234@=@::5==(=|.1234@=@::5==(=|.1234@=@::5==(=|.1234@=@::5==6",
"789!0ab(b:@@!(((789!0ab(b:@@!(((789!0ab(b:@@!(((789!0ab(b:@@!((c",
"de|f0g)h^:@(!i((de|f0g)h^:@(!i((de|f0g)h^:@(!i((de|f0g)h^:@(!i(j",
"!k!=0l@@(@:@ ^m(!k!=0l@@(@:@ ^m(!k!=0l@@(@:@ ^m(!k!=0l@@(@:@ ^mn",
"o|.p2q%(@:@^(^!!o|.p2q%(@:@^(^!!o|.p2q%(@:@^(^!!o|.p2q%(@:@^(^!r",
"####2{20002{20######2{20002{20######2{20002{20######2{20002{20#s",
"tubvwxy@(5%2z=-!tubvwxy@(5%2z=-!tubvwxy@(5%2z=-!tubvwxy@(5%2z=-s",
"A=BCD_^!@:E0F=!GA=BCD_^!@:E0F=!GA=BCD_^!@:E0F=!GA=BCD_^!@:E0F=!r",
"/E^_(==@:@(0H(I//E^_(==@:@(0H(I//E^_(==@:@(0H(I//E^_(==@:@(0H(In",
"JE ^(@<<K@L#M=NzJE ^(@<<K@L#M=NzJE ^(@<<K@L#M=NzJE ^(@<<K@L#M=Nj",
"/O!(@@K:@9 #=w@z/O!(@@K:@9 #=w@z/O!(@@K:@9 #=w@z/O!(@@K:@9 #=w@c",
"//=P@:@@@Q(#aR@z//=P@:@@@Q(#aR@z//=P@:@@@Q(#aR@z//=P@:@@@Q(#aR@6",
"S//@!@=@((=#T@//S//@!@=@((=#T@//S//@!@=@((=#T@//S//@!@=@((=#T@/}",
"###############################################################,",
" .+@#$%&*=@@@-;> .+@#$%&*=@@@-;> .+@#$%&*=@@@-;> .+@#$%&*=@@@-;,",
"')!~{]^/(_@@:<[<')!~{]^/(_@@:<[<')!~{]^/(_@@:<[<')!~{]^/(_@@:<[}",
"=|.1234@=@::5==(=|.1234@=@::5==(=|.1234@=@::5==(=|.1234@=@::5==6",
"789!0ab(b:@@!(((789!0ab(b:@@!(((789!0ab(b:@@!(((789!0ab(b:@@!((c",
"de|f0g)h^:@(!i((de|f0g)h^:@(!i((de|f0g)h^:@(!i((de|f0g)h^:@(!i(j",
"!k!=0l@@(@:@ ^m(!k!=0l@@(@:@ ^m(!k!=0l@@(@:@ ^m(!k!=0l@@(@:@ ^mn",
"o|.p2q%(@:@^(^!!o|.p2q%(@:@^(^!!o|.p2q%(@:@^(^!!o|.p2q%(@:@^(^!r",
"####2{20002{20######2{20002{20######2{20002{20######2{20002{20#s",
"tubvwxy@(5%2z=-!tubvwxy@(5%2z=-!tubvwxy@(5%2z=-!tubvwxy@(5%2z=-s",
"A=BCD_^!@:E0F=!GA=BCD_^!@:E0F=!GA=BCD_^!@:E0F=!GA=BCD_^!@:E0F=!r",
"/E^_(==@:@(0H(I//E^_(==@:@(0H(I//E^_(==@:@(0H(I//E^_(==@:@(0H(In",
"JE ^(@<<K@L#M=NzJE ^(@<<K@L#M=NzJE ^(@<<K@L#M=NzJE ^(@<<K@L#M=Nj",
"/O!(@@K:@9 #=w@z/O!(@@K:@9 #=w@z/O!(@@K:@9 #=w@z/O!(@@K:@9 #=w@c",
"//=P@:@@@Q(#aR@z//=P@:@@@Q(#aR@z//=P@:@@@Q(#aR@z//=P@:@@@Q(#aR@6",
"S//@!@=@((=#T@//S//@!@=@((=#T@//S//@!@=@((=#T@//S//@!@=@((=#T@/}",
"###############################################################,"};
