/* XPM */
static char * up_xpm[] = {
"64 64 85 1",
" 	c #F5DB87",
".	c #F2D173",
"+	c #F2CF6F",
"@	c #F2CD6A",
"#	c #F2CB65",
"$	c #F2C85F",
"%	c #F2C557",
"&	c #F2C14E",
"*	c #585A58",
"=	c #4C4E4C",
"-	c #4E4F4D",
";	c #525451",
">	c #AC8C32",
",	c #454944",
"'	c #525351",
")	c #565755",
"!	c #50514F",
"~	c #4A4B49",
"{	c #535452",
"]	c #626361",
"^	c #535552",
"/	c #525552",
"(	c #515250",
"_	c #4D4F4D",
":	c #4C4D4B",
"<	c #535551",
"[	c #A58631",
"}	c #585B57",
"|	c #545654",
"1	c #535553",
"2	c #464745",
"3	c #4A4C4A",
"4	c #4B4C4A",
"5	c #9A7E2F",
"6	c #51524F",
"7	c #515351",
"8	c #484846",
"9	c #40403E",
"0	c #4F514E",
"a	c #4A4B48",
"b	c #4E504E",
"c	c #50524F",
"d	c #444543",
"e	c #434542",
"f	c #4D4E4C",
"g	c #4E504D",
"h	c #4D4D4B",
"i	c #4F4F4D",
"j	c #484A47",
"k	c #555654",
"l	c #8D732C",
"m	c #676967",
"n	c #464846",
"o	c #505150",
"p	c #4E4E4C",
"q	c #494948",
"r	c #4A4A49",
"s	c #50504E",
"t	c #4F504E",
"u	c #575957",
"v	c #515451",
"w	c #454744",
"x	c #4B4C49",
"y	c #505250",
"z	c #4B4D4A",
"A	c #565754",
"B	c #4E4D4D",
"C	c #474846",
"D	c #555755",
"E	c #626462",
"F	c #4C4C4A",
"G	c #4C4E4B",
"H	c #51514F",
"I	c #494A48",
"J	c #545553",
"K	c #484947",
"L	c #545452",
"M	c #565856",
"N	c #545451",
"O	c #595B59",
"P	c #515550",
"Q	c #585957",
"R	c #616260",
"S	c #555754",
"T	c #525551",
" .+@#$%&&%$#@+.  .+@#$%&&%$#@+.  .+@#$%&&%$#@+.  .+@#$%&&%$#@+. ",
"*=-;>,')!~{{]^/^*=-;>,')!~{{]^/^*=-;>,')!~{{]^/^*=-;>,')!~{{]^/^",
"(_:<[}|{({]]1((!(_:<[}|{({]]1((!(_:<[}|{({]]1((!(_:<[}|{({]]1((!",
"234-567!7]{{-!!!234-567!7]{{-!!!234-567!7]{{-!!!234-567!7]{{-!!!",
"89_05a=b']{!-c!!89_05a=b']{!-c!!89_05a=b']{!-c!!89_05a=b']{!-c!!",
"-d-(5e{{!{]{f'g!-d-(5e{{!{]{f'g!-d-(5e{{!{]{f'g!-d-(5e{{!{]{f'g!",
"h_:i[jk!{]{'!'--h_:i[jk!{]{'!'--h_:i[jk!{]{'!'--h_:i[jk!{]{'!'--",
"llll[>[555[>[5llllll[>[555[>[5llllll[>[555[>[5llllll[>[555[>[5ll",
"mn7opqr{!1k[s(t-mn7opqr{!1k[s(t-mn7opqr{!1k[s(t-mn7opqr{!1k[s(t-",
"u(vwx~'-{]y5z(-Au(vwx~'-{]y5z(-Au(vwx~'-{]y5z(-Au(vwx~'-{]y5z(-A",
")y'~!(({]{!5B!C))y'~!(({]{!5B!C))y'~!(({]{!5B!C))y'~!(({]{!5B!C)",
"Dyf'!{^^E{FlG(HsDyf'!{^^E{FlG(HsDyf'!{^^E{FlG(HsDyf'!{^^E{FlG(Hs",
")I-!{{E]{4fl(p{s)I-!{{E]{4fl(p{s)I-!{{E]{4fl(p{s)I-!{{E]{4fl(p{s",
"))(J{]{{{K!l6L{s))(J{]{{{K!l6L{s))(J{]{{{K!l6L{s))(J{]{{{K!l6L{s",
"M)){-{({!!(lN{))M)){-{({!!(lN{))M)){-{({!!(lN{))M)){-{({!!(lN{))",
"llllllllllllllllllllllllllllllllllllllllllllllllllllllllllllllll",
"f:O{lPkQR({{{tSTf:O{lPkQR({{{tSTf:O{lPkQR({{{tSTf:O{lPkQR({{{tST",
"*=-;>,')!~{{]^/^*=-;>,')!~{{]^/^*=-;>,')!~{{]^/^*=-;>,')!~{{]^/^",
"(_:<[}|{({]]1((!(_:<[}|{({]]1((!(_:<[}|{({]]1((!(_:<[}|{({]]1((!",
"234-567!7]{{-!!!234-567!7]{{-!!!234-567!7]{{-!!!234-567!7]{{-!!!",
"89_05a=b']{!-c!!89_05a=b']{!-c!!89_05a=b']{!-c!!89_05a=b']{!-c!!",
"-d-(5e{{!{]{f'g!-d-(5e{{!{]{f'g!-d-(5e{{!{]{f'g!-d-(5e{{!{]{f'g!",
"h_:i[jk!{]{'!'--h_:i[jk!{]{'!'--h_:i[jk!{]{'!'--h_:i[jk!{]{'!'--",
"llll[>[555[>[5llllll[>[555[>[5llllll[>[555[>[5llllll[>[555[>[5ll",
"mn7opqr{!1k[s(t-mn7opqr{!1k[s(t-mn7opqr{!1k[s(t-mn7opqr{!1k[s(t-",
"u(vwx~'-{]y5z(-Au(vwx~'-{]y5z(-Au(vwx~'-{]y5z(-Au(vwx~'-{]y5z(-A",
")y'~!(({]{!5B!C))y'~!(({]{!5B!C))y'~!(({]{!5B!C))y'~!(({]{!5B!C)",
"Dyf'!{^^E{FlG(HsDyf'!{^^E{FlG(HsDyf'!{^^E{FlG(HsDyf'!{^^E{FlG(Hs",
")I-!{{E]{4fl(p{s)I-!{{E]{4fl(p{s)I-!{{E]{4fl(p{s)I-!{{E]{4fl(p{s",
"))(J{]{{{K!l6L{s))(J{]{{{K!l6L{s))(J{]{{{K!l6L{s))(J{]{{{K!l6L{s",
"M)){-{({!!(lN{))M)){-{({!!(lN{))M)){-{({!!(lN{))M)){-{({!!(lN{))",
"llllllllllllllllllllllllllllllllllllllllllllllllllllllllllllllll",
"f:O{lPkQR({{{tSTf:O{lPkQR({{{tSTf:O{lPkQR({{{tSTf:O{lPkQR({{{tST",
"*=-;>,')!~{{]^/^*=-;>,')!~{{]^/^*=-;>,')!~{{]^/^*=-;>,')!~{{]^/^",
"(_:<[}|{({]]1((!(_:<[}|{({]]1((!(_:<[}|{({]]1((!(_:<[}|{({]]1((!",
"234-567!7]{{-!!!234-567!7]{{-!!!234-567!7]{{-!!!234-567!7]{{-!!!",
"89_05a=b']{!-c!!89_05a=b']{!-c!!89_05a=b']{!-c!!89_05a=b']{!-c!!",
"-d-(5e{{!{]{f'g!-d-(5e{{!{]{f'g!-d-(5e{{!{]{f'g!-d-(5e{{!{]{f'g!",
"h_:i[jk!{]{'!'--h_:i[jk!{]{'!'--h_:i[jk!{]{'!'--h_:i[jk!{]{'!'--",
"llll[>[555[>[5llllll[>[555[>[5llllll[>[555[>[5llllll[>[555[>[5ll",
"mn7opqr{!1k[s(t-mn7opqr{!1k[s(t-mn7opqr{!1k[s(t-mn7opqr{!1k[s(t-",
"u(vwx~'-{]y5z(-Au(vwx~'-{]y5z(-Au(vwx~'-{]y5z(-Au(vwx~'-{]y5z(-A",
")y'~!(({]{!5B!C))y'~!(({]{!5B!C))y'~!(({]{!5B!C))y'~!(({]{!5B!C)",
"Dyf'!{^^E{FlG(HsDyf'!{^^E{FlG(HsDyf'!{^^E{FlG(HsDyf'!{^^E{FlG(Hs",
")I-!{{E]{4fl(p{s)I-!{{E]{4fl(p{s)I-!{{E]{4fl(p{s)I-!{{E]{4fl(p{s",
"))(J{]{{{K!l6L{s))(J{]{{{K!l6L{s))(J{]{{{K!l6L{s))(J{]{{{K!l6L{s",
"M)){-{({!!(lN{))M)){-{({!!(lN{))M)){-{({!!(lN{))M)){-{({!!(lN{))",
"llllllllllllllllllllllllllllllllllllllllllllllllllllllllllllllll",
"f:O{lPkQR({{{tSTf:O{lPkQR({{{tSTf:O{lPkQR({{{tSTf:O{lPkQR({{{tST",
"*=-;>,')!~{{]^/^*=-;>,')!~{{]^/^*=-;>,')!~{{]^/^*=-;>,')!~{{]^/^",
"(_:<[}|{({]]1((!(_:<[}|{({]]1((!(_:<[}|{({]]1((!(_:<[}|{({]]1((!",
"234-567!7]{{-!!!234-567!7]{{-!!!234-567!7]{{-!!!234-567!7]{{-!!!",
"89_05a=b']{!-c!!89_05a=b']{!-c!!89_05a=b']{!-c!!89_05a=b']{!-c!!",
"-d-(5e{{!{]{f'g!-d-(5e{{!{]{f'g!-d-(5e{{!{]{f'g!-d-(5e{{!{]{f'g!",
"h_:i[jk!{]{'!'--h_:i[jk!{]{'!'--h_:i[jk!{]{'!'--h_:i[jk!{]{'!'--",
"llll[>[555[>[5llllll[>[555[>[5llllll[>[555[>[5llllll[>[555[>[5ll",
"mn7opqr{!1k[s(t-mn7opqr{!1k[s(t-mn7opqr{!1k[s(t-mn7opqr{!1k[s(t-",
"u(vwx~'-{]y5z(-Au(vwx~'-{]y5z(-Au(vwx~'-{]y5z(-Au(vwx~'-{]y5z(-A",
")y'~!(({]{!5B!C))y'~!(({]{!5B!C))y'~!(({]{!5B!C))y'~!(({]{!5B!C)",
"Dyf'!{^^E{FlG(HsDyf'!{^^E{FlG(HsDyf'!{^^E{FlG(HsDyf'!{^^E{FlG(Hs",
")I-!{{E]{4fl(p{s)I-!{{E]{4fl(p{s)I-!{{E]{4fl(p{s)I-!{{E]{4fl(p{s",
"))(J{]{{{K!l6L{s))(J{]{{{K!l6L{s))(J{]{{{K!l6L{s))(J{]{{{K!l6L{s",
"M)){-{({!!(lN{))M)){-{({!!(lN{))M)){-{({!!(lN{))M)){-{({!!(lN{))",
"llllllllllllllllllllllllllllllllllllllllllllllllllllllllllllllll"};
