/* XPM */
static char *bomb[] = {
/* columns rows colors chars-per-pixel */
"50 50 172 2 ",
"   c #000000",
".  c #0E0E0E",
"X  c #100700",
"o  c #1D0A01",
"O  c #120E0C",
"+  c #1A0B04",
"@  c #10100F",
"#  c #1C1C1C",
"$  c #2D0D00",
"%  c #330E00",
"&  c #2D1309",
"*  c #351000",
"=  c #3E1300",
"-  c #271916",
";  c #361B13",
":  c #20201F",
">  c #2E2418",
",  c #3B2D1C",
"<  c #262525",
"1  c #282727",
"2  c #292827",
"3  c #2C2B2B",
"4  c #302F2F",
"5  c #30302F",
"6  c #343433",
"7  c #3A3735",
"8  c #383837",
"9  c #3C3B3B",
"0  c #400E00",
"q  c #431403",
"w  c #4B1602",
"e  c #521501",
"r  c #5E2204",
"t  c #402817",
"y  c #472611",
"u  c #522E1B",
"i  c #47301F",
"p  c #4A311D",
"a  c #632504",
"s  c #6B2402",
"d  c #652B06",
"f  c #6C2B04",
"g  c #632D09",
"h  c #6C2E08",
"j  c #722501",
"k  c #7C2601",
"l  c #732B03",
"z  c #7B2B01",
"x  c #66310B",
"c  c #6B340C",
"v  c #723109",
"b  c #7C3202",
"n  c #60381A",
"m  c #753D11",
"M  c #793E11",
"N  c #4A342C",
"B  c #5C3B24",
"V  c #5F3626",
"C  c #633C20",
"Z  c #774113",
"A  c #7C4413",
"S  c #5E402C",
"D  c #40403F",
"F  c #5D4A35",
"G  c #584938",
"H  c #624426",
"J  c #6A4529",
"K  c #6F5231",
"L  c #7C593B",
"P  c #434342",
"I  c #484747",
"U  c #484847",
"Y  c #4C4B4B",
"T  c #504F4F",
"R  c #50504F",
"E  c #545353",
"W  c #585757",
"Q  c #585857",
"!  c #5C5C5C",
"~  c #605F5F",
"^  c #7F6149",
"/  c #646464",
"(  c #686767",
")  c #6C6B6B",
"_  c #706F6F",
"`  c #70706F",
"'  c #747473",
"]  c #787877",
"[  c #7C7C7B",
"{  c #787776",
"}  c #832E01",
"|  c #843002",
" . c #8C3301",
".. c #883802",
"X. c #943502",
"o. c #9C3B02",
"O. c #9A3708",
"+. c #8E3514",
"@. c #824615",
"#. c #854916",
"$. c #8B4B17",
"%. c #8D4D18",
"&. c #914E19",
"*. c #80501F",
"=. c #94501A",
"-. c #A44204",
";. c #AC4808",
":. c #B64A03",
">. c #82583A",
",. c #BD7C2D",
"<. c #C54805",
"1. c #C55208",
"2. c #C8640F",
"3. c #D56406",
"4. c #DC700C",
"5. c #C36610",
"6. c #D26E12",
"7. c #C4791F",
"8. c #D87214",
"9. c #EA6D06",
"0. c #E27007",
"q. c #F47808",
"w. c #E77D16",
"e. c #C67F29",
"r. c #835F42",
"t. c #8A6548",
"y. c #807F7F",
"u. c #807977",
"i. c #F98009",
"p. c #E88A1E",
"a. c #FB8A11",
"s. c #F08519",
"d. c #CD8329",
"f. c #D38120",
"g. c #D98929",
"h. c #F18C22",
"j. c #F49125",
"k. c #F59329",
"l. c #F49A2D",
"z. c #FA9B2E",
"x. c #FB9E39",
"c. c #FAA033",
"v. c #FCA33B",
"b. c #B68649",
"n. c #80807F",
"m. c #8E847D",
"M. c #CB8E42",
"N. c #FCA643",
"B. c #FCAC4C",
"V. c #FCA945",
"C. c #F9AC52",
"Z. c #FCB159",
"A. c #FCB157",
"S. c #848383",
"D. c #8B8B8B",
"F. c #908F8F",
"G. c #949494",
"H. c #989897",
"J. c #9D9D9C",
"K. c #A3A3A2",
"L. c #ADADAD",
"P. c #B3B3B3",
"I. c #BBBBBB",
"U. c #C4C4C4",
"Y. c #CBCBCB",
"T. c LightGray",
"R. c #DCDCDC",
"E. c #E3E3E3",
"W. c #EBEBEB",
"Q. c gray95",
"!. c #FAFAFA",
"~. c #489848",
/* pixels */
"~.~.~.~.~.~.~.~.~.~.~.~.~.~.~.~.~.~.~.~.~.~.~.~.~.~.~.~.~.~.~.~.~.~.~.~.~.~.~.~.~.~.~.~.~.~.~.~.~.~.",
"~.~.~.~.~.~.~.~.~.~.~.~.~.~.~.~.~.~.~.~.~.~.~.~.~.~.C y L ~.~.~.~.~.~.~.~.~.~.~.~.~.~.~.~.~.~.~.~.~.",
"~.~.~.~.~.~.~.~.~.~.~.~.~.~.~.~.~.~.~.~.~.~.~.~.~.t.@ ~.~., S t.~.~.~.~.~.~.t.~.~.~.~.~.~.~.~.~.~.~.",
"~.~.~.~.~.~.~.~.~.~.~.~.~.~.~.~.~.~.~.~.~.~.~.~.~.+ ~.~.~.~.~.N C ~.~.~.~.~.L ~.~.~.~.~.~.~.~.~.~.~.",
"~.~.~.~.~.~.~.~.~.~.~.~.~.~.~.~.~.~.~.~.~.~.~.~.~.~.~.~.~.~.~.~.~.>.>.~.~.~.u ~.~.~.~.~.~.~.~.~.~.~.",
"~.~.~.~.~.~.~.~.~.~.~.~.~.~.~.~.~.~.~.~.~.~.) [ m.u.[ ( ~.~.~.~.~.~.~.J J S B ~.~.~.~.~.~.~.~.~.~.~.",
"~.~.~.~.~.~.~.~.~.~.~.~.~.~.~.~.~.~.~.G.P.W.E.I.J.K.I.T.Y.L.J.~.~.~.~.~.~.~.~.~.~.~.~.~.~.~.~.~.~.~.",
"~.~.~.~.~.~.~.~.~.~.~.~.~.~.~.~.~.~.~.H.R.W.E.Y.P.I.U.Y.U.I.K.~.~.~.~.~.~.~.~.~.~.~.~.~.~.~.~.~.~.~.",
"~.~.~.~.~.~.~.~.~.~.~.~.~.~.~.~.~.~.~.L.R.E.Y.K.D.D.H.P.U.I.L.~.~.~.~.~.~.~.~.~.~.~.~.~.~.~.~.~.~.~.",
"~.~.~.~.~.~.~.~.~.~.~.~.~.~.~.~.~.~.~./ 9 6 8 9 D D 9 9 6 9 ) ~.~.~.~.~.~.~.~.~.~.~.~.~.~.~.~.~.~.~.",
"~.~.~.~.~.~.~.~.~.~.~.~.~.~.~.~.~.P 6 D Y R Q ! ! ! ! W T Y D 6 I ~.~.~.~.~.~.~.~.~.~.~.~.~.~.~.~.~.",
"~.~.~.~.~.~.~.~.~.~.~.~.~.~.~.E 6 P T Q / ) ` ' { { ' ' ) / ! E P 6 W ~.~.~.~.~.~.~.~.~.~.~.~.~.~.~.",
"~.~.~.~.~.~.~.~.~.~.~.~.~.~.5 9 I W / _ ' [ y.n.n.n.y.y.[ ] _ ( Q Y 9 6 ~.~.~.~.~.~.~.~.~.~.~.~.~.~.",
"~.~.~.~.~.~.~.~.~.~.~.~.~.3 9 Y ~ ( ` ] [ y.y.n.S.S.S.S.n.y.] ' ) ~ T 9 4 ~.~.~.~.~.~.~.~.~.~.~.~.~.",
"~.~.~.~.~.~.~.~.~.~.~.~.3 9 Y ! ) _ ] [ y.y.S.S.S.S.S.S.n.y.[ ] ' ) ~ T 9 4 ~.~.~.~.~.~.~.~.~.~.~.~.",
"~.~.~.~.~.~.~.~.~.~.~.1 8 I Q ( _ ' ' [ y.y.S.S.S.S.S.S.n.y.[ [ ' ` ( ! T 6 3 ~.~.~.~.~.~.~.~.~.~.~.",
"~.~.~.~.~.~.~.~.~.~.9 5 D E ! ( ) _ ' ] [ y.n.S.S.D.S.S.S.y.[ ] ' _ ) / E I 6 9 ~.~.~.~.~.~.~.~.~.~.",
"~.~.~.~.~.~.~.~.~.~.1 8 Y ! ~ ( ) _ ' ] K.D.S.D.S.D.D.S.F.K.y.' ` _ ( / Q Y 9 3 ~.~.~.~.~.~.~.~.~.~.",
"~.~.~.~.~.~.~.~.~.1 5 D Y Q ! / ( ) ` W.!.!.G.D.F.F.F.H.!.!.E.] ` ) ( ~ Q E P 6 3 ~.~.~.~.~.~.~.~.~.",
"~.~.~.~.~.~.~.~.~.< 6 P Y Q ! ~ ( ) J.!.!.!.W.F.F.G.F.W.!.!.!.K._ ) / ~ ! R I 6 1 ~.~.~.~.~.~.~.~.~.",
"~.~.~.~.~.~.~.~.6 1 6 I Y E Q ! / ( W.Q.Q.Q.Q.G.G.H.H.Q.Q.Q.Q.W._ ( ~ ! W T I 9 3 6 ~.~.~.~.~.~.~.~.",
"~.~.~.~.~.~.~.~.: 1 6 P Y Y E Q ~ ( W.W.W.W.W.P.J.J.P.W.W.W.W.W.) / ~ W E Y P 8 4 : ~.~.~.~.~.~.~.~.",
"~.~.~.~.~.~.~.~.: 1 8 9 I Y T W ! ' E.E.E.E.E.U.J.J.U.E.E.E.E.E.] / ! E Y I P 8 4 : ~.~.~.~.~.~.~.~.",
"~.~.~.~.~.~.~.~.: 1 6 9 N P Y R W S.R.R.R.R.R.Y.J.J.Y.R.R.R.R.R.D.~ E T Y P 9 6 3 : ~.~.~.~.~.~.~.~.",
"~.~.~.~.~.~.~.E # 2 5 8 9 D U Y R F.T.T.T.T.T.Y.G.H.Y.T.T.T.T.T.F.! E Y P D 8 6 3 : E ~.~.~.~.~.~.~.",
"~.~.~.~.~.~.~.I # < 3 5 8 9 D U T D.Y.Y.Y.Y.Y.I.F.F.I.Y.Y.Y.Y.Y.D.E Y P D 9 8 3 1 : U ~.~.~.~.~.~.~.",
"~.~.~.~.~.~.~.I # : 2 3 5 8 9 D U ` U.I.U.U.U.K.S.S.K.U.U.U.U.U.' T I D 9 6 4 3 < # I ~.~.~.~.~.~.~.",
"~.~.~.~.~.~.~.D > 7.z.c.l.d.F 9 P T L.I.I.I.I.[ ] [ [ I.I.I.I.L.E I P G e.l.x.l.e., P ~.~.~.~.~.~.~.",
"~.~.~.~.~.~.~.b.v.A.Z.Z.Z.Z.B.d.9 D J.J.J.J.J.~ ) ) / J.H.J.J.J.P P ,.V.Z.Z.Z.Z.A.v.M.~.~.~.~.~.~.~.",
"~.~.~.~.~.~.~.N.N.k.8.2.6.h.N.C.g.9 H.J.J.J.J.! ! ~ ! J.J.J.J.H.D e.B.V.j.6.2.8.j.v.V.~.~.~.~.~.~.~.",
"~.~.~.~.~.~.z.k.-.| f v f z -.k.N.K P J.J.J.R E E E E R J.J.J.I F v.l.;.z f v f } -.h.z.~.~.~.~.~.~.",
"~.~.~.~.~.C.s.X.d Z =.A &.A c  .h.p.6 R H.E I U U Y Y I Q H.R 8 f.j.X.h A &.A &.A g X.w.x.~.~.~.~.~.",
"~.~.~.~.~.q.o.d %.$.A =.A &.A c o.a.7 6 6 9 9 D P P D 9 D 8 8 7 a.-.h Z =.A %.#.#.&.g o.i.~.~.~.~.~.",
"~.~.~.~.~.9.b =.A =.A $.#.#.&.A l 3.*.6 6 6 8 7 9 9 9 9 7 7 5 H 0.z Z %.$.@.$.A =.A &.l 3.~.~.~.~.~.",
"~.~.~.~.~.:.d $.$.@.=.A =.@.$.&.x o.4.3 3 4 6 6 6 8 6 6 5 5 3 5.-.g %.%.@.=.A &.@.$.$.g ;.~.~.~.~.~.",
"~.~.~.~.~.o.M A &.A $.&.A =.A $.A } 9.3 1 2 3 3 3 3 3 3 3 2 2 9. .Z %.A =.A $.$.A =.A @.X.~.~.~.~.~.",
"~.~.~.~.~.| M %.A =.A &.$.A &.A =.g :.n < < < < 1 1 1 1 1 < N 1.f =.@.=.A $.&.A =.@.$.A  .~.~.~.~.~.",
"~.~.~.~.~.~.x %.$.@.=.A &.@.$.%.A #. .1.< < 1 1 1 1 1 1 1 < ;. .A @.$.$.A &.A =.#.$.&.c s ~.~.~.~.~.",
"~.~.~.~.~.~.l Z =.#.#.$.@.=.A &.A $.h :.3 3 3 3 3 3 3 3 3 3 <.l $.A &.A =.#.$.$.@.=.A f ~.~.~.~.~.~.",
"~.~.~.~.~.~.~.f A =.A &.$.#.$.A =.Z +. .V 4 6 6 6 6 6 6 6 N O.M A %.A $.#.#.&.A &.A h a ~.~.~.~.~.~.",
"~.~.~.~.~.~.~.~.d @.=.A =.A %.#.#.&.A h O.6 4 4 4 6 6 4 4 +.l A =.#.@.=.A =.A =.#.d b ~.~.~.~.~.~.~.",
"~.~.~.~.~.~.~.~...d #.$.A =.A =.A $.&.c X.1 < < 1 1 < < < X.x %.$.A =.A %.#.#.$.d ..~.~.~.~.~.~.~.~.",
"~.~.~.~.~.~.~.~.~.| d &.@.%.=.A &.A %.@.k ; # # # # # # - } A &.A =.@.%.%.A =.g  .~.~.~.~.~.~.~.~.~.",
"~.~.~.~.~.~.~.~.~.~.z g =.A %.$.@.&.A &.s q . . . . . . & j &.A %.#.#.=.A =.c z ~.~.~.~.~.~.~.~.~.~.",
"~.~.~.~.~.~.~.~.~.~.X j m =.A =.A %.&.A j $             o j A $.$.A =.A =.A j o ~.~.~.~.~.~.~.~.~.~.",
"~.~.~.~.~.~.~.~.~.~.  o s A %.A &.A &.A k                 k m &.A =.@.%.#.a $ ~.~.~.~.~.~.~.~.~.~.~.",
"~.~.~.~.~.~.~.~.~.~.~.  * s #.$.@.&.m a e ~.~.~.~.~.~.~.~.0 s M %.#.#.$.s q   ~.~.~.~.~.~.~.~.~.~.~.",
"~.~.~.~.~.~.~.~.~.~.~.~.~.% j a g r s e ~.~.~.~.~.~.~.~.~.~.= s r r a j = ~.~.~.~.~.~.~.~.~.~.~.~.~.",
"~.~.~.~.~.~.~.~.~.~.~.~.~.~.~.% w * ~.~.~.~.~.~.~.~.~.~.~.~.~.~.% w * ~.~.~.~.~.~.~.~.~.~.~.~.~.~.~.",
"~.~.~.~.~.~.~.~.~.~.~.~.~.~.~.~.~.~.~.~.~.~.~.~.~.~.~.~.~.~.~.~.~.~.~.~.~.~.~.~.~.~.~.~.~.~.~.~.~.~."
};
