/* XPM */
static char *diamond[] = {
/* columns rows colors chars-per-pixel */
"50 50 184 2 ",
"   c #1E1641",
".  c #211845",
"X  c #251C4B",
"o  c #2A1E4F",
"O  c #2C2254",
"+  c #2F255A",
"@  c #31265D",
"#  c #34285F",
"$  c #342762",
"%  c #362964",
"&  c #3A2A67",
"*  c #3C2B6B",
"=  c #443168",
"-  c #422D71",
";  c #473178",
":  c #4B327B",
">  c #4F3B7C",
",  c #433072",
"<  c #543585",
"1  c #583F86",
"2  c #5C3688",
"3  c #633C8D",
"4  c #633C96",
"5  c #693E9D",
"6  c #5B4086",
"7  c #644A94",
"8  c #66479C",
"9  c #77439E",
"0  c #6D5A93",
"q  c #70509D",
"w  c #634DA5",
"e  c #694FA8",
"r  c #6C4DA0",
"t  c #7946A5",
"y  c #6752A9",
"u  c #6C53AB",
"i  c #6F59AF",
"p  c #7352A7",
"a  c #7944B1",
"s  c #7B4CB1",
"d  c #6F5AB0",
"f  c #7454B0",
"g  c #7956B3",
"h  c #725DB1",
"j  c #7C5AB4",
"k  c #7E59B8",
"l  c #7D6FA1",
"z  c #7661B0",
"x  c #7C61B3",
"c  c #7F69B5",
"v  c #7C63B9",
"b  c #8A4AB6",
"n  c #914DB5",
"m  c #8557BE",
"M  c #9956BB",
"N  c #8878AC",
"B  c #816CB4",
"V  c #8362BA",
"C  c #8269BB",
"Z  c #8A6ABD",
"A  c #8D65BC",
"S  c #8E7EB2",
"D  c #8972BC",
"F  c #927DBE",
"G  c #9073BE",
"H  c #8448C1",
"J  c #934EC1",
"K  c #9853C7",
"L  c #9851CF",
"P  c #9657C7",
"I  c #A15CC2",
"U  c #AB5AD7",
"Y  c #8E6CC2",
"T  c #8B72C4",
"R  c #9472C3",
"E  c #937BC1",
"W  c #9178CB",
"Q  c #A76ECB",
"!  c #A967D8",
"~  c #B66BD6",
"^  c #A977D8",
"/  c #BD76D9",
"(  c #AC5FE3",
")  c #AB68E2",
"_  c #B266E6",
"`  c #BF6CEB",
"'  c #BA79E3",
"]  c #C270DD",
"[  c #C26DED",
"{  c #C473ED",
"}  c #CB74F1",
"|  c #D179F0",
" . c #9884B8",
".. c #9780C3",
"X. c #9B84C5",
"o. c #9C82D3",
"O. c #A28DCC",
"+. c #A489C2",
"@. c #B383CF",
"#. c #AE9FCC",
"$. c #A291C5",
"%. c #B39ECC",
"&. c #A385D3",
"*. c #AA8BD7",
"=. c #AB8CDE",
"-. c #A286D8",
";. c #B383DD",
":. c #B785D5",
">. c #AB96D7",
",. c #AE92DD",
"<. c #BD90D7",
"1. c #B193DF",
"2. c #B39CD9",
"3. c #B7AACA",
"4. c #B8A6D8",
"5. c #AF92E3",
"6. c #B59CE1",
"7. c #B99EE1",
"8. c #B598E8",
"9. c #BA9CEC",
"0. c #BD95E8",
"q. c #BFABE3",
"w. c #BFA3ED",
"e. c #C78ADD",
"r. c #C193DA",
"t. c #C1B3DB",
"y. c #C386EC",
"u. c #C395E6",
"i. c #C99AE5",
"p. c #D199E3",
"a. c #DC83F3",
"s. c #DF81F9",
"d. c #D888F4",
"f. c #CF94F0",
"g. c #D495F0",
"h. c #E18DF8",
"j. c #C2A5ED",
"k. c #C6ACE9",
"l. c #CFABEE",
"z. c #D7A5EA",
"x. c #D9A7EE",
"c. c #D8A9E8",
"v. c #C7B1E9",
"b. c #C9B7EB",
"n. c #CEBDED",
"m. c #CAB6E6",
"M. c #D5BAEB",
"N. c #C5A4F1",
"B. c #C6AAF2",
"V. c #CAAFF5",
"C. c #DBA4F3",
"Z. c #DBADF4",
"A. c #CCB2F4",
"S. c #CDB3F8",
"D. c #CFB9F3",
"F. c #D3BCF5",
"G. c #D3BBF8",
"H. c #D8B5F6",
"J. c #E5AAF5",
"K. c #EBABF5",
"L. c #E4B5F2",
"P. c #CCC3DC",
"I. c #D5CBE3",
"U. c #D1C4E7",
"Y. c #DCD3EB",
"T. c #D7C2F8",
"R. c #D9C3FA",
"E. c #DDCAFA",
"W. c #D8C7F3",
"Q. c #E5C0EF",
"!. c #E1C6F3",
"~. c #E0CFFB",
"^. c #E5C9F4",
"/. c #E6DCF1",
"(. c #E4D3FC",
"). c #E7D8FC",
"_. c #EADBFB",
"`. c #E5D2F6",
"'. c #EAE2F5",
"]. c #EEE4FA",
"[. c #F1E4FB",
"{. c #F6ECFD",
"}. c #F7F0FD",
"|. c #489848",
/* pixels */
"|.|.|.|.|.|.|.|.|.|.|.|.|.|.|.|.|.|.|.|.|.|.|.|.|.|.|.|.|.|.|.|.|.|.|.|.|.|.|.|.|.|.|.|.|.|.|.|.|.|.",
"|.|.|.|.|.|.|.|.|.|.|.|.|.|.|.|.|.|.|.|.|.|.|.|.|.|.|.|.|.|.|.|.|.|.|.|.|.|.|.|.|.|.|.|.|.|.|.|.|.|.",
"|.|.|.|.|.|.|.|.|.|.|.|.|.|.|.|.|.|.|.|.|.|.|.|.|.|.|.|.|.|.|.|.|.|.|.|.|.|.|.|.|.|.|.|.|.|.|.|.|.|.",
"|.|.|.|.|.|.|.|.|.|.|.|.|.|.|.|.|.|.|.|.|.|.|.|.|.|.|.|.|.|.|.|.|.|.|.|.|.|.|.|.|.|.|.|.|.|.|.|.|.|.",
"|.|.|.|.|.|.|.|.|.|.|.|.|.|.|.|.|.|.|.|.|.|.|.|.|.|.|.|.|.|.|.|.|.|.|.|.|.|.|.|.|.|.|.|.|.|.|.|.|.|.",
"|.|.|.|.|.|.|.|.|.|.|.|.|.|.|.|.|.|.|.|.|.|.|.|.|.|.|.|.|.|.|.|.|.|.|.|.|.|.|.|.|.|.|.|.|.|.|.|.|.|.",
"|.|.|.|.|.|.|.|.|.|.|.|.|.|.|.|.|.|.|.|.|.|.|.|.|.|.|.|.|.|.|.|.|.|.|.|.|.|.|.|.|.|.|.|.|.|.|.|.|.|.",
"|.|.|.|.|.|.|.|.|.|.|.|.|.|.|.|.|.|.|.|.|.|.|.|.|.|.|.|.|.|.|.|.|.|.|.|.|.|.|.|.|.|.|.|.|.|.|.|.|.|.",
"|.|.|.|.|.|.|.|.|.|.|.|.|.|.|.|.|.|.|.|.|.|.|.|.|.|.|.|.|.|.|.|.|.|.|.|.|.|.|.|.|.|.|.|.|.|.|.|.|.|.",
"|.|.|.|.|.|.|.|.|.|.|.|.|.|.|.|.|.|.|.|.|.|.|.|.|.|.|.|.|.|.|.|.|.|.|.|.|.|.|.|.|.|.|.|.|.|.|.|.|.|.",
"|.|.|.|.|.|.|.|.|.|.|.|.|.|.|.|.|.|.|.|.|.|.|.|.|.|.|.|.|.|.|.|.|.|.|.|.|.|.|.|.|.|.|.|.|.|.|.|.|.|.",
"|.|.|.|.|.|.|.|.|.|.|.|.|.|.|.|.|.|.|.|.|.|.|.|.|.|.|.|.|.|.|.|.|.|.|.|.|.|.|.|.|.|.|.|.|.|.|.|.|.|.",
"|.|.|.|.|.|.|.|.|.|.|.|.|.|.|.|.|.|.|.|.|.|.|.|.|.|.|.|.|.|.|.|.|.|.|.|.|.|.|.|.|.|.|.|.|.|.|.|.|.|.",
"|.|.|.|.|.|.|.|.|.|.|.|.|.|.|.|.|.|.|.|.|.|.|.|.|.|.|.|.|.|.|.|.|.|.|.|.|.|.|.|.|.|.|.|.|.|.|.|.|.|.",
"|.|.|.|.|.|.|.|.|.|.|.|.|.|.|.|.|.|.|.|.|.|.|.|.|.|.|.|.|.|.|.|.|.|.|.|.|.|.|.|.|.|.|.|.|.|.|.|.|.|.",
"|.|.|.|.|.|.|.|.|.|.|.|.|.|.|.|.|.|.|.l N N  . . . .|.|.|.|.|.|.|.|.|.|.|.|.|.|.|.|.|.|.|.|.|.|.|.|.",
"|.|.|.|.|.|.|.|.|.|.|.|.|.|.|.|.$.2.v.D.G.T.F.F.F.G.G.F.F.G.F.q.|.|.|.|.|.|.|.|.|.|.|.|.|.|.|.|.|.|.",
"|.|.|.|.|.|.|.|.|.|.|.|.|.|.X.#.W.E.E.E.R.R.R.R.R.R.R.R.R.R.R.R.4.N |.|.|.|.|.|.|.|.|.|.|.|.|.|.|.|.",
"|.|.|.|.|.|.|.|.|.|.|.|.|.w.9.w.E.]._.).).(.(.(.(.(.(.(.(.).).).t.F X.|.|.|.|.|.|.|.|.|.|.|.|.|.|.|.",
"|.|.|.|.|.|.|.|.|.|.|.|.9.9.5.-.o.>.t.P.I.I./././.].].].'.'.U.O.T E ..X.|.|.|.|.|.|.|.|.|.|.|.|.|.|.",
"|.|.|.|.|.|.|.|.|.|.|.|.5.o.W T C v j Y Y R R R R Y Z x 7 = j m Z D E E X.|.|.|.|.|.|.|.|.|.|.|.|.|.",
"|.|.|.|.|.|.|.|.|.|.|.o.T v v d u i V 1.1.6.6.4.2.2.,.*.&.G j j v C Z F ..X.|.|.|.|.|.|.|.|.|.|.|.|.",
"|.|.|.|.|.|.|.|.|.|.T v i y e w w u &.B.V.A.G.F.T.G.A.B.N.w.,.g g x c D E ..X.|.|.|.|.|.|.|.|.|.|.|.",
"|.|.|.|.|.|.|.|.|.v d y w w w e u g j.S.G.F.R.E.E.R.G.G.S.S.B.j u i z c D E X.|.|.|.|.|.|.|.|.|.|.|.",
"|.|.|.|.|.|.|.|.|.1 8 y e e p f j A Z.S.G.R.E.~.~.E.T.G.S.A.N.*.C y u z c B 0 |.|.|.|.|.|.|.|.|.|.|.",
"|.|.|.|.|.|.|.|.|.|.  o > r j j m @.J.Z.G.R.E.~.~.E.T.G.S.N.9.u.m.O.z 7 > # |.|.|.|.|.|.|.|.|.|.|.|.",
"|.|.|.|.|.|.|.|.|.|.|.  . X : s m p.K.x.k.k.b.n.n.b.q.6.,.=.;.;.M.+.1 & + |.|.|.|.|.|.|.|.|.|.|.|.|.",
"|.|.|.|.|.|.|.|.|.|.|.|.  . O : b t q <.r.r.u.i.p.Q.L.K.J.g.h.a.9 < & # |.|.|.|.|.|.|.|.|.|.|.|.|.|.",
"|.|.|.|.|.|.|.|.|.|.|.|.|.  . @ : H 4 b n n L U ~ c.h.| [ [ s.M 2 & + |.|.|.|.|.|.|.|.|.|.|.|.|.|.|.",
"|.|.|.|.|.|.|.|.|.|.|.|.|.|.  X $ < a a J n K U / c.a.} ( } ] 3 * # |.|.|.|.|.|.|.|.|.|.|.|.|.|.|.|.",
"|.|.|.|.|.|.|.|.|.|.|.|.|.|.|.  o % 4 4 P M P ! u.z.d._ _ | 9 - $ |.|.|.|.|.|.|.|.|.|.|.|.|.|.|.|.|.",
"|.|.|.|.|.|.|.|.|.|.|.|.|.|.|.|.  + * 4 s ! Q / z.g.{ ) } I : $ |.|.|.|.|.|.|.|.|.|.|.|.|.|.|.|.|.|.",
"|.|.|.|.|.|.|.|.|.|.|.|.|.|.|.|.|.X @ ; 8 ^ :.u.M.C.y.0./ 2 # |.|.|.|.|.|.|.|.|.|.|.|.|.|.|.|.|.|.|.",
"|.|.|.|.|.|.|.|.|.|.|.|.|.|.|.|.|.|.o % < R l.M.^.L.N.f.b - |.|.|.|.|.|.|.|.|.|.|.|.|.|.|.|.|.|.|.|.",
"|.|.|.|.|.|.|.|.|.|.|.|.|.|.|.|.|.|.|.+ & q M.`._.`.!./ : |.|.|.|.|.|.|.|.|.|.|.|.|.|.|.|.|.|.|.|.|.",
"|.|.|.|.|.|.|.|.|.|.|.|.|.|.|.|.|.|.|.|.|., %.[.[.].^.6 |.|.|.|.|.|.|.|.|.|.|.|.|.|.|.|.|.|.|.|.|.|.",
"|.|.|.|.|.|.|.|.|.|.|.|.|.|.|.|.|.|.|.|.|.|.0 /.}.{. .|.|.|.|.|.|.|.|.|.|.|.|.|.|.|.|.|.|.|.|.|.|.|.",
"|.|.|.|.|.|.|.|.|.|.|.|.|.|.|.|.|.|.|.|.|.|.|.3.}.I.|.|.|.|.|.|.|.|.|.|.|.|.|.|.|.|.|.|.|.|.|.|.|.|.",
"|.|.|.|.|.|.|.|.|.|.|.|.|.|.|.|.|.|.|.|.|.|.|.|./.|.|.|.|.|.|.|.|.|.|.|.|.|.|.|.|.|.|.|.|.|.|.|.|.|.",
"|.|.|.|.|.|.|.|.|.|.|.|.|.|.|.|.|.|.|.|.|.|.|.|.|.|.|.|.|.|.|.|.|.|.|.|.|.|.|.|.|.|.|.|.|.|.|.|.|.|.",
"|.|.|.|.|.|.|.|.|.|.|.|.|.|.|.|.|.|.|.|.|.|.|.|.|.|.|.|.|.|.|.|.|.|.|.|.|.|.|.|.|.|.|.|.|.|.|.|.|.|.",
"|.|.|.|.|.|.|.|.|.|.|.|.|.|.|.|.|.|.|.|.|.|.|.|.|.|.|.|.|.|.|.|.|.|.|.|.|.|.|.|.|.|.|.|.|.|.|.|.|.|.",
"|.|.|.|.|.|.|.|.|.|.|.|.|.|.|.|.|.|.|.|.|.|.|.|.|.|.|.|.|.|.|.|.|.|.|.|.|.|.|.|.|.|.|.|.|.|.|.|.|.|.",
"|.|.|.|.|.|.|.|.|.|.|.|.|.|.|.|.|.|.|.|.|.|.|.|.|.|.|.|.|.|.|.|.|.|.|.|.|.|.|.|.|.|.|.|.|.|.|.|.|.|.",
"|.|.|.|.|.|.|.|.|.|.|.|.|.|.|.|.|.|.|.|.|.|.|.|.|.|.|.|.|.|.|.|.|.|.|.|.|.|.|.|.|.|.|.|.|.|.|.|.|.|.",
"|.|.|.|.|.|.|.|.|.|.|.|.|.|.|.|.|.|.|.|.|.|.|.|.|.|.|.|.|.|.|.|.|.|.|.|.|.|.|.|.|.|.|.|.|.|.|.|.|.|.",
"|.|.|.|.|.|.|.|.|.|.|.|.|.|.|.|.|.|.|.|.|.|.|.|.|.|.|.|.|.|.|.|.|.|.|.|.|.|.|.|.|.|.|.|.|.|.|.|.|.|.",
"|.|.|.|.|.|.|.|.|.|.|.|.|.|.|.|.|.|.|.|.|.|.|.|.|.|.|.|.|.|.|.|.|.|.|.|.|.|.|.|.|.|.|.|.|.|.|.|.|.|.",
"|.|.|.|.|.|.|.|.|.|.|.|.|.|.|.|.|.|.|.|.|.|.|.|.|.|.|.|.|.|.|.|.|.|.|.|.|.|.|.|.|.|.|.|.|.|.|.|.|.|.",
"|.|.|.|.|.|.|.|.|.|.|.|.|.|.|.|.|.|.|.|.|.|.|.|.|.|.|.|.|.|.|.|.|.|.|.|.|.|.|.|.|.|.|.|.|.|.|.|.|.|."
};
