/* XPM */
static char * window_xpm[] = {
"64 64 45 1",
" 	c #565C68",
".	c #595F6B",
"+	c #575D69",
"@	c #6B747D",
"#	c #656D80",
"$	c #6A747C",
"%	c #666F7F",
"&	c #626A82",
"*	c #585E6B",
"=	c #636B78",
"-	c #636B75",
";	c #636B76",
">	c #585E6A",
",	c #636B79",
"'	c #656D77",
")	c #666F7E",
"!	c #69737C",
"~	c #6A737C",
"{	c #646D76",
"]	c #68717D",
"^	c #656E77",
"/	c #646C76",
"(	c #677079",
"_	c #656E7D",
":	c #666F78",
"<	c #575E69",
"[	c #67707D",
"}	c #6B757D",
"|	c #69737D",
"1	c #656D7A",
"2	c #6A747D",
"3	c #636B77",
"4	c #565D68",
"5	c #69727B",
"6	c #666E78",
"7	c #656D7D",
"8	c #646C7D",
"9	c #636B80",
"0	c #646C7C",
"a	c #636B7A",
"b	c #656E80",
"c	c #626A7C",
"d	c #5A616C",
"e	c #69737B",
"f	c #646C81",
" ..............+ ..............+ ..............+ ..............+",
" @#@@@@@@@@@@#$  @#@@@@@@@@@@#$  @#@@@@@@@@@@#$  @#@@@@@@@@@@#$ ",
" @ ....#%...& @  @ ....#%...& @  @ ....#%...& @  @ ....#%...& @ ",
" @*=--=;---=->@  @*=--=;---=->@  @*=--=;---=->@  @*=--=;---=->@ ",
" @+,$')!@~{]-+@  @+,$')!@~{]-+@  @+,$')!@~{]-+@  @+,$')!@~{]-+@ ",
" @ =^$^-/(_:-<@  @ =^$^-/(_:-<@  @ =^$^-/(_:-<@  @ =^$^-/(_:-<@ ",
" @ -[{$}$|1$-+@  @ -[{$}$|1$-+@  @ -[{$}$|1$-+@  @ -[{$}$|1$-+@ ",
" @ -~-2@2$3}{.}  @ -~-2@2$3}{.}  @ -~-2@2$3}{.}  @ -~-2@2$3}{.} ",
" @ -$/$$2$:}-.@  @ -$/$$2$:}-.@  @ -$/$$2$:}-.@  @ -$/$$2$:}-.@ ",
" @4-2{5$}}^}-.@  @4-2{5$}}^}-.@  @4-2{5$}}^}-.@  @4-2{5$}}^}-.@ ",
" @ -^$(6-^!7-.@  @ -^$(6-^!7-.@  @ -^$(6-^!7-.@  @ -^$(6-^!7-.@ ",
" @ -2^2[}}^}89@  @ -2^2[}}^}89@  @ -2^2[}}^}89@  @ -2^2[}}^}89@ ",
" ( -0-;a-----.b  ( -0-;a-----.b  ( -0-;a-----.b  ( -0-;a-----.b ",
" c+#>d+      >#  c+#>d+      >#  c+#>d+      >#  c+#>d+      ># ",
" ef~@@@@@@@@@@@  ef~@@@@@@@@@@@  ef~@@@@@@@@@@@  ef~@@@@@@@@@@@ ",
"                                                                ",
" ..............+ ..............+ ..............+ ..............+",
" @#@@@@@@@@@@#$  @#@@@@@@@@@@#$  @#@@@@@@@@@@#$  @#@@@@@@@@@@#$ ",
" @ ....#%...& @  @ ....#%...& @  @ ....#%...& @  @ ....#%...& @ ",
" @*=--=;---=->@  @*=--=;---=->@  @*=--=;---=->@  @*=--=;---=->@ ",
" @+,$')!@~{]-+@  @+,$')!@~{]-+@  @+,$')!@~{]-+@  @+,$')!@~{]-+@ ",
" @ =^$^-/(_:-<@  @ =^$^-/(_:-<@  @ =^$^-/(_:-<@  @ =^$^-/(_:-<@ ",
" @ -[{$}$|1$-+@  @ -[{$}$|1$-+@  @ -[{$}$|1$-+@  @ -[{$}$|1$-+@ ",
" @ -~-2@2$3}{.}  @ -~-2@2$3}{.}  @ -~-2@2$3}{.}  @ -~-2@2$3}{.} ",
" @ -$/$$2$:}-.@  @ -$/$$2$:}-.@  @ -$/$$2$:}-.@  @ -$/$$2$:}-.@ ",
" @4-2{5$}}^}-.@  @4-2{5$}}^}-.@  @4-2{5$}}^}-.@  @4-2{5$}}^}-.@ ",
" @ -^$(6-^!7-.@  @ -^$(6-^!7-.@  @ -^$(6-^!7-.@  @ -^$(6-^!7-.@ ",
" @ -2^2[}}^}89@  @ -2^2[}}^}89@  @ -2^2[}}^}89@  @ -2^2[}}^}89@ ",
" ( -0-;a-----.b  ( -0-;a-----.b  ( -0-;a-----.b  ( -0-;a-----.b ",
" c+#>d+      >#  c+#>d+      >#  c+#>d+      >#  c+#>d+      ># ",
" ef~@@@@@@@@@@@  ef~@@@@@@@@@@@  ef~@@@@@@@@@@@  ef~@@@@@@@@@@@ ",
"                                                                ",
" ..............+ ..............+ ..............+ ..............+",
" @#@@@@@@@@@@#$  @#@@@@@@@@@@#$  @#@@@@@@@@@@#$  @#@@@@@@@@@@#$ ",
" @ ....#%...& @  @ ....#%...& @  @ ....#%...& @  @ ....#%...& @ ",
" @*=--=;---=->@  @*=--=;---=->@  @*=--=;---=->@  @*=--=;---=->@ ",
" @+,$')!@~{]-+@  @+,$')!@~{]-+@  @+,$')!@~{]-+@  @+,$')!@~{]-+@ ",
" @ =^$^-/(_:-<@  @ =^$^-/(_:-<@  @ =^$^-/(_:-<@  @ =^$^-/(_:-<@ ",
" @ -[{$}$|1$-+@  @ -[{$}$|1$-+@  @ -[{$}$|1$-+@  @ -[{$}$|1$-+@ ",
" @ -~-2@2$3}{.}  @ -~-2@2$3}{.}  @ -~-2@2$3}{.}  @ -~-2@2$3}{.} ",
" @ -$/$$2$:}-.@  @ -$/$$2$:}-.@  @ -$/$$2$:}-.@  @ -$/$$2$:}-.@ ",
" @4-2{5$}}^}-.@  @4-2{5$}}^}-.@  @4-2{5$}}^}-.@  @4-2{5$}}^}-.@ ",
" @ -^$(6-^!7-.@  @ -^$(6-^!7-.@  @ -^$(6-^!7-.@  @ -^$(6-^!7-.@ ",
" @ -2^2[}}^}89@  @ -2^2[}}^}89@  @ -2^2[}}^}89@  @ -2^2[}}^}89@ ",
" ( -0-;a-----.b  ( -0-;a-----.b  ( -0-;a-----.b  ( -0-;a-----.b ",
" c+#>d+      >#  c+#>d+      >#  c+#>d+      >#  c+#>d+      ># ",
" ef~@@@@@@@@@@@  ef~@@@@@@@@@@@  ef~@@@@@@@@@@@  ef~@@@@@@@@@@@ ",
"                                                                ",
" ..............+ ..............+ ..............+ ..............+",
" @#@@@@@@@@@@#$  @#@@@@@@@@@@#$  @#@@@@@@@@@@#$  @#@@@@@@@@@@#$ ",
" @ ....#%...& @  @ ....#%...& @  @ ....#%...& @  @ ....#%...& @ ",
" @*=--=;---=->@  @*=--=;---=->@  @*=--=;---=->@  @*=--=;---=->@ ",
" @+,$')!@~{]-+@  @+,$')!@~{]-+@  @+,$')!@~{]-+@  @+,$')!@~{]-+@ ",
" @ =^$^-/(_:-<@  @ =^$^-/(_:-<@  @ =^$^-/(_:-<@  @ =^$^-/(_:-<@ ",
" @ -[{$}$|1$-+@  @ -[{$}$|1$-+@  @ -[{$}$|1$-+@  @ -[{$}$|1$-+@ ",
" @ -~-2@2$3}{.}  @ -~-2@2$3}{.}  @ -~-2@2$3}{.}  @ -~-2@2$3}{.} ",
" @ -$/$$2$:}-.@  @ -$/$$2$:}-.@  @ -$/$$2$:}-.@  @ -$/$$2$:}-.@ ",
" @4-2{5$}}^}-.@  @4-2{5$}}^}-.@  @4-2{5$}}^}-.@  @4-2{5$}}^}-.@ ",
" @ -^$(6-^!7-.@  @ -^$(6-^!7-.@  @ -^$(6-^!7-.@  @ -^$(6-^!7-.@ ",
" @ -2^2[}}^}89@  @ -2^2[}}^}89@  @ -2^2[}}^}89@  @ -2^2[}}^}89@ ",
" ( -0-;a-----.b  ( -0-;a-----.b  ( -0-;a-----.b  ( -0-;a-----.b ",
" c+#>d+      >#  c+#>d+      >#  c+#>d+      >#  c+#>d+      ># ",
" ef~@@@@@@@@@@@  ef~@@@@@@@@@@@  ef~@@@@@@@@@@@  ef~@@@@@@@@@@@ ",
"                                                                "};
