/* XPM */
static char *house_close[] = {
/* columns rows colors chars-per-pixel */
"50 50 137 2 ",
"   c #1F1A1A",
".  c #241E1D",
"X  c #281F1F",
"o  c #26201F",
"O  c #29211F",
"+  c #2B2322",
"@  c #2F2824",
"#  c #302624",
"$  c #322C26",
"%  c #3A2927",
"&  c #332E2C",
"*  c #3C2B28",
"=  c #353127",
"-  c #3C3329",
";  c #3C392B",
":  c #393937",
">  c #3B3B39",
",  c #443329",
"<  c #4C352B",
"1  c #47382B",
"2  c #4E3C2C",
"3  c #53332C",
"4  c #5A352D",
"5  c #513B2C",
"6  c #593E2C",
"7  c #62372F",
"8  c #63382F",
"9  c #673830",
"0  c #6F3B32",
"q  c #743D32",
"w  c #793E33",
"e  c #3F412B",
"r  c #44442E",
"t  c #474D2F",
"y  c #55432D",
"u  c #5C442D",
"i  c #5F492C",
"p  c #4A4D30",
"a  c #5E4830",
"s  c #4C5530",
"d  c #4E5A30",
"f  c #505433",
"g  c #525A33",
"h  c #624B2D",
"j  c #6D522E",
"k  c #71552E",
"l  c #75592F",
"z  c #624B31",
"x  c #7A4033",
"c  c #6C5334",
"v  c #546432",
"b  c #596D33",
"n  c #5E6738",
"m  c #5B7134",
"M  c #7F6038",
"N  c #617B35",
"B  c #67733C",
"V  c #6B793D",
"C  c #434C49",
"Z  c #4E5C55",
"A  c #516662",
"S  c #556D69",
"D  c #58726D",
"F  c #5B7771",
"G  c #5E7B75",
"H  c #844235",
"J  c #8A4336",
"K  c #964739",
"L  c #984739",
"P  c #A34B3B",
"I  c #AB4D3C",
"U  c #B5503E",
"Y  c #BB523F",
"T  c #856532",
"R  c #8D6B31",
"E  c #83623A",
"W  c #88673A",
"Q  c #8B693C",
"!  c #926E32",
"~  c #906C3D",
"^  c #977233",
"/  c #9B7433",
"(  c #9F7834",
")  c #97713F",
"_  c #A27A34",
"`  c #AA7F35",
"'  c #BF5340",
"]  c #9B7540",
"[  c #A37A41",
"{  c #AA7F44",
"}  c #C55541",
"|  c #D45944",
" . c #DA5B45",
".. c #E55E47",
"X. c #678637",
"o. c #7A8D43",
"O. c #7F9345",
"+. c #62847C",
"@. c #AB8035",
"#. c #B38535",
"$. c #B68837",
"%. c #BC8D37",
"&. c #C08F37",
"*. c #C29137",
"=. c #C59238",
"-. c #C99538",
";. c #CE9939",
":. c #D39C39",
">. c #D7A039",
",. c #DDA33A",
"<. c #E1A63A",
"1. c #E6AB3B",
"2. c #EBAE3C",
"3. c #EEB03C",
"4. c #F4B43C",
"5. c #FDBB3D",
"6. c #829746",
"7. c #849A47",
"8. c #869C48",
"9. c #889F49",
"0. c #AE8246",
"q. c #B58848",
"w. c #BE8E4A",
"e. c #89A049",
"r. c #C5934C",
"t. c #CA974E",
"y. c #CC984F",
"u. c #648882",
"i. c #69918A",
"p. c #80BCB3",
"a. c #84C3BA",
"s. c #87C8C0",
"d. c #8ACDC4",
"f. c #8CD0C7",
"g. c #8CD1C8",
"h. c #489848",
"i. c #FFFFFF",
/* pixels */
"h.h.h.h.h.h.h.h.h.h.h.h.h.h.h.h.h.h.h.h.h.h.h.h.h.h.h.h.h.h.h.h.h.h.h.h.h.h.h.h.h.h.h.h.h.h.h.h.h.h.",
"h.h.h.h.h.h.h.h.h.h.h.h.h.h.h.h.h.h.h.h.h.h.h.h.h.h.h.h.h.h.h.h.h.h.h.h.h.h.h.h.h.h.h.h.h.h.h.h.h.h.",
"h.h.h.h.h.h.h.h.h.h.h.h.h.h.h.h.h.h.h.h.h.h.h.h.h.h.h.h.h.h.h.h.h.h.h.h.h.h.h.h.h.h.h.h.h.h.h.h.h.h.",
"h.h.h.h.h.h.h.h.h.h.h.h.h.h.h.h.h.h.h.h.h.h.h.h.h.h.h.h.h.h.h.h.h.h.h.h.h.h.h.h.h.h.h.h.h.h.h.h.h.h.",
"h.h.h.h.h.h.h.h.h.h.h.h.h.h.h.h.h.h.h.h.h.h.h.h.h.h.h.h.h.h.h.h.h.h.h.h.h.h.h.h.h.h.h.h.h.h.h.h.h.h.",
"h.h.h.h.h.h.h.h.h.h.h.h.h.h.h.h.h.h.h.h.h.h.h.h.h.h.h.h.h.h.h.    .   O + X h.h.h.h.h.h.h.h.h.h.h.h.",
"h.h.h.h.h.h.h.h.h.h.h.h.h.h.h.h.h.h.h.h.h.h.h.h.h.h.h.h.h.h.h.) t.y.t.y.t.Q h.h.h.h.h.h.h.h.h.h.h.h.",
"h.h.h.h.h.h.h.h.h.h.h.h.h.h.h.h.h.h.h.h.h.h.h.. % % . h.h.h.h.Q y.y.y.y.y.Q h.h.h.h.h.h.h.h.h.h.h.h.",
"h.h.h.h.h.h.h.h.h.h.h.h.h.h.h.h.h.h.h.h.h.X w ........x + h.h.h.a M c y - o h.h.h.h.h.h.h.h.h.h.h.h.",
"h.h.h.h.h.h.h.h.h.h.h.h.h.h.h.h.h.h.h.h.7 .............. .7 h.h.Q y.y.y.2 h.h.h.h.h.h.h.h.h.h.h.h.h.",
"h.h.h.h.h.h.h.h.h.h.h.h.h.h.h.h.h.h.* } ....................} * E y.y.y.y h.h.h.h.h.h.h.h.h.h.h.h.h.",
"h.h.h.h.h.h.h.h.h.h.h.h.h.h.h.h.. L ............................L c y.t.a h.h.h.h.h.h.h.h.h.h.h.h.h.",
"h.h.h.h.h.h.h.h.h.h.h.h.h.h.h.<  .............U 4 4 U ............ .3 { z h.h.h.h.h.h.h.h.h.h.h.h.h.",
"h.h.h.h.h.h.h.h.h.h.h.h.h.$ } ............ ., =.5.5.-.,  .............} * h.h.h.h.h.h.h.h.h.h.h.h.h.",
"h.h.h.h.h.h.h.h.h.h.h.h.H ..............J l 5.5.5.5.5.5.k J ..............H h.h.h.h.h.h.h.h.h.h.h.h.",
"h.h.h.h.h.h.h.h.h.h.* | .............., :.5.5.5.5.5.5.5.5.,.,  .............| * h.h.h.h.h.h.h.h.h.h.",
"h.h.h.h.h.h.h.h.h.K ..............P h 5.5.5.5.5.5.5.5.5.5.5.5.h L ..............L h.h.h.h.h.h.h.h.h.",
"h.h.h.h.h.h.h.*  ...............3 &.5.5.5.5.5.5.5.5.5.5.5.5.5.5.=.3 .............. .* h.h.h.h.h.h.h.",
"h.h.h.h.h.h.9 ..............I i 4.5.5.5.5.5.5.5.5.5.5.5.5.5.5.5.5.5.i I ..............9 h.h.h.h.h.h.",
"h.h.h.h.h.q ..............4 -.5.5.5.5.5.5.5.5.5.5.5.5.5.5.5.5.5.5.5.5.-.4 ..............q h.h.h.h.h.",
"h.h.h.h.O ............' h 5.5.5.5.5.5.5.5.5.5.5.5.5.5.5.5.5.5.5.5.5.5.5.5.i ' ............X h.h.h.h.",
"h.h.h.h.# ..........q %.5.5.5.5.5.5.5.5.5.5.5.5.5.5.5.5.5.5.5.5.5.5.5.5.5.5.$.w ..........# h.h.h.h.",
"h.h.h.h.h.I ....| 5 5.5.5.5.5.1.&.( R / :.5.5.5.5.5.5.5.5.5.5.5.5.5.5.5.5.5.5.5.6 | ....I h.h.h.h.h.",
"h.h.h.h.h.h.+ + + 5.5.5.5.^ u.a.d.C f.d.a.Z 4.5.5.5.5.5.5.5.5.5.5.5.5.5.5.5.5.5.5.+ + + h.h.h.h.h.h.",
"h.h.h.h.h.h.h.h.+ 4.5.5.2.i.g.g.g.> g.g.g.d.#.5.5.5.5.5.5.5.5.5.5.5.5.5.5.5.5.5.4.. h.h.h.h.h.h.h.h.",
"h.h.h.h.h.h.h.h.o 4.5.5.#.s.g.g.g.> g.g.g.d.T 5.5.5.5.5.5.5.5.5.5.5.5.5.5.5.5.5.4.+ h.h.h.h.h.h.h.h.",
"h.h.h.h.h.h.h.h.. 3.5.5.@.F S A A & D G +.i.T 5.5.5.5.5.5.5.5.5.5.5.5.5.5.5.5.5.4.o h.h.h.h.h.h.h.h.",
"h.h.h.h.h.h.h.h.+ 4.5.5.$.d.g.g.g.> d.d.s.s.( 5.5.5.5.5.-.1 c a , $.5.5.5.5.5.5.4.o h.h.h.h.h.h.h.h.",
"h.h.h.h.h.h.h.h.. 3.5.5.%.d.g.g.g.> f.g.g.d.$.5.5.5.5.-.W i.i.i.i.[ l 5.5.5.5.5.3.. h.h.h.h.h.h.h.h.",
"h.h.h.h.h.h.h.h.. 3.5.5.>.s.f.f.f.: d.d.g.p.:.5.5.5.5.2 i.i.i.i.i.i.E 3.5.5.5.5.3.. h.h.h.h.h.h.h.h.",
"h.h.h.h.h.h.h.h.. 2.5.5.u 9 w w q 0 w w q H , 5.5.5.5.Q i.i.i.i.i.i.r._ 5.5.5.5.2.. h.h.h.h.h.h.h.h.",
"h.h.h.h.h.h.h.h.+ 3.5.:.| ..................P 5.5.5.4.] i.i.i.i.i.i.t.! 5.5.5.5.2.+ h.h.h.h.h.h.h.h.",
"h.h.h.h.h.h.h.e t 2.5.5.j 2 2 < < 2 5 6 u k %.5.5.5.4.) i.i.i.i.i.i.t.! 5.5.5.5.2.s e h.h.h.h.h.h.h.",
"h.h.h.h.h.h.- X.s 2.5.5.5.5.5.5.5.5.5.5.5.5.5.5.5.5.4._ i.i.i.i.i.i.t.! 5.5.5.5.1.s X.; h.h.h.h.h.h.",
"h.h.h.h.h.. N X.d 1.5.5.5.5.5.5.5.5.5.5.5.5.5.5.5.5.3.[ i.i.i.i.i.i w.( 5.5.5.5.1.s X.m o h.h.h.h.h.",
"h.h.h.h.h.+ X.X.v ,.5.5.5.5.5.5.5.5.5.5.5.5.5.5.5.5.3.{ i.i.i.i.i.i.E ` 5.5.5.5.,.v X.X.+ h.h.h.h.h.",
"h.h.h.h.$ d v X.m *.5.5.5.5.5.5.5.<.#.:.5.5.5.5.5.5.1.{ i.i.i.i.i.i w.$.5.5.5.5.=.m X.b d $ h.h.h.h.",
"h.h.h.h.N X.v X.N ! 5.5.5.5.5.5.2 n o.V - 4.5.5.5.5.1.q.i.i.i.i.i.i.w.=.5.5.5.5.R N X.d X.N h.h.h.h.",
"h.h.h.+ X.X.X.X.X., 5.5.5.5.5.j o.9.e.e.8.- 5.5.5.5.1.w.i.i.i.i.i.i.w.;.5.5.5.5.- X.X.X.X.X.+ h.h.h.",
"h.h.h.o N X.X.X.X.b ! 5.5.5.5.; e.e.e.e.e.g 2.5.5.5.<.w.i.i.i.i.i.i.r.,.5.5.5.! m X.X.X.X.X.o h.h.h.",
"h.h.h.h.# = = $ = $ @ # y - - g e.e.e.e.e.B , , , , , ; , , 1 2 2 y a h h y $ @ $ $ = = = @ h.h.h.h.",
"h.h.h.h.h.h.h.h.h.h.h.h.# e.e.t e.e.e.e.e.r p g + h.h.h.h.h.h.h.h.h.h.h.h.h.h.h.h.h.h.h.h.h.h.h.h.h.",
"h.h.h.h.h.h.h.h.h.h.h.h.g e.e.e.e.e.e.e.e.O.e.e.s h.h.h.h.h.h.h.h.h.h.h.h.h.h.h.h.h.h.h.h.h.h.h.h.h.",
"h.h.h.h.h.h.h.h.h.h.h.h.s 6.7.8.e.e.8.8.e.e.9.6.r h.h.h.h.h.h.h.h.h.h.h.h.h.h.h.h.h.h.h.h.h.h.h.h.h.",
"h.h.h.h.h.h.h.h.h.h.h.h.h.h.h.h.h.h.. + . + . h.h.h.h.h.h.h.h.h.h.h.h.h.h.h.h.h.h.h.h.h.h.h.h.h.h.h.",
"h.h.h.h.h.h.h.h.h.h.h.h.h.h.h.h.h.h.h.h.h.h.h.h.h.h.h.h.h.h.h.h.h.h.h.h.h.h.h.h.h.h.h.h.h.h.h.h.h.h.",
"h.h.h.h.h.h.h.h.h.h.h.h.h.h.h.h.h.h.h.h.h.h.h.h.h.h.h.h.h.h.h.h.h.h.h.h.h.h.h.h.h.h.h.h.h.h.h.h.h.h.",
"h.h.h.h.h.h.h.h.h.h.h.h.h.h.h.h.h.h.h.h.h.h.h.h.h.h.h.h.h.h.h.h.h.h.h.h.h.h.h.h.h.h.h.h.h.h.h.h.h.h.",
"h.h.h.h.h.h.h.h.h.h.h.h.h.h.h.h.h.h.h.h.h.h.h.h.h.h.h.h.h.h.h.h.h.h.h.h.h.h.h.h.h.h.h.h.h.h.h.h.h.h.",
"h.h.h.h.h.h.h.h.h.h.h.h.h.h.h.h.h.h.h.h.h.h.h.h.h.h.h.h.h.h.h.h.h.h.h.h.h.h.h.h.h.h.h.h.h.h.h.h.h.h."
};
