/* XPM */
static char * left_xpm[] = {
"64 64 85 1",
" 	c #F5DB87",
".	c #4C4D4B",
"+	c #595B59",
"@	c #535452",
"#	c #8D732C",
"$	c #515550",
"%	c #555654",
"&	c #585957",
"*	c #616260",
"=	c #515250",
"-	c #4F504E",
";	c #555754",
">	c #525551",
",	c #4D4E4C",
"'	c #F2D173",
")	c #4C4E4C",
"!	c #4E4F4D",
"~	c #525451",
"{	c #AC8C32",
"]	c #454944",
"^	c #525351",
"/	c #565755",
"(	c #50514F",
"_	c #4A4B49",
":	c #626361",
"<	c #535552",
"[	c #525552",
"}	c #585A58",
"|	c #F2CF6F",
"1	c #4D4F4D",
"2	c #535551",
"3	c #A58631",
"4	c #585B57",
"5	c #545654",
"6	c #535553",
"7	c #F2CD6A",
"8	c #4A4C4A",
"9	c #4B4C4A",
"0	c #9A7E2F",
"a	c #51524F",
"b	c #515351",
"c	c #464745",
"d	c #F2CB65",
"e	c #40403E",
"f	c #4F514E",
"g	c #4A4B48",
"h	c #4E504E",
"i	c #50524F",
"j	c #484846",
"k	c #F2C85F",
"l	c #444543",
"m	c #434542",
"n	c #4E504D",
"o	c #F2C557",
"p	c #4F4F4D",
"q	c #484A47",
"r	c #4D4D4B",
"s	c #F2C14E",
"t	c #464846",
"u	c #505150",
"v	c #4E4E4C",
"w	c #494948",
"x	c #4A4A49",
"y	c #50504E",
"z	c #676967",
"A	c #515451",
"B	c #454744",
"C	c #4B4C49",
"D	c #505250",
"E	c #4B4D4A",
"F	c #565754",
"G	c #575957",
"H	c #4E4D4D",
"I	c #474846",
"J	c #626462",
"K	c #4C4C4A",
"L	c #4C4E4B",
"M	c #51514F",
"N	c #555755",
"O	c #494A48",
"P	c #545553",
"Q	c #484947",
"R	c #545452",
"S	c #545451",
"T	c #565856",
" .+@#$%&*=@@@-;>,.+@#$%&*=@@@-;>,.+@#$%&*=@@@-;>,.+@#$%&*=@@@-;>",
"')!~{]^/(_@@:<[<})!~{]^/(_@@:<[<})!~{]^/(_@@:<[<})!~{]^/(_@@:<[<",
"|1.2345@=@::6==(=1.2345@=@::6==(=1.2345@=@::6==(=1.2345@=@::6==(",
"789!0ab(b:@@!(((c89!0ab(b:@@!(((c89!0ab(b:@@!(((c89!0ab(b:@@!(((",
"de1f0g)h^:@(!i((je1f0g)h^:@(!i((je1f0g)h^:@(!i((je1f0g)h^:@(!i((",
"kl!=0m@@(@:@,^n(!l!=0m@@(@:@,^n(!l!=0m@@(@:@,^n(!l!=0m@@(@:@,^n(",
"o1.p3q%(@:@^(^!!r1.p3q%(@:@^(^!!r1.p3q%(@:@^(^!!r1.p3q%(@:@^(^!!",
"s###3{30003{30######3{30003{30######3{30003{30######3{30003{30##",
"stbuvwx@(6%3y=-!ztbuvwx@(6%3y=-!ztbuvwx@(6%3y=-!ztbuvwx@(6%3y=-!",
"o=ABC_^!@:D0E=!FG=ABC_^!@:D0E=!FG=ABC_^!@:D0E=!FG=ABC_^!@:D0E=!F",
"kD^_(==@:@(0H(I//D^_(==@:@(0H(I//D^_(==@:@(0H(I//D^_(==@:@(0H(I/",
"dD,^(@<<J@K#L=MyND,^(@<<J@K#L=MyND,^(@<<J@K#L=MyND,^(@<<J@K#L=My",
"7O!(@@J:@9,#=v@y/O!(@@J:@9,#=v@y/O!(@@J:@9,#=v@y/O!(@@J:@9,#=v@y",
"|/=P@:@@@Q(#aR@y//=P@:@@@Q(#aR@y//=P@:@@@Q(#aR@y//=P@:@@@Q(#aR@y",
"'//@!@=@((=#S@//T//@!@=@((=#S@//T//@!@=@((=#S@//T//@!@=@((=#S@//",
" ###############################################################",
" .+@#$%&*=@@@-;>,.+@#$%&*=@@@-;>,.+@#$%&*=@@@-;>,.+@#$%&*=@@@-;>",
"')!~{]^/(_@@:<[<})!~{]^/(_@@:<[<})!~{]^/(_@@:<[<})!~{]^/(_@@:<[<",
"|1.2345@=@::6==(=1.2345@=@::6==(=1.2345@=@::6==(=1.2345@=@::6==(",
"789!0ab(b:@@!(((c89!0ab(b:@@!(((c89!0ab(b:@@!(((c89!0ab(b:@@!(((",
"de1f0g)h^:@(!i((je1f0g)h^:@(!i((je1f0g)h^:@(!i((je1f0g)h^:@(!i((",
"kl!=0m@@(@:@,^n(!l!=0m@@(@:@,^n(!l!=0m@@(@:@,^n(!l!=0m@@(@:@,^n(",
"o1.p3q%(@:@^(^!!r1.p3q%(@:@^(^!!r1.p3q%(@:@^(^!!r1.p3q%(@:@^(^!!",
"s###3{30003{30######3{30003{30######3{30003{30######3{30003{30##",
"stbuvwx@(6%3y=-!ztbuvwx@(6%3y=-!ztbuvwx@(6%3y=-!ztbuvwx@(6%3y=-!",
"o=ABC_^!@:D0E=!FG=ABC_^!@:D0E=!FG=ABC_^!@:D0E=!FG=ABC_^!@:D0E=!F",
"kD^_(==@:@(0H(I//D^_(==@:@(0H(I//D^_(==@:@(0H(I//D^_(==@:@(0H(I/",
"dD,^(@<<J@K#L=MyND,^(@<<J@K#L=MyND,^(@<<J@K#L=MyND,^(@<<J@K#L=My",
"7O!(@@J:@9,#=v@y/O!(@@J:@9,#=v@y/O!(@@J:@9,#=v@y/O!(@@J:@9,#=v@y",
"|/=P@:@@@Q(#aR@y//=P@:@@@Q(#aR@y//=P@:@@@Q(#aR@y//=P@:@@@Q(#aR@y",
"'//@!@=@((=#S@//T//@!@=@((=#S@//T//@!@=@((=#S@//T//@!@=@((=#S@//",
" ###############################################################",
" .+@#$%&*=@@@-;>,.+@#$%&*=@@@-;>,.+@#$%&*=@@@-;>,.+@#$%&*=@@@-;>",
"')!~{]^/(_@@:<[<})!~{]^/(_@@:<[<})!~{]^/(_@@:<[<})!~{]^/(_@@:<[<",
"|1.2345@=@::6==(=1.2345@=@::6==(=1.2345@=@::6==(=1.2345@=@::6==(",
"789!0ab(b:@@!(((c89!0ab(b:@@!(((c89!0ab(b:@@!(((c89!0ab(b:@@!(((",
"de1f0g)h^:@(!i((je1f0g)h^:@(!i((je1f0g)h^:@(!i((je1f0g)h^:@(!i((",
"kl!=0m@@(@:@,^n(!l!=0m@@(@:@,^n(!l!=0m@@(@:@,^n(!l!=0m@@(@:@,^n(",
"o1.p3q%(@:@^(^!!r1.p3q%(@:@^(^!!r1.p3q%(@:@^(^!!r1.p3q%(@:@^(^!!",
"s###3{30003{30######3{30003{30######3{30003{30######3{30003{30##",
"stbuvwx@(6%3y=-!ztbuvwx@(6%3y=-!ztbuvwx@(6%3y=-!ztbuvwx@(6%3y=-!",
"o=ABC_^!@:D0E=!FG=ABC_^!@:D0E=!FG=ABC_^!@:D0E=!FG=ABC_^!@:D0E=!F",
"kD^_(==@:@(0H(I//D^_(==@:@(0H(I//D^_(==@:@(0H(I//D^_(==@:@(0H(I/",
"dD,^(@<<J@K#L=MyND,^(@<<J@K#L=MyND,^(@<<J@K#L=MyND,^(@<<J@K#L=My",
"7O!(@@J:@9,#=v@y/O!(@@J:@9,#=v@y/O!(@@J:@9,#=v@y/O!(@@J:@9,#=v@y",
"|/=P@:@@@Q(#aR@y//=P@:@@@Q(#aR@y//=P@:@@@Q(#aR@y//=P@:@@@Q(#aR@y",
"'//@!@=@((=#S@//T//@!@=@((=#S@//T//@!@=@((=#S@//T//@!@=@((=#S@//",
" ###############################################################",
" .+@#$%&*=@@@-;>,.+@#$%&*=@@@-;>,.+@#$%&*=@@@-;>,.+@#$%&*=@@@-;>",
"')!~{]^/(_@@:<[<})!~{]^/(_@@:<[<})!~{]^/(_@@:<[<})!~{]^/(_@@:<[<",
"|1.2345@=@::6==(=1.2345@=@::6==(=1.2345@=@::6==(=1.2345@=@::6==(",
"789!0ab(b:@@!(((c89!0ab(b:@@!(((c89!0ab(b:@@!(((c89!0ab(b:@@!(((",
"de1f0g)h^:@(!i((je1f0g)h^:@(!i((je1f0g)h^:@(!i((je1f0g)h^:@(!i((",
"kl!=0m@@(@:@,^n(!l!=0m@@(@:@,^n(!l!=0m@@(@:@,^n(!l!=0m@@(@:@,^n(",
"o1.p3q%(@:@^(^!!r1.p3q%(@:@^(^!!r1.p3q%(@:@^(^!!r1.p3q%(@:@^(^!!",
"s###3{30003{30######3{30003{30######3{30003{30######3{30003{30##",
"stbuvwx@(6%3y=-!ztbuvwx@(6%3y=-!ztbuvwx@(6%3y=-!ztbuvwx@(6%3y=-!",
"o=ABC_^!@:D0E=!FG=ABC_^!@:D0E=!FG=ABC_^!@:D0E=!FG=ABC_^!@:D0E=!F",
"kD^_(==@:@(0H(I//D^_(==@:@(0H(I//D^_(==@:@(0H(I//D^_(==@:@(0H(I/",
"dD,^(@<<J@K#L=MyND,^(@<<J@K#L=MyND,^(@<<J@K#L=MyND,^(@<<J@K#L=My",
"7O!(@@J:@9,#=v@y/O!(@@J:@9,#=v@y/O!(@@J:@9,#=v@y/O!(@@J:@9,#=v@y",
"|/=P@:@@@Q(#aR@y//=P@:@@@Q(#aR@y//=P@:@@@Q(#aR@y//=P@:@@@Q(#aR@y",
"'//@!@=@((=#S@//T//@!@=@((=#S@//T//@!@=@((=#S@//T//@!@=@((=#S@//",
" ###############################################################"};
