/* XPM */
static char *tree_green[] = {
/* columns rows colors chars-per-pixel */
"50 50 89 1 ",
"  c #0C2D25",
". c #0D2F28",
"X c #0E332B",
"o c #143A2E",
"O c #1D3B2C",
"+ c #0E3C32",
"@ c #123D32",
"# c #26343F",
"$ c #114136",
"% c #1E4B36",
"& c #14453A",
"* c #194538",
"= c #144A3E",
"- c #1A4B3C",
"; c #264D37",
": c #26523E",
"> c #3A673E",
", c #3A683F",
"< c #273341",
"1 c #2C3949",
"2 c #333F52",
"3 c #3B3D54",
"4 c #144B41",
"5 c #194F41",
"6 c #155245",
"7 c #195445",
"8 c #1C5947",
"9 c #165548",
"0 c #185649",
"q c #1C5A4A",
"w c #214E4C",
"e c #2E5D46",
"r c #215E4B",
"t c #285E49",
"y c #334253",
"u c #39465A",
"i c #374B5C",
"p c #38495C",
"a c #37545C",
"s c #38525C",
"d c #3A5D59",
"f c #24624D",
"g c #29654D",
"h c #2E6A4D",
"j c #316D4D",
"k c #36724E",
"l c #3A764E",
"z c #3E7A4F",
"x c #2A6750",
"c c #2E6A51",
"v c #326E53",
"b c #36645D",
"n c #3F645B",
"m c #367154",
"M c #3A7556",
"N c #3E7955",
"B c #36745D",
"V c #377C5D",
"C c #434257",
"Z c #474458",
"A c #484658",
"S c #47495A",
"D c #4D4A5A",
"F c #514C5B",
"G c #41525A",
"H c #4D515E",
"J c #445C5B",
"K c #56545D",
"L c #5B545E",
"P c #555A5E",
"I c #48695E",
"U c #437D54",
"Y c #42715D",
"T c #5B5E60",
"R c #615760",
"E c #675B62",
"W c #6B5D63",
"Q c #5F6A63",
"! c #6D6165",
"~ c #726366",
"^ c #34805D",
"/ c #50864F",
"( c #468153",
") c #4B8454",
"_ c #4E8855",
"` c #538C54",
"' c #579054",
"] c #5A9354",
"[ c #489848",
/* pixels */
"[[[[[[[[[[[[[[[[[[[[[[[[[[[[[[[[[[[[[[[[[[[[[[[[[[",
"[[[[[[[[[[[[[[[[[[[[[[[[c[[[[[[[[[[[[[[[[[[[[[[[[[",
"[[[[[[[[[[[[[[[[[[[[[[[)_x[[[[[[[[[[[[[[[[[[[[[[[[",
"[[[[[[[[[[[[[[[[[[[[[[)]``v+[[[[[[[[[[[[[[[[[[[[[[",
"[[[[[[[[[[[[[[[[[[[[jU'U]hmmr[[[[[[[[[[[[[[[[[[[[[",
"[[[[[[[[[[[[[[[[[[[[[fUU`N09[[[[[[[[[[[[[[[[[[[[[[",
"[[[[[[[[[[[[[[[[[[[gv_]`UNMk* [[[[[[[[[[[[[[[[[[[[",
"[[[[[[[[[[[[[[[[[[gMf_]U(''Nmq&[[[[[[[[[[[[[[[[[[[",
"[[[[[[[[[[[[[[[$vgqN''NmNf)qqr'c[[[[[[[[[[[[[[[[[[",
"[[[[[[[[[[[[[[[[fm'_((N))Ufc']]']])[[[[[[[[[[[[[[[",
"[[[[[[[[[[[[[[N`_')_]]_]''_Mh`]'kg-[[[[[[[[[[[[[[[",
"[[[[[[[[[[[[[[h``MB]])']__]MmfrNm6[[[[[[[[[[[[[[[[",
"[[[[[[[[[[[[[[ hc9z)mmm_(r)Ngc00[[[[[[[[[[[[[[[[[[",
"[[[[[[[[[[[[[[[[9990cM0qMr9f999qq [[[[[[[[[[[[[[[[",
"[[[[[[[[[[[[[[[+0mc)MMmqMm009990hv,[[[[[[[[[[[[[[[",
"[[[[[[[[[[[[[08M]_`]_mNM(Nm00vm00`U'f=[[[[[[[[[[[[",
"[[[[[[[[[[[ hN__(]]`)`]N_)MN_NBq9_])cg[[[[[[[[[[[[",
"[[[[[[[[[[[[[fff(](g(](N]]MN`_Mq9f((q[[[[[[[[[[[[[",
"[[[[[[[[[[[[[[+6NMf8](mM)]MMxr0996qq0[[[[[[[[[[[[[",
"[[[[[[[[[[[[[[8jh9qMvfmMMMBMMNqxgMfN[[[[[[[[[[[[[[",
"[[[[[[[[[[[[.(UlkhmMvvNBUNMUM`MMU])`_[[[[[[[[[[[[[",
"[[[[[[[[[[$,/]]]])M__MmB(`N]`]_cm]]'UN7[[[[[[[[[[[",
"[[[[[[[[&M''^]]N])']__NNU]]]]]])fm]]g0vg7[[[[[[[[[",
"[[[[[[[[[*cq)'M'__]](_(NB_]]]]``)fcl(qv)`f[[[[[[[[",
"[[[[[[[[[[$9ffqh`]l]]]]`MMUUU'Mv(f99x9qfr[[[[[[[[[",
"[[[[[[[[[[ 6qg99rr(`k]U`MMMvqMv0q999vc9[[[[[[[[[[[",
"[[[[[[[[[[ qNc00rgU0hUrMMBMxxr9999999NU0[[[[[[[[[[",
"[[[[[[[[[[%']mcfMMqxvgmMUUUxvMfr9rr99cUc[[[[[[[[[[",
"[[[[[[[[[%_]U`UMgUUN)BM``]]MM)MmvMvv09xMr[[[[[[[[[",
"[[[[[[[;/88q']Uf]]]])MM]]]]`B`Y)MMMMmv00[[[[[[[[[[",
"[[[[[[N`/(gU)Uq`_U]`NN)`(_]`fm]]mvvMfvfvr[[[[[[[[[",
"[[[[[[ovgU]Ul6rUfk_fm`)Mvv(Uff_`(x0ff99rMto[[[[[[[",
"[[[[[[[qv]]]]z889qq0N]NfMrrmvqrNfv099999qqX[[[[[[[",
"[[[[[[[Xvvf)]_fqvqqM]`r8Mq99999999990q996[[[[[[[[[",
"[[[[[[[[.+9M(_kUMMMUM87gmrfr99960rr9vBf09=[[[[[[[[",
"[[[[[[[[[*M']`)'MM)](((MMvMc99xrqmBrvMMv09X[[[[[[[",
"[[[[[[[[eN']mk']vk]](]]vgBMv99MBMMMMrmMM0[[[[[[[[[",
"[[[[[[[[+evqf`)m9m`MU`v9fqcMfvMMMvqvMrmvvX[[[[[[[[",
"[[[[[[[[[[[[Ogo6cMxxvv00799xqvmvMM4-ff5[[[[[[[[[[[",
"[[[[[[[[[[[[[[[=qq[9q00y3y09.5q0vr:[[[[[[[[[[[[[[[",
"[[[[[[[[[[[[[[[[[[[[[3333333[[$[4[[[[[[[[[[[[[[[[[",
"[[[[[[[[[[[[[[[[[[[[[3ZRCC33[[[[[[[[[[[[[[[[[[[[[[",
"[[[[[[[[[[[[[[[[[[[[[ZW~FEF3[[[[[[[[[[[[[[[[[[[[[[",
"[[[[[[[[[[[[[[[[yyy23H~~L~T32yy2y[[[[[[[[[[[[[[[[[",
"[[[[[[[[[[[[[aiispSSWDTWTLTCC3upisiu[[[[[[[[[[[[[[",
"[[[[[[[[[[[[ibVbbpSTGRWKdIdLQTupibiii[[[[[[[[[[[[[",
"[[[[[[[[[[[1iiaaupppGRBCdVuSBTTpppuii2[[[[[[[[[[[[",
"[[[[[[[[[[[[2iiiiuuiu3Biiiiipuupppuiy[[[[[[[[[[[[[",
"[[[[[[[[[[[[[<<#iiiiuiiuiipippppp<<<[[[[[[[[[[[[[[",
"[[[[[[[[[[[[[[[[[[[[[[[[[[[[[[[[[[[[[[[[[[[[[[[[[["
};
