/* XPM */
static char * down_xpm[] = {
"64 64 150 2",
"  	c #4D4E4C",
". 	c #4C4D4B",
"+ 	c #595B59",
"@ 	c #535452",
"# 	c #8D732C",
"$ 	c #515550",
"% 	c #555654",
"& 	c #585957",
"* 	c #616260",
"= 	c #515250",
"- 	c #4F504E",
"; 	c #555754",
"> 	c #525551",
", 	c #585A58",
"' 	c #4C4E4C",
") 	c #4E4F4D",
"! 	c #525451",
"~ 	c #AC8C32",
"{ 	c #454944",
"] 	c #525351",
"^ 	c #565755",
"/ 	c #50514F",
"( 	c #4A4B49",
"_ 	c #626361",
": 	c #535552",
"< 	c #525552",
"[ 	c #4D4F4D",
"} 	c #535551",
"| 	c #A58631",
"1 	c #585B57",
"2 	c #545654",
"3 	c #535553",
"4 	c #464745",
"5 	c #4A4C4A",
"6 	c #4B4C4A",
"7 	c #9A7E2F",
"8 	c #51524F",
"9 	c #515351",
"0 	c #484846",
"a 	c #40403E",
"b 	c #4F514E",
"c 	c #4A4B48",
"d 	c #4E504E",
"e 	c #50524F",
"f 	c #444543",
"g 	c #434542",
"h 	c #4E504D",
"i 	c #4D4D4B",
"j 	c #4F4F4D",
"k 	c #484A47",
"l 	c #676967",
"m 	c #464846",
"n 	c #505150",
"o 	c #4E4E4C",
"p 	c #494948",
"q 	c #4A4A49",
"r 	c #50504E",
"s 	c #575957",
"t 	c #515451",
"u 	c #454744",
"v 	c #4B4C49",
"w 	c #505250",
"x 	c #4B4D4A",
"y 	c #565754",
"z 	c #4E4D4D",
"A 	c #474846",
"B 	c #555755",
"C 	c #626462",
"D 	c #4C4C4A",
"E 	c #4C4E4B",
"F 	c #51514F",
"G 	c #494A48",
"H 	c #545553",
"I 	c #484947",
"J 	c #545452",
"K 	c #565856",
"L 	c #545451",
"M 	c #676459",
"N 	c #686457",
"O 	c #666154",
"P 	c #645E4F",
"Q 	c #676153",
"R 	c #665F50",
"S 	c #676052",
"T 	c #655D4F",
"U 	c #676051",
"V 	c #977C32",
"W 	c #696253",
"X 	c #696354",
"Y 	c #6C6658",
"Z 	c #6C6859",
"` 	c #6C695A",
" .	c #6C6657",
"..	c #6B6454",
"+.	c #67604F",
"@.	c #6B6353",
"#.	c #696151",
"$.	c #6B6252",
"%.	c #6A604F",
"&.	c #6A6150",
"*.	c #6A6251",
"=.	c #987D33",
"-.	c #6C6553",
";.	c #6D6655",
">.	c #6F6958",
",.	c #706A5A",
"'.	c #706B5B",
").	c #706958",
"!.	c #6E6654",
"~.	c #6B624F",
"{.	c #6F6653",
"].	c #6E6451",
"^.	c #6F6452",
"/.	c #6D624F",
"(.	c #6D6350",
"_.	c #6F6552",
":.	c #9A7F35",
"<.	c #716854",
"[.	c #706855",
"}.	c #736C59",
"|.	c #746E5B",
"1.	c #746E5C",
"2.	c #746C58",
"3.	c #726955",
"4.	c #6F6550",
"5.	c #726853",
"6.	c #726751",
"7.	c #736752",
"8.	c #71654F",
"9.	c #726750",
"0.	c #736852",
"a.	c #9C8136",
"b.	c #756B54",
"c.	c #756C56",
"d.	c #776F59",
"e.	c #766F5C",
"f.	c #E1C777",
"g.	c #E5C66D",
"h.	c #E5C367",
"i.	c #E5C163",
"j.	c #E5BF5E",
"k.	c #E5BD59",
"l.	c #E5BA52",
"m.	c #E5B74A",
"n.	c #E5C05E",
"o.	c #E5C263",
"p.	c #E5C66C",
"q.	c #E8CD7B",
"r.	c #E8CD7C",
"s.	c #E2C877",
"  . + @ # $ % & * = @ @ @ - ; >   . + @ # $ % & * = @ @ @ - ; >   . + @ # $ % & * = @ @ @ - ; >   . + @ # $ % & * = @ @ @ - ; > ",
", ' ) ! ~ { ] ^ / ( @ @ _ : < : , ' ) ! ~ { ] ^ / ( @ @ _ : < : , ' ) ! ~ { ] ^ / ( @ @ _ : < : , ' ) ! ~ { ] ^ / ( @ @ _ : < : ",
"= [ . } | 1 2 @ = @ _ _ 3 = = / = [ . } | 1 2 @ = @ _ _ 3 = = / = [ . } | 1 2 @ = @ _ _ 3 = = / = [ . } | 1 2 @ = @ _ _ 3 = = / ",
"4 5 6 ) 7 8 9 / 9 _ @ @ ) / / / 4 5 6 ) 7 8 9 / 9 _ @ @ ) / / / 4 5 6 ) 7 8 9 / 9 _ @ @ ) / / / 4 5 6 ) 7 8 9 / 9 _ @ @ ) / / / ",
"0 a [ b 7 c ' d ] _ @ / ) e / / 0 a [ b 7 c ' d ] _ @ / ) e / / 0 a [ b 7 c ' d ] _ @ / ) e / / 0 a [ b 7 c ' d ] _ @ / ) e / / ",
") f ) = 7 g @ @ / @ _ @   ] h / ) f ) = 7 g @ @ / @ _ @   ] h / ) f ) = 7 g @ @ / @ _ @   ] h / ) f ) = 7 g @ @ / @ _ @   ] h / ",
"i [ . j | k % / @ _ @ ] / ] ) ) i [ . j | k % / @ _ @ ] / ] ) ) i [ . j | k % / @ _ @ ] / ] ) ) i [ . j | k % / @ _ @ ] / ] ) ) ",
"# # # # | ~ | 7 7 7 | ~ | 7 # # # # # # | ~ | 7 7 7 | ~ | 7 # # # # # # | ~ | 7 7 7 | ~ | 7 # # # # # # | ~ | 7 7 7 | ~ | 7 # # ",
"l m 9 n o p q @ / 3 % | r = - ) l m 9 n o p q @ / 3 % | r = - ) l m 9 n o p q @ / 3 % | r = - ) l m 9 n o p q @ / 3 % | r = - ) ",
"s = t u v ( ] ) @ _ w 7 x = ) y s = t u v ( ] ) @ _ w 7 x = ) y s = t u v ( ] ) @ _ w 7 x = ) y s = t u v ( ] ) @ _ w 7 x = ) y ",
"^ w ] ( / = = @ _ @ / 7 z / A ^ ^ w ] ( / = = @ _ @ / 7 z / A ^ ^ w ] ( / = = @ _ @ / 7 z / A ^ ^ w ] ( / = = @ _ @ / 7 z / A ^ ",
"B w   ] / @ : : C @ D # E = F r B w   ] / @ : : C @ D # E = F r B w   ] / @ : : C @ D # E = F r B w   ] / @ : : C @ D # E = F r ",
"^ G ) / @ @ C _ @ 6   # = o @ r ^ G ) / @ @ C _ @ 6   # = o @ r ^ G ) / @ @ C _ @ 6   # = o @ r ^ G ) / @ @ C _ @ 6   # = o @ r ",
"^ ^ = H @ _ @ @ @ I / # 8 J @ r ^ ^ = H @ _ @ @ @ I / # 8 J @ r ^ ^ = H @ _ @ @ @ I / # 8 J @ r ^ ^ = H @ _ @ @ @ I / # 8 J @ r ",
"K ^ ^ @ ) @ = @ / / = # L @ ^ ^ K ^ ^ @ ) @ = @ / / = # L @ ^ ^ K ^ ^ @ ) @ = @ / / = # L @ ^ ^ K ^ ^ @ ) @ = @ / / = # L @ ^ ^ ",
"# # # # # # # # # # # # # # # # # # # # # # # # # # # # # # # # # # # # # # # # # # # # # # # # # # # # # # # # # # # # # # # # ",
"  . + @ # $ % & * = @ @ @ - ; >   . + @ # $ % & * = @ @ @ - ; >   . + @ # $ % & * = @ @ @ - ; >   . + @ # $ % & * = @ @ @ - ; > ",
", ' ) ! ~ { ] ^ / ( @ @ _ : < : , ' ) ! ~ { ] ^ / ( @ @ _ : < : , ' ) ! ~ { ] ^ / ( @ @ _ : < : , ' ) ! ~ { ] ^ / ( @ @ _ : < : ",
"= [ . } | 1 2 @ = @ _ _ 3 = = / = [ . } | 1 2 @ = @ _ _ 3 = = / = [ . } | 1 2 @ = @ _ _ 3 = = / = [ . } | 1 2 @ = @ _ _ 3 = = / ",
"4 5 6 ) 7 8 9 / 9 _ @ @ ) / / / 4 5 6 ) 7 8 9 / 9 _ @ @ ) / / / 4 5 6 ) 7 8 9 / 9 _ @ @ ) / / / 4 5 6 ) 7 8 9 / 9 _ @ @ ) / / / ",
"0 a [ b 7 c ' d ] _ @ / ) e / / 0 a [ b 7 c ' d ] _ @ / ) e / / 0 a [ b 7 c ' d ] _ @ / ) e / / 0 a [ b 7 c ' d ] _ @ / ) e / / ",
") f ) = 7 g @ @ / @ _ @   ] h / ) f ) = 7 g @ @ / @ _ @   ] h / ) f ) = 7 g @ @ / @ _ @   ] h / ) f ) = 7 g @ @ / @ _ @   ] h / ",
"i [ . j | k % / @ _ @ ] / ] ) ) i [ . j | k % / @ _ @ ] / ] ) ) i [ . j | k % / @ _ @ ] / ] ) ) i [ . j | k % / @ _ @ ] / ] ) ) ",
"# # # # | ~ | 7 7 7 | ~ | 7 # # # # # # | ~ | 7 7 7 | ~ | 7 # # # # # # | ~ | 7 7 7 | ~ | 7 # # # # # # | ~ | 7 7 7 | ~ | 7 # # ",
"l m 9 n o p q @ / 3 % | r = - ) l m 9 n o p q @ / 3 % | r = - ) l m 9 n o p q @ / 3 % | r = - ) l m 9 n o p q @ / 3 % | r = - ) ",
"s = t u v ( ] ) @ _ w 7 x = ) y s = t u v ( ] ) @ _ w 7 x = ) y s = t u v ( ] ) @ _ w 7 x = ) y s = t u v ( ] ) @ _ w 7 x = ) y ",
"^ w ] ( / = = @ _ @ / 7 z / A ^ ^ w ] ( / = = @ _ @ / 7 z / A ^ ^ w ] ( / = = @ _ @ / 7 z / A ^ ^ w ] ( / = = @ _ @ / 7 z / A ^ ",
"B w   ] / @ : : C @ D # E = F r B w   ] / @ : : C @ D # E = F r B w   ] / @ : : C @ D # E = F r B w   ] / @ : : C @ D # E = F r ",
"^ G ) / @ @ C _ @ 6   # = o @ r ^ G ) / @ @ C _ @ 6   # = o @ r ^ G ) / @ @ C _ @ 6   # = o @ r ^ G ) / @ @ C _ @ 6   # = o @ r ",
"^ ^ = H @ _ @ @ @ I / # 8 J @ r ^ ^ = H @ _ @ @ @ I / # 8 J @ r ^ ^ = H @ _ @ @ @ I / # 8 J @ r ^ ^ = H @ _ @ @ @ I / # 8 J @ r ",
"K ^ ^ @ ) @ = @ / / = # L @ ^ ^ K ^ ^ @ ) @ = @ / / = # L @ ^ ^ K ^ ^ @ ) @ = @ / / = # L @ ^ ^ K ^ ^ @ ) @ = @ / / = # L @ ^ ^ ",
"# # # # # # # # # # # # # # # # # # # # # # # # # # # # # # # # # # # # # # # # # # # # # # # # # # # # # # # # # # # # # # # # ",
"  . + @ # $ % & * = @ @ @ - ; >   . + @ # $ % & * = @ @ @ - ; >   . + @ # $ % & * = @ @ @ - ; >   . + @ # $ % & * = @ @ @ - ; > ",
", ' ) ! ~ { ] ^ / ( @ @ _ : < : , ' ) ! ~ { ] ^ / ( @ @ _ : < : , ' ) ! ~ { ] ^ / ( @ @ _ : < : , ' ) ! ~ { ] ^ / ( @ @ _ : < : ",
"= [ . } | 1 2 @ = @ _ _ 3 = = / = [ . } | 1 2 @ = @ _ _ 3 = = / = [ . } | 1 2 @ = @ _ _ 3 = = / = [ . } | 1 2 @ = @ _ _ 3 = = / ",
"4 5 6 ) 7 8 9 / 9 _ @ @ ) / / / 4 5 6 ) 7 8 9 / 9 _ @ @ ) / / / 4 5 6 ) 7 8 9 / 9 _ @ @ ) / / / 4 5 6 ) 7 8 9 / 9 _ @ @ ) / / / ",
"0 a [ b 7 c ' d ] _ @ / ) e / / 0 a [ b 7 c ' d ] _ @ / ) e / / 0 a [ b 7 c ' d ] _ @ / ) e / / 0 a [ b 7 c ' d ] _ @ / ) e / / ",
") f ) = 7 g @ @ / @ _ @   ] h / ) f ) = 7 g @ @ / @ _ @   ] h / ) f ) = 7 g @ @ / @ _ @   ] h / ) f ) = 7 g @ @ / @ _ @   ] h / ",
"i [ . j | k % / @ _ @ ] / ] ) ) i [ . j | k % / @ _ @ ] / ] ) ) i [ . j | k % / @ _ @ ] / ] ) ) i [ . j | k % / @ _ @ ] / ] ) ) ",
"# # # # | ~ | 7 7 7 | ~ | 7 # # # # # # | ~ | 7 7 7 | ~ | 7 # # # # # # | ~ | 7 7 7 | ~ | 7 # # # # # # | ~ | 7 7 7 | ~ | 7 # # ",
"l m 9 n o p q @ / 3 % | r = - ) l m 9 n o p q @ / 3 % | r = - ) l m 9 n o p q @ / 3 % | r = - ) l m 9 n o p q @ / 3 % | r = - ) ",
"s = t u v ( ] ) @ _ w 7 x = ) y s = t u v ( ] ) @ _ w 7 x = ) y s = t u v ( ] ) @ _ w 7 x = ) y s = t u v ( ] ) @ _ w 7 x = ) y ",
"^ w ] ( / = = @ _ @ / 7 z / A ^ ^ w ] ( / = = @ _ @ / 7 z / A ^ ^ w ] ( / = = @ _ @ / 7 z / A ^ ^ w ] ( / = = @ _ @ / 7 z / A ^ ",
"B w   ] / @ : : C @ D # E = F r B w   ] / @ : : C @ D # E = F r B w   ] / @ : : C @ D # E = F r B w   ] / @ : : C @ D # E = F r ",
"^ G ) / @ @ C _ @ 6   # = o @ r ^ G ) / @ @ C _ @ 6   # = o @ r ^ G ) / @ @ C _ @ 6   # = o @ r ^ G ) / @ @ C _ @ 6   # = o @ r ",
"^ ^ = H @ _ @ @ @ I / # 8 J @ r ^ ^ = H @ _ @ @ @ I / # 8 J @ r ^ ^ = H @ _ @ @ @ I / # 8 J @ r ^ ^ = H @ _ @ @ @ I / # 8 J @ r ",
"K ^ ^ @ ) @ = @ / / = # L @ ^ ^ K ^ ^ @ ) @ = @ / / = # L @ ^ ^ K ^ ^ @ ) @ = @ / / = # L @ ^ ^ K ^ ^ @ ) @ = @ / / = # L @ ^ ^ ",
"# # # # # # # # # # # # # # # # # # # # # # # # # # # # # # # # # # # # # # # # # # # # # # # # # # # # # # # # # # # # # # # # ",
"  . + @ # $ % & * = @ @ @ - ; >   . + @ # $ % & * = @ @ @ - ; >   . + @ # $ % & * = @ @ @ - ; >   . + @ # $ % & * = @ @ @ - ; > ",
", ' ) ! ~ { ] ^ / ( @ @ _ : < : , ' ) ! ~ { ] ^ / ( @ @ _ : < : , ' ) ! ~ { ] ^ / ( @ @ _ : < : , ' ) ! ~ { ] ^ / ( @ @ _ : < : ",
"= [ . } | 1 2 @ = @ _ _ 3 = = / = [ . } | 1 2 @ = @ _ _ 3 = = / = [ . } | 1 2 @ = @ _ _ 3 = = / = [ . } | 1 2 @ = @ _ _ 3 = = / ",
"4 5 6 ) 7 8 9 / 9 _ @ @ ) / / / 4 5 6 ) 7 8 9 / 9 _ @ @ ) / / / 4 5 6 ) 7 8 9 / 9 _ @ @ ) / / / 4 5 6 ) 7 8 9 / 9 _ @ @ ) / / / ",
"0 a [ b 7 c ' d ] _ @ / ) e / / 0 a [ b 7 c ' d ] _ @ / ) e / / 0 a [ b 7 c ' d ] _ @ / ) e / / 0 a [ b 7 c ' d ] _ @ / ) e / / ",
") f ) = 7 g @ @ / @ _ @   ] h / ) f ) = 7 g @ @ / @ _ @   ] h / ) f ) = 7 g @ @ / @ _ @   ] h / ) f ) = 7 g @ @ / @ _ @   ] h / ",
"i [ . j | k % / @ _ @ ] / ] ) ) i [ . j | k % / @ _ @ ] / ] ) ) i [ . j | k % / @ _ @ ] / ] ) ) i [ . j | k % / @ _ @ ] / ] ) ) ",
"# # # # | ~ | 7 7 7 | ~ | 7 # # # # # # | ~ | 7 7 7 | ~ | 7 # # # # # # | ~ | 7 7 7 | ~ | 7 # # # # # # | ~ | 7 7 7 | ~ | 7 # # ",
"l m 9 n o p q @ / 3 % | r = - ) l m 9 n o p q @ / 3 % | r = - ) l m 9 n o p q @ / 3 % | r = - ) l m 9 n o p q @ / 3 % | r = - ) ",
"s = t u v ( ] ) @ _ w 7 x = ) y s = t u v ( ] ) @ _ w 7 x = ) y s = t u v ( ] ) @ _ w 7 x = ) y s = t u v ( ] ) @ _ w 7 x = ) y ",
"^ w ] ( / = = @ _ @ / 7 z / A ^ ^ w ] ( / = = @ _ @ / 7 z / A ^ ^ w ] ( / = = @ _ @ / 7 z / A ^ ^ w ] ( / = = @ _ @ / 7 z / A ^ ",
"B w   ] / @ : : C @ D # E = F r B w   ] / @ : : C @ D # E = F r B w   ] / @ : : C @ D # E = F r B w   ] / @ : : C @ D # E = F r ",
"^ G ) / @ @ C _ @ 6   # = o @ r ^ G ) / @ @ C _ @ 6   # = o @ r ^ G ) / @ @ C _ @ 6   # = o @ r ^ G ) / @ @ C _ @ 6   # = o @ r ",
"^ ^ = H @ _ @ @ @ I / # 8 J @ r ^ ^ = H @ _ @ @ @ I / # 8 J @ r ^ ^ = H @ _ @ @ @ I / # 8 J @ r ^ ^ = H @ _ @ @ @ I / # 8 J @ r ",
"M N N O P Q R S T R U V W X Y Z ` Y  ...+.@.#.$.%.&.*.=.-.;.>.,.'.).).!.~.{.].^./.(._.:.<.[.}.|.1.}.2.3.4.5.6.7.8.9.0.a.b.c.d.e.",
"f.g.h.i.j.k.l.m.m.l.k.n.o.h.p.q.r.g.h.o.n.k.l.m.m.l.k.n.o.h.p.q.r.g.h.o.n.k.l.m.m.l.k.n.o.h.p.q.r.g.h.o.n.k.l.m.m.l.k.n.i.h.p.s."};
