/* XPM */
static char * red_window_xpm[] = {
"64 64 99 2",
"  	c #432B2B",
". 	c #402B2C",
"+ 	c #462B2A",
"@ 	c #603737",
"# 	c #623939",
"$ 	c #5E3637",
"% 	c #5D3536",
"& 	c #5E3636",
"* 	c #5C3536",
"= 	c #442B2B",
"- 	c #512525",
"; 	c #522626",
"> 	c #522526",
", 	c #522525",
"' 	c #5C3435",
") 	c #6F403F",
"! 	c #724240",
"~ 	c #714140",
"{ 	c #70403F",
"] 	c #70413F",
"^ 	c #6D3E3E",
"/ 	c #552728",
"( 	c #562D2D",
"_ 	c #452B2A",
": 	c #734241",
"< 	c #883F36",
"[ 	c #81362D",
"} 	c #82423C",
"| 	c #7D433F",
"1 	c #83423C",
"2 	c #673632",
"3 	c #673732",
"4 	c #854039",
"5 	c #572A2A",
"6 	c #552C2D",
"7 	c #512626",
"8 	c #7B362E",
"9 	c #894036",
"0 	c #793730",
"a 	c #713733",
"b 	c #64342F",
"c 	c #4A3431",
"d 	c #663531",
"e 	c #7A362F",
"f 	c #552828",
"g 	c #593031",
"h 	c #492B29",
"i 	c #7E3F3A",
"j 	c #763630",
"k 	c #7C403C",
"l 	c #63342E",
"m 	c #753731",
"n 	c #7E403B",
"o 	c #512B28",
"p 	c #7E423D",
"q 	c #733732",
"r 	c #79403D",
"s 	c #743732",
"t 	c #7A403C",
"u 	c #522C2A",
"v 	c #512526",
"w 	c #723733",
"x 	c #79413D",
"y 	c #723631",
"z 	c #76423F",
"A 	c #71403F",
"B 	c #522727",
"C 	c #80433D",
"D 	c #78352E",
"E 	c #7B413D",
"F 	c #834039",
"G 	c #7A433F",
"H 	c #532727",
"I 	c #482D2D",
"J 	c #724241",
"K 	c #6B3836",
"L 	c #873F36",
"M 	c #7E362E",
"N 	c #703733",
"O 	c #532627",
"P 	c #513030",
"Q 	c #824038",
"R 	c #7E413B",
"S 	c #78413E",
"T 	c #5B3334",
"U 	c #542D2C",
"V 	c #492D2D",
"W 	c #532526",
"X 	c #6F3F3D",
"Y 	c #552727",
"Z 	c #593132",
"` 	c #542D2B",
" .	c #532626",
"..	c #5B3333",
"+.	c #462C2C",
"@.	c #412B2C",
"#.	c #422B2C",
"$.	c #472C2C",
"%.	c #452B2B",
"  . . . . . . . . . . . . . . .   . . . . . . . . . . . . . . .   . . . . . . . . . . . . . . .   . . . . . . . . . . . . . . . ",
"+ @ # $ % % & % % % % * % % % = + @ # $ % % & % % % % * % % % = + @ # $ % % & % % % % * % % % = + @ # $ % % & % % % % * % % % = ",
"+ % - ; ; ; ; ; ; > > > > , ' = + % - ; ; ; ; ; ; > > > > , ' = + % - ; ; ; ; ; ; > > > > , ' = + % - ; ; ; ; ; ; > > > > , ' = ",
"+ % , ) ) ! ! ! ! ~ { ] ^ / ( _ + % , ) ) ! ! ! ! ~ { ] ^ / ( _ + % , ) ) ! ! ! ! ~ { ] ^ / ( _ + % , ) ) ! ! ! ! ~ { ] ^ / ( _ ",
"+ % , : < [ } | 1 2 3 4 : 5 6 _ + % , : < [ } | 1 2 3 4 : 5 6 _ + % , : < [ } | 1 2 3 4 : 5 6 _ + % , : < [ } | 1 2 3 4 : 5 6 _ ",
"= % 7 : 8 9 0 a b c d e ! f g h = % 7 : 8 9 0 a b c d e ! f g h = % 7 : 8 9 0 a b c d e ! f g h = % 7 : 8 9 0 a b c d e ! f g h ",
"= % 7 : i j k l c l m n ! ; ' o = % 7 : i j k l c l m n ! ; ' o = % 7 : i j k l c l m n ! ; ' o = % 7 : i j k l c l m n ! ; ' o ",
"= % 7 : p q r l c l s t ! ; % u = % 7 : p q r l c l s t ! ; % u = % 7 : p q r l c l s t ! ; % u = % 7 : p q r l c l s t ! ; % u ",
"= % v : | w x l c l y z A B % u = % v : | w x l c l y z A B % u = % v : | w x l c l y z A B % u = % v : | w x l c l y z A B % u ",
"= % - : C D E F l c l G { H % u = % - : C D E F l c l G { H % u = % - : C D E F l c l G { H % u = % - : C D E F l c l G { H % u ",
"I % , J K L M N m l c l ) O % u I % , J K L M N m l c l ) O % u I % , J K L M N m l c l ) O % u I % , J K L M N m l c l ) O % u ",
"P % - ! Q q F R S F l l ) H T U P % - ! Q q F R S F l l ) H T U P % - ! Q q F R S F l l ) H T U P % - ! Q q F R S F l l ) H T U ",
"V % W X : : J ~ ~ ~ ~ ~ : Y Z ` V % W X : : J ~ ~ ~ ~ ~ : Y Z ` V % W X : : J ~ ~ ~ ~ ~ : Y Z ` V % W X : : J ~ ~ ~ ~ ~ : Y Z ` ",
"  % , - , , - ; ; ;  .; ; , ..V   % , - , , - ; ; ;  .; ; , ..V   % , - , , - ; ; ;  .; ; , ..V   % , - , , - ; ; ;  .; ; , ..V ",
"= * % % % % % % % % % % % % % +.= * % % % % % % % % % % % % % +.= * % % % % % % % % % % % % % +.= * % % % % % % % % % % % % % +.",
". @.@.@.@.#.@.@.@.@.@.@.  $.%.@.. @.@.@.@.#.@.@.@.@.@.@.  $.%.@.. @.@.@.@.#.@.@.@.@.@.@.  $.%.@.. @.@.@.@.#.@.@.@.@.@.@.  $.%.@.",
"  . . . . . . . . . . . . . . .   . . . . . . . . . . . . . . .   . . . . . . . . . . . . . . .   . . . . . . . . . . . . . . . ",
"+ @ # $ % % & % % % % * % % % = + @ # $ % % & % % % % * % % % = + @ # $ % % & % % % % * % % % = + @ # $ % % & % % % % * % % % = ",
"+ % - ; ; ; ; ; ; > > > > , ' = + % - ; ; ; ; ; ; > > > > , ' = + % - ; ; ; ; ; ; > > > > , ' = + % - ; ; ; ; ; ; > > > > , ' = ",
"+ % , ) ) ! ! ! ! ~ { ] ^ / ( _ + % , ) ) ! ! ! ! ~ { ] ^ / ( _ + % , ) ) ! ! ! ! ~ { ] ^ / ( _ + % , ) ) ! ! ! ! ~ { ] ^ / ( _ ",
"+ % , : < [ } | 1 2 3 4 : 5 6 _ + % , : < [ } | 1 2 3 4 : 5 6 _ + % , : < [ } | 1 2 3 4 : 5 6 _ + % , : < [ } | 1 2 3 4 : 5 6 _ ",
"= % 7 : 8 9 0 a b c d e ! f g h = % 7 : 8 9 0 a b c d e ! f g h = % 7 : 8 9 0 a b c d e ! f g h = % 7 : 8 9 0 a b c d e ! f g h ",
"= % 7 : i j k l c l m n ! ; ' o = % 7 : i j k l c l m n ! ; ' o = % 7 : i j k l c l m n ! ; ' o = % 7 : i j k l c l m n ! ; ' o ",
"= % 7 : p q r l c l s t ! ; % u = % 7 : p q r l c l s t ! ; % u = % 7 : p q r l c l s t ! ; % u = % 7 : p q r l c l s t ! ; % u ",
"= % v : | w x l c l y z A B % u = % v : | w x l c l y z A B % u = % v : | w x l c l y z A B % u = % v : | w x l c l y z A B % u ",
"= % - : C D E F l c l G { H % u = % - : C D E F l c l G { H % u = % - : C D E F l c l G { H % u = % - : C D E F l c l G { H % u ",
"I % , J K L M N m l c l ) O % u I % , J K L M N m l c l ) O % u I % , J K L M N m l c l ) O % u I % , J K L M N m l c l ) O % u ",
"P % - ! Q q F R S F l l ) H T U P % - ! Q q F R S F l l ) H T U P % - ! Q q F R S F l l ) H T U P % - ! Q q F R S F l l ) H T U ",
"V % W X : : J ~ ~ ~ ~ ~ : Y Z ` V % W X : : J ~ ~ ~ ~ ~ : Y Z ` V % W X : : J ~ ~ ~ ~ ~ : Y Z ` V % W X : : J ~ ~ ~ ~ ~ : Y Z ` ",
"  % , - , , - ; ; ;  .; ; , ..V   % , - , , - ; ; ;  .; ; , ..V   % , - , , - ; ; ;  .; ; , ..V   % , - , , - ; ; ;  .; ; , ..V ",
"= * % % % % % % % % % % % % % +.= * % % % % % % % % % % % % % +.= * % % % % % % % % % % % % % +.= * % % % % % % % % % % % % % +.",
". @.@.@.@.#.@.@.@.@.@.@.  $.%.@.. @.@.@.@.#.@.@.@.@.@.@.  $.%.@.. @.@.@.@.#.@.@.@.@.@.@.  $.%.@.. @.@.@.@.#.@.@.@.@.@.@.  $.%.@.",
"  . . . . . . . . . . . . . . .   . . . . . . . . . . . . . . .   . . . . . . . . . . . . . . .   . . . . . . . . . . . . . . . ",
"+ @ # $ % % & % % % % * % % % = + @ # $ % % & % % % % * % % % = + @ # $ % % & % % % % * % % % = + @ # $ % % & % % % % * % % % = ",
"+ % - ; ; ; ; ; ; > > > > , ' = + % - ; ; ; ; ; ; > > > > , ' = + % - ; ; ; ; ; ; > > > > , ' = + % - ; ; ; ; ; ; > > > > , ' = ",
"+ % , ) ) ! ! ! ! ~ { ] ^ / ( _ + % , ) ) ! ! ! ! ~ { ] ^ / ( _ + % , ) ) ! ! ! ! ~ { ] ^ / ( _ + % , ) ) ! ! ! ! ~ { ] ^ / ( _ ",
"+ % , : < [ } | 1 2 3 4 : 5 6 _ + % , : < [ } | 1 2 3 4 : 5 6 _ + % , : < [ } | 1 2 3 4 : 5 6 _ + % , : < [ } | 1 2 3 4 : 5 6 _ ",
"= % 7 : 8 9 0 a b c d e ! f g h = % 7 : 8 9 0 a b c d e ! f g h = % 7 : 8 9 0 a b c d e ! f g h = % 7 : 8 9 0 a b c d e ! f g h ",
"= % 7 : i j k l c l m n ! ; ' o = % 7 : i j k l c l m n ! ; ' o = % 7 : i j k l c l m n ! ; ' o = % 7 : i j k l c l m n ! ; ' o ",
"= % 7 : p q r l c l s t ! ; % u = % 7 : p q r l c l s t ! ; % u = % 7 : p q r l c l s t ! ; % u = % 7 : p q r l c l s t ! ; % u ",
"= % v : | w x l c l y z A B % u = % v : | w x l c l y z A B % u = % v : | w x l c l y z A B % u = % v : | w x l c l y z A B % u ",
"= % - : C D E F l c l G { H % u = % - : C D E F l c l G { H % u = % - : C D E F l c l G { H % u = % - : C D E F l c l G { H % u ",
"I % , J K L M N m l c l ) O % u I % , J K L M N m l c l ) O % u I % , J K L M N m l c l ) O % u I % , J K L M N m l c l ) O % u ",
"P % - ! Q q F R S F l l ) H T U P % - ! Q q F R S F l l ) H T U P % - ! Q q F R S F l l ) H T U P % - ! Q q F R S F l l ) H T U ",
"V % W X : : J ~ ~ ~ ~ ~ : Y Z ` V % W X : : J ~ ~ ~ ~ ~ : Y Z ` V % W X : : J ~ ~ ~ ~ ~ : Y Z ` V % W X : : J ~ ~ ~ ~ ~ : Y Z ` ",
"  % , - , , - ; ; ;  .; ; , ..V   % , - , , - ; ; ;  .; ; , ..V   % , - , , - ; ; ;  .; ; , ..V   % , - , , - ; ; ;  .; ; , ..V ",
"= * % % % % % % % % % % % % % +.= * % % % % % % % % % % % % % +.= * % % % % % % % % % % % % % +.= * % % % % % % % % % % % % % +.",
". @.@.@.@.#.@.@.@.@.@.@.  $.%.@.. @.@.@.@.#.@.@.@.@.@.@.  $.%.@.. @.@.@.@.#.@.@.@.@.@.@.  $.%.@.. @.@.@.@.#.@.@.@.@.@.@.  $.%.@.",
"  . . . . . . . . . . . . . . .   . . . . . . . . . . . . . . .   . . . . . . . . . . . . . . .   . . . . . . . . . . . . . . . ",
"+ @ # $ % % & % % % % * % % % = + @ # $ % % & % % % % * % % % = + @ # $ % % & % % % % * % % % = + @ # $ % % & % % % % * % % % = ",
"+ % - ; ; ; ; ; ; > > > > , ' = + % - ; ; ; ; ; ; > > > > , ' = + % - ; ; ; ; ; ; > > > > , ' = + % - ; ; ; ; ; ; > > > > , ' = ",
"+ % , ) ) ! ! ! ! ~ { ] ^ / ( _ + % , ) ) ! ! ! ! ~ { ] ^ / ( _ + % , ) ) ! ! ! ! ~ { ] ^ / ( _ + % , ) ) ! ! ! ! ~ { ] ^ / ( _ ",
"+ % , : < [ } | 1 2 3 4 : 5 6 _ + % , : < [ } | 1 2 3 4 : 5 6 _ + % , : < [ } | 1 2 3 4 : 5 6 _ + % , : < [ } | 1 2 3 4 : 5 6 _ ",
"= % 7 : 8 9 0 a b c d e ! f g h = % 7 : 8 9 0 a b c d e ! f g h = % 7 : 8 9 0 a b c d e ! f g h = % 7 : 8 9 0 a b c d e ! f g h ",
"= % 7 : i j k l c l m n ! ; ' o = % 7 : i j k l c l m n ! ; ' o = % 7 : i j k l c l m n ! ; ' o = % 7 : i j k l c l m n ! ; ' o ",
"= % 7 : p q r l c l s t ! ; % u = % 7 : p q r l c l s t ! ; % u = % 7 : p q r l c l s t ! ; % u = % 7 : p q r l c l s t ! ; % u ",
"= % v : | w x l c l y z A B % u = % v : | w x l c l y z A B % u = % v : | w x l c l y z A B % u = % v : | w x l c l y z A B % u ",
"= % - : C D E F l c l G { H % u = % - : C D E F l c l G { H % u = % - : C D E F l c l G { H % u = % - : C D E F l c l G { H % u ",
"I % , J K L M N m l c l ) O % u I % , J K L M N m l c l ) O % u I % , J K L M N m l c l ) O % u I % , J K L M N m l c l ) O % u ",
"P % - ! Q q F R S F l l ) H T U P % - ! Q q F R S F l l ) H T U P % - ! Q q F R S F l l ) H T U P % - ! Q q F R S F l l ) H T U ",
"V % W X : : J ~ ~ ~ ~ ~ : Y Z ` V % W X : : J ~ ~ ~ ~ ~ : Y Z ` V % W X : : J ~ ~ ~ ~ ~ : Y Z ` V % W X : : J ~ ~ ~ ~ ~ : Y Z ` ",
"  % , - , , - ; ; ;  .; ; , ..V   % , - , , - ; ; ;  .; ; , ..V   % , - , , - ; ; ;  .; ; , ..V   % , - , , - ; ; ;  .; ; , ..V ",
"= * % % % % % % % % % % % % % +.= * % % % % % % % % % % % % % +.= * % % % % % % % % % % % % % +.= * % % % % % % % % % % % % % +.",
". @.@.@.@.#.@.@.@.@.@.@.  $.%.@.. @.@.@.@.#.@.@.@.@.@.@.  $.%.@.. @.@.@.@.#.@.@.@.@.@.@.  $.%.@.. @.@.@.@.#.@.@.@.@.@.@.  $.%.@."};
